<?xml version="1.0" standalone="no"?>
<!DOCTYPE svg PUBLIC "-//W3C//DTD SVG 1.1//EN" "http://www.w3.org/Graphics/SVG/1.1/DTD/svg11.dtd" >
<svg xmlns="http://www.w3.org/2000/svg">
<metadata>
This is a custom SVG webfont generated by Font Squirrel.
Copyright   : Copyright  1985 1987 1989 1990 1992 1997 1998 1999 2002 Adobe Systems Incorporated  All Rights Reserved  1981 1999 2002 Heidelberger Druckmaschinen AG All rights reserved
Designer    : Hermann Zapf
Foundry URL : httpwwwadobecomtype
</metadata>
<defs>
<font id="PalatinoLTStdBold" horiz-adv-x="1024" >
<font-face units-per-em="2048" ascent="1487" descent="-561" />
<missing-glyph horiz-adv-x="512" />
<glyph unicode=" "  horiz-adv-x="512" />
<glyph unicode="&#x09;" horiz-adv-x="512" />
<glyph unicode="&#xa0;" horiz-adv-x="512" />
<glyph unicode="!" horiz-adv-x="569" d="M129 131q0 66 48 115t111.5 49t112 -49t48.5 -115q0 -59 -48.5 -107.5t-112 -48.5t-111.5 46.5t-48 109.5zM139 1319l205 90h105q0 -96 -15 -197l-102 -761l-78 -43l-10 16l-97 733q-4 33 -8 162z" />
<glyph unicode="&#x22;" horiz-adv-x="823" d="M45 1280q0 51 43 97t96.5 46t96.5 -46t43 -97q0 -14 -2 -20l-91 -490h-94l-90 490q-2 6 -2 20zM500 1280q0 51 43 97t96 46t96 -46t43 -97q0 -14 -2 -20l-90 -490h-94l-90 490q-2 6 -2 20z" />
<glyph unicode="#" d="M8 440v154h236l32 219h-210v154h233l61 411h154l-61 -411h219l59 411h154l-60 -411h191v-154h-213l-33 -219h193v-154h-215l-66 -440h-154l66 440h-221l-66 -440h-153l65 440h-211zM397 594h219l33 219h-219z" />
<glyph unicode="$" d="M57 944q0 350 396 424l-4 109h102l-4 -109q190 0 338 -68l4 -14q-29 -102 -29 -287h-80v33q0 94 -14 131q-10 31 -83 62.5t-136 31.5v-434q100 -16 168.5 -39.5t130 -65.5t91.5 -111.5t30 -168.5q0 -188 -117 -318t-303 -147l4 -206h-105l7 198q-233 6 -385 82l-7 19 q12 115 19 305h82l2 -82q0 -61 22.5 -98t105.5 -76t161 -39v491q-201 23 -298.5 105t-97.5 272zM266 1032q0 -82 51.5 -134t135.5 -62v421q-66 0 -126.5 -62.5t-60.5 -162.5zM547 82q88 20 144.5 88t56.5 158q0 92 -53.5 150.5t-147.5 68.5v-465z" />
<glyph unicode="%" horiz-adv-x="1820" d="M125 1094q0 150 94 245t239.5 95t240 -95.5t94.5 -244.5q0 -145 -98.5 -238.5t-235.5 -93.5t-235.5 93.5t-98.5 238.5zM330 1104q0 -156 33.5 -216.5t95 -60.5t95.5 60.5t34 216.5q0 264 -129 264t-129 -264zM479 -18l750 1480h100l-749 -1480h-101zM1028 332 q0 150 94.5 245t239.5 95t239.5 -95.5t94.5 -244.5q0 -145 -98.5 -238.5t-235.5 -93.5t-235.5 93.5t-98.5 238.5zM1233 342q0 -156 33.5 -216t95 -60t95.5 60t34 216q0 264 -129 264t-129 -264z" />
<glyph unicode="&#x26;" horiz-adv-x="1705" d="M106 362q0 141 84 234.5t234 167.5q-68 162 -68 268q0 102 105 213l71 78q72 78 220 78q100 0 162.5 -58.5t62.5 -158.5q0 -66 -27.5 -125.5t-85 -111.5t-97.5 -81.5t-114 -77.5q176 -264 422 -464q66 96 66 184q0 86 -41 164h-185q51 98 60 135l242 -8q33 -2 96 -2 q123 0 301 12l6 -18q-31 -70 -41 -144q-135 14 -289 15q6 -35 6 -70q0 -156 -133 -320q145 -100 312 -100q14 0 27.5 2t27.5 9l22 12q8 4 24.5 16t25.5 16l34 23l29 -66q-129 -106 -190 -202l-136 -7h-18q-170 0 -332 134q-178 -143 -407 -144q-197 0 -336.5 104.5 t-139.5 292.5zM350 473q0 -145 110.5 -254.5t256.5 -109.5q106 0 186 61q-274 233 -448 518q-57 -53 -81 -100t-24 -115zM543 1110q0 -82 69 -238q186 119 187 267q0 57 -32 96t-87 39q-137 0 -137 -164z" />
<glyph unicode="'" horiz-adv-x="464" d="M92 1280q0 51 43 97t96.5 46t96.5 -46t43 -97q0 -14 -2 -20l-90 -490h-95l-90 490q-2 6 -2 20z" />
<glyph unicode="(" horiz-adv-x="681" d="M133 627q0 528 438 854l54 -45q-74 -82 -121 -179.5t-66.5 -213t-25.5 -205.5t-6 -226q0 -262 39.5 -439t179.5 -337l-50 -49q-442 310 -442 840z" />
<glyph unicode=")" horiz-adv-x="681" d="M57 -164q139 160 179 337t40 439q0 135 -6 225.5t-25.5 206t-66.5 213t-121 179.5l54 45q438 -326 438 -854q0 -530 -443 -840z" />
<glyph unicode="*" horiz-adv-x="909" d="M90 936l8 14q129 31 281 109q-104 74 -283 121l-6 14q63 100 90 158h33q158 -182 209 -234q27 133 27 266v25l16 14q88 -33 188 -45l11 -28q-80 -78 -168 -260q27 6 99.5 19t118.5 23.5t70 20.5l13 -6q-2 -12 -2 -37q0 -68 22 -141l-18 -23q-131 53 -316 70 q12 -18 36 -57t38 -64t39 -58.5t51 -62.5l-4 -24q-74 -12 -174 -70l-31 14q0 162 -22 297q-45 -31 -105.5 -94t-101.5 -121l-39 17q-29 88 -80 143z" />
<glyph unicode="+" horiz-adv-x="1241" d="M104 434v176h428v424h177v-424h428v-176h-428v-434h-177v434h-428z" />
<glyph unicode="," horiz-adv-x="512" d="M-12 -313q68 133 115 284.5t53 239.5q154 39 274 78l35 -33q-90 -197 -301 -535l-146 -61z" />
<glyph unicode="-" horiz-adv-x="681" d="M33 416q6 23 34.5 101.5t34.5 107.5h529l18 -21q-51 -119 -65 -205h-535z" />
<glyph unicode="." horiz-adv-x="512" d="M96 131q0 66 48.5 115t111.5 49t111.5 -49t48.5 -115q0 -59 -48.5 -107.5t-111.5 -48.5t-111.5 46.5t-48.5 109.5z" />
<glyph unicode="/" horiz-adv-x="606" d="M-18 -35l458 1510h185l-459 -1510h-184z" />
<glyph unicode="0" d="M68 639q0 111 9 201t38.5 190t79 167t136.5 111t206 44q109 0 187.5 -38t122.5 -96.5t70.5 -146.5t33.5 -167t7 -181q0 -94 -5 -170t-19 -169t-47 -162.5t-81 -130t-127 -93.5t-181 -33q-115 0 -198 43t-127 104.5t-68.5 159t-30.5 177t-6 190.5zM313 766q0 -242 23 -408 q8 -57 16 -95t27.5 -89t56.5 -78.5t90 -27.5q66 0 110 64.5t60.5 159.5t16.5 220q0 231 -23 420q-6 49 -10 78.5t-18.5 81t-33 81t-52 53t-76.5 23.5q-186 0 -187 -424v-59z" />
<glyph unicode="1" d="M72 1153v12q217 51 612 207l25 -20q-20 -328 -21 -521v-659q0 -88 117 -96l127 -6v-76q-94 2 -206 4t-157 2q-37 0 -160.5 -2t-254.5 -4v76l147 6q117 8 117 96v922q0 63 -21 63q-6 0 -10 -2l-287 -133q-28 70 -28 131z" />
<glyph unicode="2" d="M51 -6v104l342 340q240 236 240 461q0 113 -58.5 175.5t-168.5 62.5q-61 0 -121 -34t-72 -79l-37 -139l-76 6l37 338q152 123 322 123q197 0 320.5 -97.5t123.5 -265.5q0 -195 -211 -405l-356 -351l4 -16l618 23l9 -11q-6 -57 -6 -127q0 -43 4 -108q-88 0 -242 3t-215 3 q-63 0 -218 -3t-239 -3z" />
<glyph unicode="3" d="M45 319l70 19q53 -125 128.5 -191.5t198.5 -66.5q111 0 176.5 83t65.5 187q0 117 -69.5 186.5t-186.5 69.5q-72 0 -127 -16l-14 10l39 152h71q102 0 167 56t65 165q0 80 -56.5 129t-152.5 49q-106 0 -163.5 -61.5t-76.5 -145.5h-71l63 316q152 92 309 92q164 0 269.5 -81 t105.5 -206q0 -100 -62.5 -176t-160.5 -121v-4q137 -10 221 -88t84 -213q0 -211 -186 -363q-168 -135 -387 -135q-162 0 -269 49q-6 57 -51 305z" />
<glyph unicode="4" d="M25 418q160 406 501 903l250 55l15 -24q-12 -393 -13 -590v-256h180l3 -4v-164h-183v-111q0 -147 117 -151l74 -6v-76q-55 0 -157.5 3t-152.5 3q-43 0 -155.5 -2t-212.5 -4v76l131 6q117 4 117 151v111h-500zM168 506h371v674h-4q-18 -33 -71.5 -116t-78.5 -130 l-127 -238q-18 -35 -50 -103.5t-40 -86.5z" />
<glyph unicode="5" d="M86 285l61 37q37 -98 122 -168t186 -70q127 0 198.5 73.5t71.5 200.5t-70.5 207t-197.5 80q-145 0 -234 -82l-39 23q12 252 13 254v209q0 106 -13 278l15 16q313 -12 348 -12l362 12l9 -16q-14 -55 -15 -129q0 -47 2 -72l-12 -22q-33 0 -92.5 2t-108.5 3t-92 1l-295 -6 l-8 -318q150 70 266 70q174 0 289 -95t115 -267q0 -231 -179 -383q-172 -145 -397 -146q-150 0 -241 45q-13 68 -64 275z" />
<glyph unicode="6" d="M76 561q0 412 305 647q186 143 430 144l80 -56l-31 -32q-14 2 -43 2q-113 0 -214 -54.5t-167 -164.5q-74 -125 -92 -369l4 -4q125 164 297 164q156 0 236 -111t80 -270q0 -209 -118 -350.5t-323 -141.5q-444 0 -444 596zM338 414q0 -147 50 -246.5t151 -99.5q98 0 139 85 t41 195q0 70 -15.5 135.5t-61.5 122t-118 56.5q-186 0 -186 -248z" />
<glyph unicode="7" d="M94 1327l21 16q68 -2 190.5 -5t224 -5t191.5 -2l289 6v-92q-86 -135 -191 -352l-225 -459q-111 -229 -176 -440q-117 6 -119 6q-18 0 -57 -3t-49 -3l-13 22l615 1061l-9 13h-460q-74 0 -97.5 -20.5t-31.5 -86.5l-17 -131h-80q0 27 1 80t1 82q0 182 -8 313z" />
<glyph unicode="8" d="M70 324q0 109 68.5 197.5t170.5 133.5q-205 109 -205 316q0 172 115 276.5t320 104.5q154 0 255 -77t101 -224q0 -158 -193 -281q102 -35 178 -123t76 -229q0 -199 -137 -326t-337.5 -127t-306 107t-105.5 252zM252 344q0 -115 73.5 -193.5t186.5 -78.5q94 0 156.5 68.5 t62.5 164.5q0 98 -55 155.5t-158 102.5l-125 55q-74 -61 -107.5 -122.5t-33.5 -151.5zM315 1063q0 -82 53.5 -131t143.5 -88l90 -39q121 96 121 217q0 98 -56.5 160.5t-154.5 62.5q-86 0 -141.5 -48t-55.5 -134z" />
<glyph unicode="9" d="M63 872q0 223 120 351.5t319 128.5q123 0 213 -44t139 -123t71.5 -174.5t22.5 -213.5q0 -193 -62.5 -359t-194.5 -288.5t-318 -167.5q-51 -12 -158 -17l-78 60l19 36q25 -6 57 -6q115 0 244 76q78 51 131 150q70 127 90 364l-129 -113q-55 -49 -158 -49 q-166 0 -247 108.5t-81 280.5zM305 977q0 -78 15.5 -143.5t64.5 -118.5t127 -53q176 0 176 239q0 344 -192 344q-102 0 -146.5 -78.5t-44.5 -189.5z" />
<glyph unicode=":" horiz-adv-x="512" d="M96 131q0 66 48.5 115t111.5 49t111.5 -49t48.5 -115q0 -59 -48.5 -107.5t-111.5 -48.5t-111.5 46.5t-48.5 109.5zM96 766q0 66 48.5 115t111.5 49t111.5 -49.5t48.5 -114.5q0 -59 -48.5 -107.5t-111.5 -48.5t-111.5 46.5t-48.5 109.5z" />
<glyph unicode=";" horiz-adv-x="512" d="M-12 -313q68 133 115 284.5t53 239.5q154 39 274 78l35 -33q-90 -197 -301 -535l-146 -61zM143 766q0 66 48.5 115t112 49t111.5 -49.5t48 -114.5q0 -59 -48 -107.5t-111.5 -48.5t-112 46.5t-48.5 109.5z" />
<glyph unicode="&#x3c;" horiz-adv-x="1241" d="M100 440v152l1043 471v-172l-815 -375l815 -375v-172z" />
<glyph unicode="=" horiz-adv-x="1241" d="M104 233v177h1033v-177h-1033zM104 635v176h1033v-176h-1033z" />
<glyph unicode="&#x3e;" horiz-adv-x="1241" d="M100 -31v172l815 375l-815 375v172l1043 -471v-152z" />
<glyph unicode="?" horiz-adv-x="909" d="M88 1036q59 180 66 273q135 98 305 98q158 0 270.5 -80t112.5 -233q0 -98 -33 -156.5t-113 -126.5l-157 -131q-129 -106 -129 -191q0 -35 20 -71l2 -4l-70 -29q-53 61 -53 160q0 96 156 276q102 121 102 215q0 76 -55 125t-133 49q-133 0 -156 -47l-63 -145zM238 131 q0 66 48 115t111.5 49t111.5 -49t48 -115q0 -59 -48 -107.5t-111.5 -48.5t-111.5 46.5t-48 109.5z" />
<glyph unicode="@" horiz-adv-x="1529" d="M86 670q0 305 205 515t510 210q276 0 458.5 -170t182.5 -397.5t-139 -378.5q-59 -66 -148.5 -117t-165.5 -51q-68 0 -103.5 49t-41.5 119q-59 -80 -109.5 -118t-128.5 -38q-123 0 -190.5 79t-67.5 208q0 168 127 307t293 139q68 0 112 -37t54 -102h4l31 123h192 l-151 -561q-8 -33 -9 -50q0 -51 43 -51q78 0 183 141q111 152 110 334q0 180 -142 318.5t-382 138.5q-262 0 -437 -168t-175 -428q0 -268 182 -431t455 -163q139 0 260 71.5t202 192.5h132q-88 -172 -256 -275.5t-361 -103.5q-305 0 -517 196t-212 499zM543 512 q0 -160 102 -160q57 0 105.5 58.5t80.5 128.5q66 141 66 284q0 53 -23.5 97.5t-72.5 44.5q-72 0 -134.5 -89.5t-93 -191.5t-30.5 -172z" />
<glyph unicode="A" horiz-adv-x="1593" d="M49 -6v76l62 6q68 8 114 123l371 897l117 309h145l531 -1239q35 -80 112 -90l49 -6v-76q-59 0 -166.5 3t-150.5 3t-151.5 -3t-166.5 -3v76l109 6q41 4 41 59q0 23 -12 53l-92 234h-515l-86 -229q-10 -31 -10 -50q0 -31 17.5 -48t42.5 -19l102 -6v-76q-41 0 -120 3 t-111.5 3t-111.5 -3t-120 -3zM496 537h417l-213 520z" />
<glyph unicode="B" horiz-adv-x="1366" d="M80 1319v76q57 0 166.5 -3t152.5 -3q82 0 226.5 3t189.5 3h12q377 0 377 -277q0 -61 -21.5 -110.5t-51 -82t-83 -62t-96.5 -47t-112 -40.5v-4q205 -8 308 -88t103 -252q0 -186 -154.5 -312t-394.5 -126h-20q-276 6 -289 6q-18 0 -246 -6v47l66 37q41 23 41 117v917 q0 137 -14.5 166t-83.5 35zM543 115q41 -8 110 -9q291 0 291 310q0 164 -86 230.5t-254 66.5h-61v-598zM543 819h61q147 0 222 56.5t75 197.5q0 117 -58.5 168t-174.5 51q-68 0 -125 -8v-465z" />
<glyph unicode="C" horiz-adv-x="1478" d="M90 717q0 227 116 390t298 239.5t405 76.5q270 0 502 -96l12 -22q-18 -66 -47 -314h-80l-10 176q-135 141 -368 142q-248 0 -384.5 -157t-136.5 -409q0 -289 160 -467t444 -178q92 0 203 30t189 75l24 -25l-45 -100q-184 -113 -471 -113q-362 0 -586.5 198t-224.5 554z " />
<glyph unicode="D" horiz-adv-x="1705" d="M72 1319v76q57 0 166.5 -3t152.5 -3q61 0 245.5 3t281.5 3q342 0 517 -152.5t175 -486.5q0 -236 -120 -412t-306.5 -263t-407.5 -87h-18q-35 0 -96.5 2t-112.5 3t-96 1t-96.5 -1t-115 -3t-102.5 -2v47l66 37q41 23 41 117v917q0 137 -14.5 166t-84.5 35zM535 117 q59 -10 176 -11q303 0 447.5 151t144.5 460q0 307 -147.5 441t-496.5 134q-68 0 -124 -8v-1167z" />
<glyph unicode="E" horiz-adv-x="1251" d="M80 1319v76q74 0 180 -4q29 0 75 -1t64 -1q98 0 449 6q20 0 56 1t52 1q106 0 191 -8l12 -15l-29 -291h-73l-17 154q-6 39 -235 39q-133 0 -262 -6v-492q47 -4 137 -4h135q61 0 88 8.5t29 34.5l12 117h82q0 -25 -2 -69t-3 -80.5t-1 -69.5l6 -221h-82l-12 102 q-8 76 -117 76h-135q-66 0 -137 -6v-547q129 -6 262 -6q74 0 161 11t89 23l47 193h80l-23 -324l-10 -16q-109 -8 -313 -8q-139 0 -191 2q-29 0 -80 2t-93 3t-79 1q-18 0 -246 -6v47l66 37q41 23 41 117v917q0 137 -14.5 166t-83.5 35z" />
<glyph unicode="F" horiz-adv-x="1138" d="M57 -6v82l76 6q72 6 84 29q14 29 14 165v836q0 137 -14 166t-84 35l-76 6v76q74 0 181 -4q29 0 74.5 -1t64.5 -1q66 0 416 6q20 0 56 1t52 1q106 0 191 -8l12 -15l-29 -291h-74l-16 154q-6 39 -235 39q-100 0 -230 -6v-498q47 -4 137 -4h105q61 0 88 8t29 35l12 109h82 q-6 -197 -6 -211l6 -222h-82l-12 103q-8 76 -117 76h-105q-68 0 -137 -7v-383q0 -137 15 -165q12 -23 83 -29l97 -6v-82q-313 6 -338 6q-68 0 -320 -6z" />
<glyph unicode="G" horiz-adv-x="1705" d="M96 717q0 227 116 390t298 239.5t405 76.5q330 0 564 -96l12 -22q-18 -66 -47 -314h-80l-10 176q-57 68 -177 105t-253 37q-248 0 -384.5 -157t-136.5 -409q0 -283 143.5 -473t407.5 -190q125 0 260 51v270q0 43 -29.5 58.5t-86.5 17.5l-109 4v84q33 0 94.5 -2t111.5 -3 t95 -1t94.5 1t110.5 3t94 2v-69q-53 -10 -68.5 -23.5t-15.5 -50.5v-334q-313 -123 -598 -123q-362 0 -586.5 198t-224.5 554z" />
<glyph unicode="H" horiz-adv-x="1705" d="M74 -6v82l76 6q72 6 83 29q14 29 15 165v836q0 137 -15 166q-12 23 -83 29l-76 6v82q252 -6 319 -6q66 0 318 6v-82l-76 -6q-72 -6 -84 -29q-14 -29 -14 -166v-324q61 -4 165 -4h299q104 0 166 4v324q0 137 -14 166q-12 23 -84 29l-76 6v82q252 -6 320 -6q66 0 317 6v-82 l-76 -6q-72 -6 -84 -29q-14 -29 -14 -166v-836q0 -137 14 -165q12 -23 84 -29l76 -6v-82q-252 6 -317 6q-68 0 -320 -6v82l76 6q72 6 84 29q14 29 14 165v390q-61 4 -166 4h-299q-104 0 -165 -4v-390q0 -137 14 -165q12 -23 84 -29l76 -6v-82q-252 6 -318 6q-67 0 -319 -6z " />
<glyph unicode="I" horiz-adv-x="796" d="M80 -6v82l76 6q72 6 84 29q14 29 14 165v836q0 137 -14 166q-12 23 -84 29l-76 6v82q252 -6 319 -6q66 0 318 6v-82l-76 -6q-72 -6 -84 -29q-14 -29 -14 -166v-836q0 -137 14 -165q12 -23 84 -29l76 -6v-82q-252 6 -318 6q-67 0 -319 -6z" />
<glyph unicode="J" horiz-adv-x="796" d="M-23 -244l23 13q8 -6 25.5 -19.5t27.5 -19.5l26 -16q15 -9 30.5 -13t31.5 -4q39 0 62.5 20.5t34 63.5t13.5 82t3 100v1149q0 137 -14 166q-12 23 -84 29l-76 6v82q252 -6 319 -6q66 0 318 6v-82l-76 -6q-72 -6 -84 -29q-14 -29 -14 -166v-850q0 -115 -4 -174t-31 -141 t-82 -158q-66 -92 -174.5 -158.5t-210.5 -66.5q-29 0 -64 10v182z" />
<glyph unicode="K" horiz-adv-x="1593" d="M80 -6v82l76 6q72 6 84 29q14 29 14 165v836q0 137 -14 166q-12 23 -84 29l-76 6v82q252 -6 319 -6q66 0 318 6v-82l-76 -6q-72 -6 -84 -29q-14 -29 -14 -166v-379q0 -12 18 -12l385 377q18 18 160 172q33 35 33 73v52q184 -6 186 -6t186 6v-80q-137 -12 -186 -41 q-20 -12 -39 -29l-455 -424l545 -641q86 -102 187 -102v-84q-23 0 -65 2t-77 3t-65 1l-209 -6l-426 510q-119 143 -156 162h-4q-18 0 -18 -19v-371q0 -137 14 -165q12 -23 84 -29l76 -6v-82q-252 6 -318 6q-67 0 -319 -6z" />
<glyph unicode="L" horiz-adv-x="1251" d="M80 1313v82q252 -6 319 -6q66 0 318 6v-82l-76 -6q-72 -6 -84 -29q-14 -29 -14 -166v-993q129 -6 262 -6q74 0 161 11t89 23l47 209h80l-23 -340l-10 -16q-109 -8 -313 -8q-139 0 -191 2q-29 0 -80 2t-93 3t-79 1q-18 0 -246 -6v47l66 37q41 23 41 117v917q0 137 -14 166 q-12 23 -84 29z" />
<glyph unicode="M" horiz-adv-x="2048" d="M66 -6v76l75 6q70 6 84.5 34.5t14.5 165.5v836q0 137 -14.5 166t-84.5 35l-75 6v76q27 0 77 -2t90.5 -3t77.5 -1l246 6q4 -10 154 -330l323 -676l375 774q10 20 100 232q43 0 123 -3t113 -3t112.5 3t124.5 3v-76l-75 -6q-70 -6 -84.5 -35t-14.5 -166v-836q0 -137 15 -165 q12 -23 84 -29l75 -6v-82q-252 6 -317 6q-68 0 -319 -6v82l75 6q72 6 84 29q14 29 15 165v844h-4l-418 -870q-82 -166 -123 -270h-70q-16 49 -74 170l-466 972h-5v-846q0 -137 14.5 -165.5t84.5 -34.5l76 -6v-76q-27 0 -74 2t-86 3t-74 1q-2 0 -235 -6z" />
<glyph unicode="N" horiz-adv-x="1705" d="M72 -6v76l75 6q70 6 84.5 34.5t14.5 165.5v836q0 137 -14.5 166t-84.5 35l-75 6v76q27 0 77 -2t91 -3t77 -1l172 6q23 -29 66 -86.5t78 -102.5t67 -84l639 -745v735q0 137 -14 166t-84 35l-76 6v76q233 -6 236 -6l233 6v-76l-75 -6q-70 -6 -84.5 -35t-14.5 -166v-930 q0 -23 6 -207l-14 -8l-168 27q-174 195 -250 285l-663 798h-4v-801q0 -137 14 -165.5t84 -34.5l76 -6v-76q-27 0 -74 2t-86 3t-74 1q-2 0 -235 -6z" />
<glyph unicode="O" horiz-adv-x="1705" d="M96 682q0 356 210 548.5t568 192.5q348 0 543 -185t195 -531q0 -356 -210 -549t-568 -193q-348 0 -543 185.5t-195 531.5zM403 717q0 -270 112 -453.5t319 -183.5q471 0 471 590q0 270 -112 454.5t-319 184.5q-471 0 -471 -592z" />
<glyph unicode="P" horiz-adv-x="1251" d="M80 -6v82l76 6q72 6 84 29q14 29 14 165v836q0 137 -14.5 166t-83.5 35l-76 6v76q57 0 166.5 -3t152.5 -3q61 0 131 1t154 3t131 2h19q383 0 383 -303q0 -199 -135.5 -319t-338.5 -120q-16 0 -34.5 2t-40 6.5t-31.5 6.5l-35 71l21 21q10 -2 27.5 -5t31.5 -5t27 -2 q102 0 157.5 75.5t55.5 182.5q0 287 -248 286q-94 0 -131 -18v-998q0 -137 14 -165q12 -23 84 -29l96 -6v-82q-313 6 -338 6q-67 0 -319 -6z" />
<glyph unicode="Q" horiz-adv-x="1705" d="M96 682q0 356 210 548.5t568 192.5q348 0 543 -185t195 -531q0 -356 -210 -549t-568 -193q-49 0 -68 2l-4 -4q141 -27 209 -49l246 -86q131 -45 229 -45q33 0 153 47v-76l-210 -131q-70 0 -148 21l-407 110q-131 37 -201 37h-21q-57 -2 -180 -90l-22 63q193 156 323 205 v4q-303 23 -470 205t-167 504zM403 717q0 -270 112 -453.5t319 -183.5q471 0 471 590q0 270 -112 454.5t-319 184.5q-471 0 -471 -592z" />
<glyph unicode="R" horiz-adv-x="1478" d="M80 -6v82l76 6q72 6 84 29q14 29 14 165v836q0 137 -14.5 166t-83.5 35l-76 6v76q45 0 165 -3t179 -3q61 0 131 1t154 3t131 2h18q383 0 383 -303q0 -129 -84 -221.5t-221 -141.5l371 -561q20 -31 59 -64q18 -14 84 -28v-82q-197 6 -199 6l-184 -6l-459 711l15 36 q6 0 17 -1t17 -1q129 0 211 81t82 214q0 123 -76.5 190.5t-199.5 67.5q-94 0 -131 -18v-998q0 -137 14 -165q12 -23 84 -29l76 -6v-82q-252 6 -318 6q-67 0 -319 -6z" />
<glyph unicode="S" horiz-adv-x="1251" d="M117 59q31 152 30 355h82l15 -181q39 -68 137 -112.5t184 -44.5q137 0 229.5 70.5t92.5 199.5q0 139 -170 191l-287 86q-135 41 -217 131t-82 217q0 231 149.5 341.5t391.5 110.5q205 0 381 -69l10 -25q-29 -92 -29 -291h-84l-12 168q-45 51 -122 82t-150 31 q-137 0 -209 -69.5t-72 -178.5q0 -143 217 -199l234 -61q145 -39 227 -128t82 -224q0 -166 -87 -281t-218 -164t-295 -49q-233 0 -428 94z" />
<glyph unicode="T" horiz-adv-x="1366" d="M35 1384l12 11q74 0 203 -2t234.5 -3t197.5 -1t198.5 1t235.5 3t203 2l12 -11q-20 -123 -26 -325h-82l-11 141q-2 29 -18 49q-14 18 -127 19h-240v-992q0 -137 15 -165q12 -23 84 -29l75 -6v-82q-252 6 -317 6q-68 0 -319 -6v82l75 6q72 6 84 29q14 29 15 165v992h-240 q-113 0 -127 -19q-16 -20 -18 -49l-11 -141h-82q-6 202 -26 325z" />
<glyph unicode="U" horiz-adv-x="1593" d="M53 1319v76q252 -6 320 -6q66 0 317 6v-76l-76 -6q-70 -6 -84 -35t-14 -166v-508q0 -102 4 -161.5t24.5 -127t58.5 -101.5t106.5 -57.5t171.5 -23.5q100 0 170.5 23.5t111.5 60.5t63.5 103.5t29 132t6.5 165.5v494q0 137 -14.5 166t-84.5 35l-76 6v76q233 -6 236 -6 l233 6v-76l-75 -6q-70 -6 -84.5 -35t-14.5 -166v-598q0 -549 -569 -549q-283 0 -434.5 108.5t-151.5 288.5v750q0 137 -14 166t-84 35z" />
<glyph unicode="V" horiz-adv-x="1593" d="M41 1319v76q57 0 166.5 -3t152.5 -3q41 0 152 3t184 3v-76l-102 -6q-23 -2 -38 -13.5t-15 -25.5q0 -43 43 -148l321 -792l291 723q63 158 64 200q0 51 -76 56l-94 6v76q43 0 123.5 -3t113.5 -3t113 3t123 3v-76l-66 -6q-59 -6 -96 -96l-426 -1020q-16 -39 -43 -110 t-35 -93h-156l-489 1171q-18 45 -28.5 65.5t-38 50.5t-60.5 32z" />
<glyph unicode="W" horiz-adv-x="2048" d="M35 1319v76q57 0 166.5 -3t152.5 -3q35 0 81 1t104.5 3t89.5 2v-76l-86 -6q-20 -2 -41 -16.5t-21 -30.5q0 -25 6 -58l166 -778h4l306 721q16 41 51 127t53 127h92q53 -154 101 -272l278 -697h4l197 768q8 33 8 68q0 37 -72 41l-94 6v76q39 0 115 -3t106.5 -3t105 3 t115.5 3v-76l-67 -6q-49 -6 -88 -142l-250 -884q-2 -10 -68 -293h-149q-8 25 -35 99.5t-43 115.5l-305 768l-318 -727q-23 -49 -56.5 -145.5t-39.5 -110.5h-143l-285 1233q-18 80 -76 86z" />
<glyph unicode="X" horiz-adv-x="1366" d="M35 0v70l63 6q43 4 68 37l407 534l-192 340q-94 168 -180 254q-35 35 -80 35q-20 0 -66 -12l-10 84l375 75q74 -53 149 -186l195 -346l338 498h227v-70l-57 -6q-25 -2 -44.5 -16.5t-26.5 -21.5t-27 -36l-349 -459l326 -563l16 -33q18 -31 24.5 -39t23 -29.5t32 -29.5 t33.5 -10l51 -6v-76q-23 0 -61.5 2t-71.5 3t-61 1l-197 -6l-305 545l-287 -412q-6 -8 -74 -127h-239z" />
<glyph unicode="Y" horiz-adv-x="1366" d="M31 1274v76l325 73q76 -43 128.5 -110.5t105.5 -167.5l219 -416l385 660h158v-39l-361 -535q-51 -78 -108 -205v-334q0 -137 14 -165q12 -23 84 -29l76 -6v-82q-252 6 -318 6q-68 0 -319 -6v82l76 6q72 6 84 29q14 29 14 165v285q-43 100 -90 174l-207 334 q-41 63 -107 137q-61 68 -159 68z" />
<glyph unicode="Z" horiz-adv-x="1366" d="M49 -6v78q133 168 213 284l627 914h-455q-109 0 -138.5 -16.5t-39.5 -77.5l-16 -113h-76v332q102 0 290.5 -3t266.5 -3t265.5 3t289.5 3v-72q-84 -98 -170 -225l-666 -981h566q150 0 165 80l31 159h82q-29 -162 -33 -362q-297 6 -587 6q-253 0 -615 -6z" />
<glyph unicode="[" horiz-adv-x="681" d="M150 -213q2 70 8 377t6 471t-6 466t-8 374q57 0 134.5 -3.5t110.5 -3.5q39 0 111 3.5t90 3.5v-78h-100q-47 0 -87 -22.5t-40 -59.5q-6 -682 -6.5 -684t6.5 -684q0 -37 40 -59.5t87 -22.5h100v-78q-18 0 -90 3t-111 3q-33 0 -110.5 -3t-134.5 -3z" />
<glyph unicode="\" horiz-adv-x="1241" d="M147 1475h185l762 -1475h-185z" />
<glyph unicode="]" horiz-adv-x="681" d="M86 -135h100q47 0 87 22.5t40 59.5q6 682 6 684t-6 684q0 37 -40 59.5t-87 22.5h-100v78q18 0 90 -3.5t111 -3.5q33 0 110.5 3.5t134.5 3.5q-2 -72 -8 -374t-6 -466t7 -471t7 -377q-57 0 -135 3t-110 3q-39 0 -111 -3t-90 -3v78z" />
<glyph unicode="^" horiz-adv-x="1241" d="M106 563l422 826h185l422 -826h-195l-319 602l-320 -602h-195z" />
<glyph unicode="_" d="M0 -154h1024v-102h-1024v102z" />
<glyph unicode="`" horiz-adv-x="681" d="M37 1325q0 39 23.5 64.5t64.5 25.5q43 0 70.5 -18.5t64.5 -57.5l264 -303h-114l-269 166q-4 2 -20.5 12.5t-22.5 14.5t-18 13t-17.5 16.5t-12.5 17.5t-10 22.5t-3 26.5z" />
<glyph unicode="a" d="M82 215q0 154 94 217q88 59 256 94l180 37q0 242 -213 242q-33 0 -70.5 -8.5t-43.5 -20.5l-45 -102l-62 14v141l109 66q115 70 237 70q145 0 241.5 -70t96.5 -217v-12q0 -29 -2 -80t-3 -93t-1 -79q0 -2 6 -254q4 -78 56 -84l61 -6v-76q-14 0 -79.5 3t-100.5 3 q-33 0 -98.5 -3t-88.5 -3l-10 16l10 127l-190 -147q-31 -25 -113 -25q-111 0 -169 68.5t-58 181.5zM332 266q0 -61 30.5 -92t79.5 -31q43 0 96.5 31t73.5 62v241l-92 -24q-53 -14 -77.5 -23.5t-55.5 -30t-43 -53.5t-12 -80z" />
<glyph unicode="b" horiz-adv-x="1251" d="M20 1313v73q162 18 248 44l148 45l16 -13v-678l125 101q100 80 213 80q162 0 265.5 -108.5t103.5 -272.5q0 -147 -66 -279q-51 -104 -221 -215q-6 -4 -31.5 -21.5t-34 -22.5t-32 -19.5t-35.5 -20.5t-34.5 -16t-39 -14.5t-37 -7.5t-41.5 -3q-145 0 -278 76l-80 -66l-45 17 q18 141 18 340v831q0 90 -8 116t-45 28zM432 217q74 -113 209 -113q88 0 145.5 60.5t76 135.5t18.5 163q0 135 -63.5 226t-192.5 91q-57 0 -111.5 -27.5t-81.5 -74.5v-461z" />
<glyph unicode="c" horiz-adv-x="909" d="M76 451q0 66 6 106.5t28.5 95t76 104.5t137.5 101l106 64q72 43 203 43q80 0 192 -41l15 -27q-25 -119 -41 -289h-74l-14 123q-4 41 -61.5 64.5t-114.5 23.5q-205 0 -205 -289q0 -178 81 -298.5t251 -120.5q78 0 167 39l19 -21l-43 -94q-123 -70 -266 -70 q-231 0 -347 132.5t-116 353.5z" />
<glyph unicode="d" horiz-adv-x="1251" d="M86 420q0 154 40 244t132 151l148 96q82 53 176 54q63 0 168 -35l41 -17v250q0 90 -8.5 116t-45.5 28l-108 6v73q162 18 248 44l147 45l16 -13v-1257q0 -70 9 -96q8 -29 65 -35l68 -4v-76q-25 0 -110 3t-118 3q-18 0 -74.5 -3t-88.5 -3l-11 16l11 154l-213 -174 q-29 -25 -113 -25q-176 0 -277.5 136.5t-101.5 318.5zM344 510q0 -82 19.5 -155.5t76 -134t140.5 -60.5q80 0 145.5 46t65.5 122v377q-90 129 -228 129q-127 0 -173 -89.5t-46 -234.5z" />
<glyph unicode="e" d="M86 438q0 150 38 251.5t157 170.5l96 58q78 47 168 47q178 0 288.5 -93.5t110.5 -267.5v-106q-147 -41 -323 -41h-269q0 -154 85 -250t241 -96q100 0 221 71l25 -30l-45 -99q-166 -88 -328 -88q-223 0 -344 126t-121 347zM340 565q18 0 54 -2t64.5 -3t53.5 -1l172 6 q0 285 -168 285q-176 0 -176 -285z" />
<glyph unicode="f" horiz-adv-x="796" d="M70 -6v76l84 4q68 4 77 35q8 27 9 96v557l-162 -10v49q92 43 162 92v88q0 123 18 170t94 111l152 127q66 55 105.5 70.5t86.5 15.5q41 0 84 -13v-198l-32 -15q-78 49 -130 49q-37 0 -62.5 -10t-37.5 -24.5t-19 -43t-8.5 -49t-1.5 -61.5v-221q104 0 269 8l8 -16l-23 -119 h-254v-557q0 -70 9 -96q10 -31 94 -35l92 -4v-76q-53 0 -160.5 3t-165.5 3q-51 0 -151 -3t-137 -3z" />
<glyph unicode="g" horiz-adv-x="1138" d="M53 -244q0 76 53 117l166 98q-139 31 -139 129q0 74 35 107l145 110q-96 27 -156.5 103t-60.5 174q0 168 137 278q115 92 312 93q201 0 307 -88q20 -2 63 -3q76 0 179 11l-11 -131l-157 8q10 -43 10 -119q0 -160 -134 -253t-304 -93q-45 0 -90 4q-59 -33 -60 -82 q0 -59 94 -59q59 0 187.5 4t177.5 4q289 0 289 -246q0 -156 -89 -264.5t-220.5 -155.5t-286.5 -47q-113 0 -206 23.5t-167 94t-74 183.5zM246 -227q0 -115 94 -165t221 -50q111 0 209 65.5t98 172t-48 136t-181 35.5q-25 2 -80 2q-131 0 -190 -16q-47 -12 -85 -63t-38 -117z M348 643q0 -100 39 -176t131 -76q166 0 166 219q0 252 -170 252q-166 0 -166 -219z" />
<glyph unicode="h" horiz-adv-x="1251" d="M49 -6v76l72 4q57 6 65 35q8 27 9 96v958q0 90 -8.5 116t-45.5 28l-92 6v73q156 20 232 44l147 45l16 -13v-663l164 127q51 39 156 39q141 0 221 -82q47 -51 61.5 -120t14.5 -177v-381q0 -70 8 -96q8 -29 66 -35l67 -4v-76q-18 0 -90 3t-111 3q-18 0 -190 -6v557 q0 137 -53 190q-47 47 -154 47q-61 0 -110.5 -46t-49.5 -93v-444q0 -70 9 -96q8 -29 65 -35l72 -4v-76q-264 6 -277 6z" />
<glyph unicode="i" horiz-adv-x="681" d="M70 -6v76l71 4q57 6 66 35q8 27 8 96v448q0 90 -8 116t-45 28l-92 6v74q166 23 231 43l143 45l21 -13v-747q0 -70 8 -96q8 -29 66 -35l71 -4v-76q-264 6 -276 6zM178 1290q0 68 44 112t109.5 44t109.5 -44t44 -112q0 -61 -46 -106t-107.5 -45t-107.5 45t-46 106z" />
<glyph unicode="j" horiz-adv-x="681" d="M6 -469l8 12h47q88 0 119 90q35 104 35 289v731q0 90 -8 116t-45 28l-92 6v74q166 23 231 43l143 45l21 -13v-751q0 -229 -22.5 -359.5t-96.5 -230.5q-117 -156 -246 -156q-25 0 -73 4zM186 1290q0 68 44 112t110 44t110 -44t44 -112q0 -61 -46.5 -106t-107.5 -45 t-107.5 45t-46.5 106z" />
<glyph unicode="k" horiz-adv-x="1251" d="M43 1313v73q162 18 248 44l147 45l17 -13v-952q141 121 217 199l219 231h266v-78h-63q-49 0 -99 -37l-127 -92q-49 -37 -159 -147l401 -451q51 -61 113 -65v-70h-353q-59 80 -178 217l-217 246h-20v-258q0 -70 8 -96q8 -29 65 -35l72 -4v-76q-264 6 -276 6l-265 -6v76 l72 4q57 6 66 35q8 27 8 96v958q0 90 -8.5 116t-44.5 28z" />
<glyph unicode="l" horiz-adv-x="681" d="M49 1313v73q162 18 248 44l147 45l17 -13v-1257q0 -70 8 -96q8 -29 66 -35l71 -4v-76q-264 6 -276 6l-264 -6v76l71 4q57 6 66 35q8 27 8 96v958q0 90 -8 116t-45 28z" />
<glyph unicode="m" horiz-adv-x="1820" d="M49 -6v76l72 4q57 6 65 35q8 27 9 96v448q0 90 -8.5 116t-45.5 28l-92 6v74q35 0 72 5t60.5 9t69.5 17.5t57 16.5t66.5 21.5t57.5 18.5l12 -13v-153l164 127q51 39 156 39q94 0 162.5 -42t97.5 -124l164 127q51 39 155 39q160 0 222.5 -86t62.5 -293v-381q0 -70 8 -96 q8 -29 66 -35l67 -4v-76q-18 0 -89.5 3t-110.5 3l-191 -6v557q0 137 -53 190q-47 47 -129 47q-61 0 -110.5 -46t-49.5 -93v-444q0 -70 8 -96q8 -29 66 -35l72 -4v-76q-264 6 -277 6q-16 0 -256 -6v76l64 4q55 2 65 35q8 27 8 96v346q0 137 -53 190q-47 47 -129 47 q-61 0 -110.5 -46t-49.5 -93v-444q0 -70 9 -96q8 -29 65 -35l55 -4v-76q-215 6 -260 6z" />
<glyph unicode="n" horiz-adv-x="1251" d="M49 -6v76l72 4q57 6 65 35q8 27 9 96v448q0 90 -8.5 116t-45.5 28l-92 6v74q35 0 72 5t60.5 9t69.5 17.5t57 16.5t66.5 21.5t57.5 18.5l12 -13v-153l164 127q51 39 156 39q141 0 221 -82q47 -51 61.5 -120t14.5 -177v-381q0 -70 8 -96q8 -29 66 -35l67 -4v-76 q-18 0 -90 3t-111 3q-18 0 -190 -6v559q0 135 -53 188q-47 47 -154 47q-61 0 -110.5 -46t-49.5 -93v-444q0 -70 9 -96q8 -29 65 -35l72 -4v-76q-264 6 -277 6z" />
<glyph unicode="o" horiz-adv-x="1138" d="M82 461q0 240 129 372t373 132q233 0 354 -124t121 -356q0 -250 -133 -385t-385 -135q-227 0 -343 134.5t-116 361.5zM360 510q0 -446 226 -447q195 0 194 338q0 82 -4 138.5t-22.5 143.5t-66.5 135t-122 48q-55 0 -95 -24.5t-60.5 -58t-31.5 -87t-14.5 -93.5t-3.5 -93z " />
<glyph unicode="p" horiz-adv-x="1251" d="M59 -453l72 4q57 6 66 35q8 27 8 97v970q0 90 -8.5 116t-44.5 28l-93 6v74q166 23 232 43l143 45l21 -13v-168l125 101q100 80 213 80q162 0 265 -108.5t103 -272.5q0 -117 -47 -236q-47 -123 -149 -201q-150 -113 -160 -118q-100 -63 -168 -64q-66 0 -182 35v-317 q0 -70 8 -97q10 -33 65 -35l93 -4v-75q-25 0 -131.5 3t-165.5 3l-265 -6v75zM455 217q74 -113 209 -113q88 0 145 60.5t75.5 135.5t18.5 163q0 135 -63.5 226t-192.5 91q-57 0 -111.5 -27.5t-80.5 -74.5v-461z" />
<glyph unicode="q" horiz-adv-x="1251" d="M106 420q0 125 32 213t116 149q76 55 221 127q111 55 189 56q92 0 235 -70l45 -23l107 86l43 -28q-33 -164 -33 -266v-981q0 -70 8 -97q8 -29 66 -35l71 -4v-75q-264 6 -276 6l-264 -6v75l71 4q57 6 66 35q8 27 8 97v471l-197 -158q-37 -31 -122 -31q-186 0 -286 131 t-100 324zM365 510q0 -82 19 -155.5t75.5 -134t140.5 -60.5q80 0 145.5 46t65.5 122v377q-90 129 -227 129q-127 0 -173 -89.5t-46 -234.5z" />
<glyph unicode="r" horiz-adv-x="796" d="M61 -6v76l72 4q57 6 66 35q8 27 8 96v448q0 90 -8.5 116t-44.5 28l-93 6v74q166 23 232 43l143 45l21 -13v-194l90 98q53 57 88 83t74 26q61 0 88 -13l-11 -264l-49 -20q-37 74 -121 73q-57 0 -108 -43t-51 -88v-405q0 -70 8 -96q10 -31 90 -35l80 -4v-76q-39 0 -144.5 3 t-164.5 3z" />
<glyph unicode="s" horiz-adv-x="909" d="M80 23l14 288h80l10 -141q82 -106 242 -107q74 0 125 41t51 113q0 61 -31.5 89t-97.5 44l-176 43q-217 53 -217 252q0 166 114.5 243t307.5 77q162 0 256 -47l-17 -250h-73l-21 118q-6 31 -61.5 55.5t-106.5 24.5q-190 0 -190 -133q0 -49 26.5 -75.5t85.5 -39.5l168 -36 q133 -29 196.5 -89.5t63.5 -179.5q0 -168 -128 -258t-302 -90q-161 1 -319 58z" />
<glyph unicode="t" horiz-adv-x="681" d="M45 748v45l135 88v123q0 61 -8 188q137 49 250 102l29 -20q-25 -123 -25 -279v-118l233 12l-16 -133h-217v-488q0 -76 28.5 -104.5t98.5 -28.5q41 0 94 27l17 -39l-101 -121q-29 -37 -125 -37q-139 0 -200.5 60.5t-61.5 199.5v531z" />
<glyph unicode="u" horiz-adv-x="1251" d="M51 803v74q166 23 232 43l143 45l20 -13v-534q0 -61 4.5 -100t19.5 -82t50 -64.5t92 -21.5q106 0 172 104q18 29 19 80v319q0 90 -8.5 116t-44.5 28l-93 6v74q166 23 232 43l143 45l21 -13v-747q0 -70 8 -96q8 -29 65 -35l68 -4v-76q-25 0 -110 3t-117 3q-16 0 -74.5 -2 t-99.5 -4l10 170l-156 -152q-47 -47 -131 -47q-319 0 -319 322v366q0 90 -8.5 116t-45.5 28z" />
<glyph unicode="v" horiz-adv-x="1138" d="M23 862v78q264 -6 266 -6l264 6v-78l-84 -4q-47 -4 -47 -37q0 -31 29 -102l180 -453q43 90 71 164l125 309q18 47 19 86q0 14 -15.5 23.5t-31.5 9.5l-78 4v78q197 -6 199 -6l196 6v-78l-61 -10q-49 -8 -74 -70l-262 -589q-29 -63 -78 -199h-176l-293 737q-51 123 -98 127 z" />
<glyph unicode="w" horiz-adv-x="1705" d="M27 862v78q276 -6 278 -6l277 6v-78l-97 -4q-14 0 -26.5 -11t-12.5 -26q0 -31 5 -47l118 -459h4q18 41 57.5 125t57.5 125l178 400h103l282 -650q53 145 80 230l74 231q6 23 6 37q0 41 -59 45l-86 4v78q23 0 64.5 -2t76.5 -3t65.5 -1t65.5 1t77 3t64 2v-78l-69 -4 q-39 -2 -74 -96l-188 -533q-14 -45 -39 -125.5t-33 -109.5h-166l-270 629l-176 -365q-18 -39 -36 -83t-37.5 -98t-31.5 -83h-162l-219 786q-20 74 -84 78z" />
<glyph unicode="x" d="M41 899q152 27 299 66q59 -45 127 -158l106 -174l222 307h194v-76q-57 0 -87 -18.5t-73 -69.5l-198 -233l182 -312q47 -80 87 -119.5t89 -41.5v-76q-18 0 -50 2t-57.5 3t-50.5 1l-159 -6l-205 346l-131 -180q-23 -31 -107 -160h-186v70q86 6 141 73l226 287l-164 279 q-41 72 -76 95t-82 23q-6 0 -16.5 -1t-14.5 -1z" />
<glyph unicode="y" horiz-adv-x="1138" d="M20 862v78q270 -6 273 -6l270 6v-78l-71 -4q-53 -4 -54 -47q0 -20 35 -109l172 -446l207 516q8 23 8 47q0 35 -55 39l-68 4v78l191 -6l190 6v-78l-53 -10q-47 -10 -84 -96l-408 -949q-23 -49 -32 -69.5t-46.5 -86t-71.5 -99t-91.5 -65.5t-118.5 -32q-74 0 -150 35l37 195 l23 8q63 -76 147 -76q55 0 103.5 54.5t81.5 131.5l47 115l-324 827q-43 111 -86 113z" />
<glyph unicode="z" d="M33 -6v67q170 219 213 279l348 487h-242q-88 0 -116.5 -23.5t-38.5 -96.5l-7 -52h-77l6 275l14 10q461 -10 543 -10q45 0 254 10v-72l-549 -755h334q76 0 102.5 27.5t40.5 113.5l10 63h82q-25 -168 -24 -313l-11 -10q-80 0 -284.5 3t-298.5 3q-41 0 -299 -6z" />
<glyph unicode="{" horiz-adv-x="634" d="M10 616v5q113 29 150 71.5t37 155.5v364q0 76 21.5 128.5t52 80t87 43t104.5 18.5t128 3v-4q-111 -29 -153 -78t-42 -162v-362q0 -115 -40 -174.5t-160 -83.5v-5q123 -25 161.5 -87t38.5 -183v-342q0 -113 42 -162t153 -78v-4q-80 0 -128 3.5t-104.5 18.5t-87 43t-52 80 t-21.5 128v356q0 113 -37 155.5t-150 71.5z" />
<glyph unicode="|" horiz-adv-x="1241" d="M532 -512v2048h177v-2048h-177z" />
<glyph unicode="}" horiz-adv-x="634" d="M45 -236q111 29 153 78t42 162v342q0 121 38.5 183.5t161.5 86.5v5q-121 25 -160.5 84t-39.5 174v362q0 113 -42 162t-153 78v4q80 0 128 -3t104.5 -18.5t87 -43t52 -80t21.5 -128.5v-364q0 -113 37 -156t150 -71v-5q-113 -29 -150 -71.5t-37 -155.5v-356 q0 -76 -21.5 -128t-52 -80t-87 -43t-104.5 -18.5t-128 -3.5v4z" />
<glyph unicode="~" horiz-adv-x="1241" d="M104 430q61 111 130 178.5t167 67.5q78 0 238 -70q160 -72 207 -71q102 0 192 165l99 -112q-59 -104 -128 -168t-167 -64q-41 0 -88 14.5t-113 44t-72 31.5q-10 4 -38.5 16.5t-45 17.5t-41 11.5t-45.5 6.5q-35 0 -64.5 -14.5t-57 -50.5t-38 -52t-36.5 -64z" />
<glyph unicode="&#xa1;" horiz-adv-x="569" d="M121 801q0 66 48 115t111.5 49t111.5 -49.5t48 -114.5q0 -59 -48 -107.5t-111.5 -48.5t-111.5 46.5t-48 109.5zM131 -465q0 96 14 197l103 762l78 43l10 -17l96 -733q4 -33 8 -162l-204 -90h-105z" />
<glyph unicode="&#xa2;" d="M150 430q0 162 61 277q27 51 129 114l106 68q137 86 242 86l53 160h84l-51 -166q92 -20 129 -41l10 -19q-29 -125 -36 -303h-78l-13 123q-2 23 -22.5 43.5t-40.5 24.5l-186 -619q72 -66 192 -65q100 0 174 41l19 -23l-43 -96l-9 -8q-127 -61 -258 -62q-39 0 -141 12 l-65 -194h-87l74 217q-243 108 -243 430zM401 532q0 -150 70 -278l170 565q-12 2 -37 2q-203 0 -203 -289z" />
<glyph unicode="&#xa3;" d="M-4 82l131 106q66 53 74 144q16 174 16 323h-184v88h184v88q0 250 270 431q84 55 175.5 88.5t148.5 33.5q115 0 172 -55l-20 -278h-64l-6 71q-4 57 -48 92t-118 35q-68 0 -114 -24.5t-67.5 -72.5t-30.5 -92t-15 -112l-17 -205h344v-88h-354q-49 -281 -227 -458l4 -4 q123 37 199 36q47 0 186 -20.5t201 -20.5q86 0 98 62l22 115h70l-20 -367q-76 -31 -172 -31h-15q-145 4 -315 53q-162 45 -275 46q-39 0 -94 -46q-59 -49 -98 -59z" />
<glyph unicode="&#xa4;" d="M66 289l100 100q-86 98 -86 250q0 166 86 252l-100 100l96 96l98 -98q98 84 256 84q147 0 244 -82l98 101l100 -101l-94 -98q80 -90 80 -250q0 -156 -82 -256l94 -98l-92 -92l-96 100q-94 -88 -252 -88q-164 0 -260 86l-98 -98zM238 639q0 -113 81.5 -193.5t196.5 -80.5 q111 0 190.5 82.5t79.5 195.5q0 111 -79.5 191.5t-190.5 80.5q-115 0 -196.5 -80.5t-81.5 -195.5z" />
<glyph unicode="&#xa5;" d="M35 1274v76l235 73q82 -66 168 -278l164 -416l272 660h115v-39l-276 -568h241v-82h-274q-31 -61 -31 -118v-78h305v-82h-305v-146q0 -135 10 -165q6 -23 62 -29l53 -6v-82q-172 6 -227 6q-47 0 -232 -6v82l54 6q55 6 61 29q10 31 10 165v146h-305v82h305v82q0 27 -49 114 h-256v82h221l-129 287q-33 70 -77.5 137.5t-114.5 67.5z" />
<glyph unicode="&#xa6;" horiz-adv-x="1241" d="M532 358h177v-716h-177v716zM532 666v716h177v-716h-177z" />
<glyph unicode="&#xa7;" d="M61 469q0 86 27 139.5t94 116.5l39 37q-96 74 -96 207q0 84 45 177t109 157q55 53 146 86.5t171 33.5q141 0 272 -67q-23 -100 -34 -301h-78v20q0 100 -15 144q-23 31 -88 47t-116 16q-100 0 -184.5 -49t-84.5 -143q0 -47 23.5 -83t71 -60.5t78 -35t85.5 -26.5l109 -33 q8 -2 51 -14.5t62.5 -19.5t59.5 -24.5t61.5 -38t47 -50t37 -70.5t11.5 -92q0 -100 -33 -164t-113 -143q113 -78 113 -228q0 -92 -49 -180t-127 -152q-145 -121 -330 -120q-195 0 -326 92q6 47 29 317h80q0 -4 -1 -16t-1 -19q0 -82 18 -137q41 -55 117 -83.5t154 -28.5 q106 0 189 68.5t83 144.5q0 49 -22.5 86.5t-64.5 62.5t-80 40t-89 32q-14 4 -20 6l-125 41q-143 47 -224.5 113.5t-81.5 193.5zM213 575q0 -90 137 -151q113 -49 131 -55l273 -101q59 72 59 135q0 49 -19.5 87t-58.5 65t-72.5 42t-84.5 32l-293 98q-72 -80 -72 -152z" />
<glyph unicode="&#xa8;" horiz-adv-x="681" d="M-16 1276q0 57 39.5 97t97 40t97.5 -40t40 -97t-40 -97t-97.5 -40t-97 40t-39.5 97zM424 1276q0 57 40 97t97 40t97 -40t40 -97t-40 -97t-97 -40t-97 40t-40 97z" />
<glyph unicode="&#xa9;" horiz-adv-x="1529" d="M53 692q0 303 208 517t501 214q295 0 504 -214t209 -517q0 -301 -209 -514t-504 -213q-293 0 -501 213t-208 514zM168 694q0 -254 174 -434t420 -180q248 0 423 180t175 434q0 256 -174 435.5t-424 179.5q-248 0 -421 -179.5t-173 -435.5zM385 682q0 182 110.5 298 t288.5 116q51 0 144 -21q100 -23 135 -37v-213h-66q-12 88 -62 143.5t-134 55.5q-117 0 -179.5 -91t-62.5 -214q0 -139 65.5 -249t196.5 -110q59 0 113.5 27t83.5 76l16 29l53 -23q-37 -90 -129 -139t-196 -49q-170 0 -273.5 113.5t-103.5 287.5z" />
<glyph unicode="&#xaa;" horiz-adv-x="897" d="M158 901q0 94 61 131q53 33 166 58l117 20q0 145 -140 145q-68 0 -73 -16l-29 -61l-45 8v80l158 75q20 10 63 11q227 0 228 -181v-303q0 -47 36 -49l39 -4v-45q-20 0 -59 1t-57 1q-16 0 -56.5 -1t-64.5 -1l-6 8l6 78l-123 -90q-20 -14 -74 -14q-72 0 -109.5 40.5 t-37.5 108.5zM319 932q0 -74 72 -74q29 0 62.5 18.5t48.5 36.5v146l-60 -15q-33 -8 -50 -14t-36.5 -18.5t-28 -31.5t-8.5 -48z" />
<glyph unicode="&#xab;" d="M74 473v51q274 240 405 373l56 -45l-226 -354l226 -367l-56 -41q-262 266 -405 383zM487 473v51q274 240 406 373l55 -45l-225 -354l225 -367l-55 -41q-263 266 -406 383z" />
<glyph unicode="&#xac;" horiz-adv-x="1241" d="M104 635v176h1033v-578h-176v402h-857z" />
<glyph unicode="&#xad;" horiz-adv-x="681" d="M33 416q6 23 34.5 101.5t34.5 107.5h529l18 -21q-51 -119 -65 -205h-535z" />
<glyph unicode="&#xae;" horiz-adv-x="1529" d="M53 692q0 303 208 517t501 214q295 0 504 -214t209 -517q0 -301 -209 -514t-504 -213q-293 0 -501 213t-208 514zM168 694q0 -254 174 -434t420 -180q248 0 423 180t175 434q0 256 -174 435.5t-424 179.5q-248 0 -421 -179.5t-173 -435.5zM432 324v41h29q39 0 50 9t11 46 v584q0 39 -9 49t-48 10h-31v43h350q127 0 183 -35q37 -23 60.5 -68t23.5 -88q0 -86 -56.5 -141t-142.5 -67v-5q39 -6 72.5 -40.5t47 -60.5t38.5 -79q47 -100 65 -127q23 -31 66 -30v-41h-140q-39 0 -63 32q-20 29 -74 152q-49 115 -71 141q-23 29 -78 29h-51v-250 q0 -35 10 -47t43 -14l35 -2v-41h-320zM664 729l38 -2h23q182 0 182 170q0 80 -41 122t-114 42h-11l-43 -2q-35 -2 -34 -55v-23v-252z" />
<glyph unicode="&#xaf;" horiz-adv-x="681" d="M2 1102v145h678v-145h-678z" />
<glyph unicode="&#xb0;" horiz-adv-x="819" d="M102 1044v5q0 125 90.5 214t217.5 89t217 -90.5t90 -217t-90 -217t-217 -90.5t-217.5 90t-90.5 217zM227 1044q0 -76 53.5 -129t129 -53t129 53.5t53.5 129t-54.5 129t-131.5 53.5q-72 0 -125.5 -52.5t-53.5 -125.5v-5z" />
<glyph unicode="&#xb1;" horiz-adv-x="1241" d="M104 0v176h1033v-176h-1033zM104 557v176h428v301h177v-301h428v-176h-428v-301h-177v301h-428z" />
<glyph unicode="&#xb2;" horiz-adv-x="614" d="M10 535v75l221 207q143 135 144 260q0 63 -38 99t-97 36q-53 0 -80 -18t-41 -66l-21 -67l-57 8l25 207q102 76 208 76q127 0 208 -59.5t81 -159.5q0 -131 -137 -256l-197 -185v-16l365 18l10 -10q-2 -27 -2 -78q0 -49 2 -71q-258 4 -297 4q-47 0 -297 -4z" />
<glyph unicode="&#xb3;" horiz-adv-x="614" d="M18 748l45 10q68 -147 205 -148q68 0 116 48.5t48 107.5q0 70 -45 112t-121 42q-37 0 -82 -11l-10 6l27 91h45q66 0 108.5 33.5t42.5 99.5q0 47 -35.5 74.5t-99.5 27.5q-119 0 -149 -119h-54l41 189q98 55 201 55q106 0 175 -48t69 -124q0 -117 -146 -178v-4 q88 -4 143.5 -51.5t55.5 -126.5q0 -133 -121 -220q-109 -80 -252 -79q-106 0 -174 28q-2 19 -33 185z" />
<glyph unicode="&#xb4;" horiz-adv-x="681" d="M160 1036l264 303q37 39 64.5 57.5t70.5 18.5q41 0 64.5 -25.5t23.5 -64.5q0 -16 -5 -30.5t-9 -23.5t-20.5 -21.5t-19.5 -15.5t-25.5 -17.5t-24.5 -14.5l-269 -166h-114z" />
<glyph unicode="&#xb5;" horiz-adv-x="1251" d="M53 803v74q166 23 232 43l143 45l21 -13v-534q0 -61 4 -100t19 -82t50 -64.5t92 -21.5q106 0 172 104q18 29 19 80v319q0 90 -8.5 116t-44.5 28l-93 6v74q166 23 232 43l143 45l21 -13v-671q0 -90 8 -116t45 -28l92 -6v-74q-41 -2 -79 -6t-80 -15t-66.5 -18.5t-75.5 -25 t-70 -23.5l-32 27l8 168l-139 -135q-47 -47 -125 -47q-53 0 -92 23.5t-78 96.5q14 -268 14 -354q0 -55 -9 -78.5t-38 -48.5q-25 -20 -75 -36.5t-79 -16.5q-57 0 -57 63q0 16 27 158q45 258 45 541v344q0 49 -2 70.5t-14.5 36t-37.5 16.5z" />
<glyph unicode="&#xb6;" horiz-adv-x="1312" d="M39 1087q0 129 114.5 220.5t303.5 91.5h37q31 -2 92 -4t92 -4q29 0 90 -1t92 -1q55 0 115.5 1t135.5 3t116 2v-84h-97q-45 0 -61 -37t-16 -121v-1264q0 -70 8 -96q10 -33 65 -35l101 -4v-84q-412 6 -414 6t-414 -6v84l101 4q55 2 65 35q8 27 8 96v775q-109 0 -227.5 44 t-212.5 145t-94 234zM307 1047q0 -111 77 -190t189 -97v538q-8 2 -28 2q-88 0 -163 -64t-75 -189zM754 -227h118v1525h-118v-1525z" />
<glyph unicode="&#xb7;" horiz-adv-x="512" d="M96 522q0 66 48.5 115t111.5 49t111.5 -49t48.5 -115q0 -59 -48.5 -107t-111.5 -48t-111.5 46t-48.5 109z" />
<glyph unicode="&#xb8;" horiz-adv-x="681" d="M150 -424l32 76q82 -18 135 -19q104 0 105 76q0 72 -86 72q-33 0 -66 -8l-20 16l88 197h84l-57 -131q53 12 88 12q84 0 122.5 -43t38.5 -111q0 -51 -28.5 -87t-74.5 -54t-90 -25.5t-91 -7.5q-86 0 -180 37z" />
<glyph unicode="&#xb9;" horiz-adv-x="614" d="M29 1227v10q102 25 405 125l17 -10q0 -16 -7.5 -82t-7.5 -103v-475q0 -88 76 -92l76 -4v-61q-45 0 -97.5 1t-83 2t-55 1t-56.5 -1t-91.5 -2t-122.5 -1v61l86 4q78 4 78 92v482q0 47 -13 47q-6 0 -8 -2l-178 -80q-18 61 -18 88z" />
<glyph unicode="&#xba;" horiz-adv-x="999" d="M182 1049q0 143 84 223t242 80q152 0 230.5 -75t78.5 -212q0 -150 -87 -231.5t-251 -81.5q-147 0 -222 81t-75 216zM362 1079q0 -268 148 -268q127 0 127 203q0 279 -141 278q-134 0 -134 -213z" />
<glyph unicode="&#xbb;" d="M76 131l225 367l-225 354l55 45q131 -133 406 -373v-51q-143 -117 -406 -383zM489 131l226 367l-226 354l56 45q131 -133 405 -373v-51q-143 -117 -405 -383z" />
<glyph unicode="&#xbc;" horiz-adv-x="1536" d="M39 1227v10q102 25 405 125l17 -10q-2 -16 -8.5 -82t-6.5 -103v-475q0 -88 76 -92l76 -4v-61q-45 0 -97 1t-83 2t-55.5 1t-56.5 -1t-91 -2t-123 -1v61l86 4q78 4 78 92v482q0 47 -12 47q-6 0 -8 -2l-179 -80q-18 61 -18 88zM385 0l825 1352h142l-826 -1352h-141zM893 250 q53 121 63 139l160 264q39 66 103 140l155 32l17 -14v-500h110v-108h-110v-49q0 -84 75 -93l39 -4v-61q-172 4 -200 4q-25 0 -55.5 -1t-84 -2t-100.5 -1v61l78 4q76 4 76 93v49h-318zM1001 311h218v357h-7z" />
<glyph unicode="&#xbd;" horiz-adv-x="1536" d="M18 1227v10q102 25 406 125l16 -10q-2 -16 -8 -82t-6 -103v-475q0 -88 76 -92l76 -4v-61q-45 0 -97.5 1t-83 2t-55.5 1t-56.5 -1t-91 -2t-122.5 -1v61l86 4q78 4 78 92v482q0 47 -13 47q-6 0 -8 -2l-178 -80q-19 61 -19 88zM317 0l826 1352h141l-825 -1352h-142zM932 -4 v76l221 207q143 135 143 260q0 63 -37.5 99t-97.5 36q-53 0 -79.5 -18.5t-41.5 -65.5l-20 -68l-57 8l24 207q102 76 209 76q127 0 208 -59.5t81 -159.5q0 -131 -137 -256l-197 -184v-17l365 19l10 -11q-2 -27 -2 -77q0 -49 2 -72q-258 4 -297 4q-47 0 -297 -4z" />
<glyph unicode="&#xbe;" horiz-adv-x="1536" d="M31 748l45 10q68 -147 205 -148q68 0 115.5 48.5t47.5 107.5q0 70 -45 112t-120 42q-37 0 -82 -11l-11 6l27 91h45q66 0 109 33.5t43 99.5q0 47 -36 74.5t-100 27.5q-119 0 -149 -119h-53l41 189q98 55 200 55q106 0 175 -48t69 -124q0 -117 -145 -178v-4 q88 -4 143 -51.5t55 -126.5q0 -133 -121 -220q-109 -80 -251 -79q-106 0 -175 28q-1 19 -32 185zM328 0l825 1352h141l-825 -1352h-141zM893 250q53 121 63 139l160 264q39 66 103 140l155 32l17 -14v-500h110v-108h-110v-49q0 -84 75 -93l39 -4v-61q-172 4 -200 4 q-25 0 -55.5 -1t-84 -2t-100.5 -1v61l78 4q76 4 76 93v49h-318zM1001 311h218v357h-7z" />
<glyph unicode="&#xbf;" horiz-adv-x="909" d="M68 -160q0 98 32.5 156.5t112.5 126.5l158 131q129 106 129 190q0 35 -21 72l-2 4l70 29q53 -61 53 -160q0 -96 -156 -276q-102 -121 -102 -215q0 -76 55.5 -125t132.5 -49q133 0 156 47l64 145l71 -18q-59 -180 -65 -273q-135 -98 -305 -98q-158 0 -270.5 79.5 t-112.5 233.5zM352 801q0 66 48.5 115t111.5 49t111.5 -49.5t48.5 -114.5q0 -59 -48.5 -107.5t-111.5 -48.5t-111.5 46.5t-48.5 109.5z" />
<glyph unicode="&#xc0;" horiz-adv-x="1593" d="M49 -6v76l62 6q68 8 114 123l371 897l117 309h145l531 -1239q35 -80 112 -90l49 -6v-76q-59 0 -166.5 3t-150.5 3t-151.5 -3t-166.5 -3v76l109 6q41 4 41 59q0 23 -12 53l-92 234h-515l-86 -229q-10 -31 -10 -50q0 -31 17.5 -48t42.5 -19l102 -6v-76q-41 0 -120 3 t-111.5 3t-111.5 -3t-120 -3zM477 1784q0 39 23.5 64.5t64.5 25.5q43 0 71 -18.5t64 -57.5l265 -303h-115l-268 166q-4 2 -20.5 12t-23 14.5t-18.5 13.5t-17 16l-12.5 17.5t-10.5 23t-3 26.5zM496 537h417l-213 520z" />
<glyph unicode="&#xc1;" horiz-adv-x="1593" d="M49 -6v76l62 6q68 8 114 123l371 897l117 309h145l531 -1239q35 -80 112 -90l49 -6v-76q-59 0 -166.5 3t-150.5 3t-151.5 -3t-166.5 -3v76l109 6q41 4 41 59q0 23 -12 53l-92 234h-515l-86 -229q-10 -31 -10 -50q0 -31 17.5 -48t42.5 -19l102 -6v-76q-41 0 -120 3 t-111.5 3t-111.5 -3t-120 -3zM496 537h417l-213 520zM616 1495l265 303q37 39 64.5 57.5t70.5 18.5q41 0 64.5 -25.5t23.5 -64.5q0 -16 -5 -30.5t-9.5 -24t-20.5 -21.5t-19 -15t-26 -17.5t-25 -14.5l-268 -166h-115z" />
<glyph unicode="&#xc2;" horiz-adv-x="1593" d="M49 -6v76l62 6q68 8 114 123l371 897l117 309h145l531 -1239q35 -80 112 -90l49 -6v-76q-59 0 -166.5 3t-150.5 3t-151.5 -3t-166.5 -3v76l109 6q41 4 41 59q0 23 -12 53l-92 234h-515l-86 -229q-10 -31 -10 -50q0 -31 17.5 -48t42.5 -19l102 -6v-76q-41 0 -120 3 t-111.5 3t-111.5 -3t-120 -3zM428 1495l248 358h190l252 -358h-117l-229 201l-231 -201h-113zM496 537h417l-213 520z" />
<glyph unicode="&#xc3;" horiz-adv-x="1593" d="M49 -6v76l62 6q68 8 114 123l371 897l117 309h145l531 -1239q35 -80 112 -90l49 -6v-76q-59 0 -166.5 3t-150.5 3t-151.5 -3t-166.5 -3v76l109 6q41 4 41 59q0 23 -12 53l-92 234h-515l-86 -229q-10 -31 -10 -50q0 -31 17.5 -48t42.5 -19l102 -6v-76q-41 0 -120 3 t-111.5 3t-111.5 -3t-120 -3zM424 1556q2 78 64.5 167t177.5 89q57 0 159.5 -49t151.5 -49q31 0 52.5 16.5t28.5 30t25 51.5h88q-61 -258 -247 -258q-59 0 -166 52q-102 49 -156 49q-70 0 -96 -99h-82zM496 537h417l-213 520z" />
<glyph unicode="&#xc4;" horiz-adv-x="1593" d="M49 -6v76l62 6q68 8 114 123l371 897l117 309h145l531 -1239q35 -80 112 -90l49 -6v-76q-59 0 -166.5 3t-150.5 3t-151.5 -3t-166.5 -3v76l109 6q41 4 41 59q0 23 -12 53l-92 234h-515l-86 -229q-10 -31 -10 -50q0 -31 17.5 -48t42.5 -19l102 -6v-76q-41 0 -120 3 t-111.5 3t-111.5 -3t-120 -3zM440 1695.5q0 57.5 40 97.5t97.5 40t97.5 -40t40 -97.5t-40 -97t-97.5 -39.5t-97.5 39.5t-40 97zM496 537h417l-213 520zM881 1695.5q0 57.5 40 97.5t97 40t97 -40t40 -97.5t-40 -97t-97 -39.5t-97 39.5t-40 97z" />
<glyph unicode="&#xc5;" horiz-adv-x="1593" d="M49 -6v76l62 6q68 8 114 123l371 897l117 309h145l531 -1239q35 -80 112 -90l49 -6v-76q-59 0 -166.5 3t-150.5 3t-151.5 -3t-166.5 -3v76l109 6q41 4 41 59q0 23 -12 53l-92 234h-515l-86 -229q-10 -31 -10 -50q0 -31 17.5 -48t42.5 -19l102 -6v-76q-41 0 -120 3 t-111.5 3t-111.5 -3t-120 -3zM496 537h417l-213 520zM594 1688q0 84 60.5 144t144.5 60t144.5 -60t60.5 -144t-60.5 -144.5t-144.5 -60.5t-144.5 60.5t-60.5 144.5zM696 1688q0 -43 30 -73t73 -30t72.5 30t29.5 73t-29.5 72.5t-72.5 29.5t-73 -29.5t-30 -72.5z" />
<glyph unicode="&#xc6;" horiz-adv-x="2048" d="M25 -6v76l77 6q43 4 111 117l594 1003q35 57 35 82q0 27 -88 35l-107 6v76q88 0 260 -4q43 0 131 -1t133 -1q98 0 449 6q20 0 56 1t53 1q106 0 190 -8l12 -15l-28 -291h-74l-17 154q-6 39 -235 39q-133 0 -262 -6v-492q47 -4 137 -4h135q61 0 88 8.5t29 34.5l12 117h82 q0 -25 -2 -69t-3 -80.5t-1 -69.5l6 -221h-82l-12 102q-8 76 -117 76h-135q-68 0 -137 -6v-547q129 -6 262 -6q74 0 161 11t89 23l47 193h80l-23 -324l-10 -16q-109 -8 -313 -8q-139 0 -191 2q-29 0 -80 2t-93 3t-79 1t-245 -6v47l65 37q41 23 41 117v243h-532l-127 -219 q-39 -66 -39 -113q0 -8 14 -18t35 -12l110 -6v-76q-29 0 -80 2t-93 3t-78 1q-39 0 -117 -3t-94 -3zM555 547h471v694q0 16 -14 35h-15z" />
<glyph unicode="&#xc7;" horiz-adv-x="1478" d="M90 717q0 227 116 390t298 239.5t405 76.5q270 0 502 -96l12 -22q-18 -66 -47 -314h-80l-10 176q-135 141 -368 142q-248 0 -384.5 -157t-136.5 -409q0 -289 160 -467t444 -178q92 0 203 30t189 75l24 -25l-45 -100q-186 -113 -495 -113l-50 -110q53 12 88 12 q84 0 123 -43t39 -111q0 -51 -28.5 -87t-74.5 -54t-90 -25.5t-91 -7.5q-86 0 -181 37l33 76q82 -18 135 -19q104 0 105 76q0 72 -86 72q-33 0 -66 -8l-20 16l82 182q-319 29 -512 222.5t-193 523.5z" />
<glyph unicode="&#xc8;" horiz-adv-x="1251" d="M80 1319v76q74 0 180 -4q29 0 75 -1t64 -1q98 0 449 6q20 0 56 1t52 1q106 0 191 -8l12 -15l-29 -291h-73l-17 154q-6 39 -235 39q-133 0 -262 -6v-492q47 -4 137 -4h135q61 0 88 8.5t29 34.5l12 117h82q0 -25 -2 -69t-3 -80.5t-1 -69.5l6 -221h-82l-12 102 q-8 76 -117 76h-135q-66 0 -137 -6v-547q129 -6 262 -6q74 0 161 11t89 23l47 193h80l-23 -324l-10 -16q-109 -8 -313 -8q-139 0 -191 2q-29 0 -80 2t-93 3t-79 1q-18 0 -246 -6v47l66 37q41 23 41 117v917q0 137 -14.5 166t-83.5 35zM322 1784q0 39 23.5 64.5t64.5 25.5 q43 0 70.5 -18.5t64.5 -57.5l264 -303h-115l-268 166q-4 2 -20.5 12t-22.5 14.5t-18.5 13.5t-17.5 16t-12 17.5t-10 23t-3 26.5z" />
<glyph unicode="&#xc9;" horiz-adv-x="1251" d="M80 1319v76q74 0 180 -4q29 0 75 -1t64 -1q98 0 449 6q20 0 56 1t52 1q106 0 191 -8l12 -15l-29 -291h-73l-17 154q-6 39 -235 39q-133 0 -262 -6v-492q47 -4 137 -4h135q61 0 88 8.5t29 34.5l12 117h82q0 -25 -2 -69t-3 -80.5t-1 -69.5l6 -221h-82l-12 102 q-8 76 -117 76h-135q-66 0 -137 -6v-547q129 -6 262 -6q74 0 161 11t89 23l47 193h80l-23 -324l-10 -16q-109 -8 -313 -8q-139 0 -191 2q-29 0 -80 2t-93 3t-79 1q-18 0 -246 -6v47l66 37q41 23 41 117v917q0 137 -14.5 166t-83.5 35zM444 1495l265 303q37 39 64.5 57.5 t70.5 18.5q41 0 64.5 -25.5t23.5 -64.5q0 -16 -5 -30.5t-9.5 -24t-20.5 -21.5t-19.5 -15t-26 -17.5t-24.5 -14.5l-268 -166h-115z" />
<glyph unicode="&#xca;" horiz-adv-x="1251" d="M80 1319v76q74 0 180 -4q29 0 75 -1t64 -1q98 0 449 6q20 0 56 1t52 1q106 0 191 -8l12 -15l-29 -291h-73l-17 154q-6 39 -235 39q-133 0 -262 -6v-492q47 -4 137 -4h135q61 0 88 8.5t29 34.5l12 117h82q0 -25 -2 -69t-3 -80.5t-1 -69.5l6 -221h-82l-12 102 q-8 76 -117 76h-135q-66 0 -137 -6v-547q129 -6 262 -6q74 0 161 11t89 23l47 193h80l-23 -324l-10 -16q-109 -8 -313 -8q-139 0 -191 2q-29 0 -80 2t-93 3t-79 1q-18 0 -246 -6v47l66 37q41 23 41 117v917q0 137 -14.5 166t-83.5 35zM281 1495l247 358h191l252 -358h-117 l-229 201l-232 -201h-112z" />
<glyph unicode="&#xcb;" horiz-adv-x="1251" d="M80 1319v76q74 0 180 -4q29 0 75 -1t64 -1q98 0 449 6q20 0 56 1t52 1q106 0 191 -8l12 -15l-29 -291h-73l-17 154q-6 39 -235 39q-133 0 -262 -6v-492q47 -4 137 -4h135q61 0 88 8.5t29 34.5l12 117h82q0 -25 -2 -69t-3 -80.5t-1 -69.5l6 -221h-82l-12 102 q-8 76 -117 76h-135q-66 0 -137 -6v-547q129 -6 262 -6q74 0 161 11t89 23l47 193h80l-23 -324l-10 -16q-109 -8 -313 -8q-139 0 -191 2q-29 0 -80 2t-93 3t-79 1q-18 0 -246 -6v47l66 37q41 23 41 117v917q0 137 -14.5 166t-83.5 35zM268 1695.5q0 57.5 40 97.5t97.5 40 t97.5 -40t40 -97.5t-40 -97t-97.5 -39.5t-97.5 39.5t-40 97zM709 1695.5q0 57.5 39.5 97.5t97 40t97.5 -40t40 -97.5t-40 -97t-97.5 -39.5t-97 39.5t-39.5 97z" />
<glyph unicode="&#xcc;" horiz-adv-x="796" d="M80 -6v82l76 6q72 6 84 29q14 29 14 165v836q0 137 -14 166q-12 23 -84 29l-76 6v82q252 -6 319 -6q66 0 318 6v-82l-76 -6q-72 -6 -84 -29q-14 -29 -14 -166v-836q0 -137 14 -165q12 -23 84 -29l76 -6v-82q-252 6 -318 6q-67 0 -319 -6zM94 1784q0 39 23.5 64.5 t64.5 25.5q43 0 71 -18.5t64 -57.5l265 -303h-115l-268 166q-4 2 -20.5 12t-22.5 14.5t-18.5 13.5t-17.5 16l-12.5 17.5t-10.5 23t-3 26.5z" />
<glyph unicode="&#xcd;" horiz-adv-x="796" d="M80 -6v82l76 6q72 6 84 29q14 29 14 165v836q0 137 -14 166q-12 23 -84 29l-76 6v82q252 -6 319 -6q66 0 318 6v-82l-76 -6q-72 -6 -84 -29q-14 -29 -14 -166v-836q0 -137 14 -165q12 -23 84 -29l76 -6v-82q-252 6 -318 6q-67 0 -319 -6zM217 1495l264 303 q37 39 64.5 57.5t70.5 18.5q41 0 65 -25.5t24 -64.5q0 -16 -5.5 -30.5t-9.5 -24t-20.5 -21.5t-19.5 -15t-25.5 -17.5t-24.5 -14.5l-268 -166h-115z" />
<glyph unicode="&#xce;" horiz-adv-x="796" d="M53 1495l248 358h191l251 -358h-116l-230 201l-231 -201h-113zM80 -6v82l76 6q72 6 84 29q14 29 14 165v836q0 137 -14 166q-12 23 -84 29l-76 6v82q252 -6 319 -6q66 0 318 6v-82l-76 -6q-72 -6 -84 -29q-14 -29 -14 -166v-836q0 -137 14 -165q12 -23 84 -29l76 -6v-82 q-252 6 -318 6q-67 0 -319 -6z" />
<glyph unicode="&#xcf;" horiz-adv-x="796" d="M41 1695.5q0 57.5 40 97.5t97.5 40t97 -40t39.5 -97.5t-39.5 -97t-97 -39.5t-97.5 39.5t-40 97zM80 -6v82l76 6q72 6 84 29q14 29 14 165v836q0 137 -14 166q-12 23 -84 29l-76 6v82q252 -6 319 -6q66 0 318 6v-82l-76 -6q-72 -6 -84 -29q-14 -29 -14 -166v-836 q0 -137 14 -165q12 -23 84 -29l76 -6v-82q-252 6 -318 6q-67 0 -319 -6zM481 1695.5q0 57.5 40 97.5t97.5 40t97.5 -40t40 -97.5t-40 -97t-97.5 -39.5t-97.5 39.5t-40 97z" />
<glyph unicode="&#xd0;" horiz-adv-x="1705" d="M20 692v86h226v334q0 137 -14.5 166t-84.5 35l-75 6v76q57 0 166.5 -3t152.5 -3q61 0 245.5 3t281.5 3q342 0 517 -152.5t175 -486.5q0 -236 -120 -412t-306.5 -263t-407.5 -87h-18q-35 0 -96.5 2t-112.5 3t-96 1t-96.5 -1t-115 -3t-102.5 -2v47l66 37q41 23 41 117v497 h-226zM535 117q59 -10 176 -11q303 0 447.5 151t144.5 460q0 307 -147.5 441t-496.5 134q-68 0 -124 -8v-506h309v-86h-309v-575z" />
<glyph unicode="&#xd1;" horiz-adv-x="1705" d="M72 -6v76l75 6q70 6 84.5 34.5t14.5 165.5v836q0 137 -14.5 166t-84.5 35l-75 6v76q27 0 77 -2t91 -3t77 -1l172 6q23 -29 66 -86.5t78 -102.5t67 -84l639 -745v735q0 137 -14 166t-84 35l-76 6v76q233 -6 236 -6l233 6v-76l-75 -6q-70 -6 -84.5 -35t-14.5 -166v-930 q0 -23 6 -207l-14 -8l-168 27q-174 195 -250 285l-663 798h-4v-801q0 -137 14 -165.5t84 -34.5l76 -6v-76q-27 0 -74 2t-86 3t-74 1q-2 0 -235 -6zM479 1556q2 78 64.5 167t177.5 89q57 0 159.5 -49t151.5 -49q31 0 52.5 16.5t28.5 30t26 51.5h88q-61 -258 -248 -258 q-59 0 -166 52q-102 49 -156 49q-70 0 -96 -99h-82z" />
<glyph unicode="&#xd2;" horiz-adv-x="1705" d="M96 682q0 356 210 548.5t568 192.5q348 0 543 -185t195 -531q0 -356 -210 -549t-568 -193q-348 0 -543 185.5t-195 531.5zM403 717q0 -270 112 -453.5t319 -183.5q471 0 471 590q0 270 -112 454.5t-319 184.5q-471 0 -471 -592zM549 1784q0 39 23.5 64.5t64.5 25.5 q43 0 70.5 -18.5t64.5 -57.5l264 -303h-114l-269 166q-4 2 -20.5 12t-22.5 14.5l-18 13.5t-17.5 16t-12.5 17.5t-10 23t-3 26.5z" />
<glyph unicode="&#xd3;" horiz-adv-x="1705" d="M96 682q0 356 210 548.5t568 192.5q348 0 543 -185t195 -531q0 -356 -210 -549t-568 -193q-348 0 -543 185.5t-195 531.5zM403 717q0 -270 112 -453.5t319 -183.5q471 0 471 590q0 270 -112 454.5t-319 184.5q-471 0 -471 -592zM672 1495l264 303q37 39 64.5 57.5 t70.5 18.5q41 0 64.5 -25.5t23.5 -64.5q0 -16 -5 -30.5t-9 -24t-20.5 -21.5t-19.5 -15t-25.5 -17.5t-24.5 -14.5l-269 -166h-114z" />
<glyph unicode="&#xd4;" horiz-adv-x="1705" d="M96 682q0 356 210 548.5t568 192.5q348 0 543 -185t195 -531q0 -356 -210 -549t-568 -193q-348 0 -543 185.5t-195 531.5zM403 717q0 -270 112 -453.5t319 -183.5q471 0 471 590q0 270 -112 454.5t-319 184.5q-471 0 -471 -592zM508 1495l248 358h190l252 -358h-117 l-229 201l-231 -201h-113z" />
<glyph unicode="&#xd5;" horiz-adv-x="1705" d="M96 682q0 356 210 548.5t568 192.5q348 0 543 -185t195 -531q0 -356 -210 -549t-568 -193q-348 0 -543 185.5t-195 531.5zM403 717q0 -270 112 -453.5t319 -183.5q471 0 471 590q0 270 -112 454.5t-319 184.5q-471 0 -471 -592zM479 1556q2 78 64.5 167t177.5 89 q57 0 159.5 -49t151.5 -49q31 0 52.5 16.5t28.5 30t26 51.5h88q-61 -258 -248 -258q-59 0 -166 52q-102 49 -156 49q-70 0 -96 -99h-82z" />
<glyph unicode="&#xd6;" horiz-adv-x="1705" d="M96 682q0 356 210 548.5t568 192.5q348 0 543 -185t195 -531q0 -356 -210 -549t-568 -193q-348 0 -543 185.5t-195 531.5zM403 717q0 -270 112 -453.5t319 -183.5q471 0 471 590q0 270 -112 454.5t-319 184.5q-471 0 -471 -592zM496 1695.5q0 57.5 39.5 97.5t97 40 t97.5 -40t40 -97.5t-40 -97t-97.5 -39.5t-97 39.5t-39.5 97zM936 1695.5q0 57.5 40 97.5t97 40t97 -40t40 -97.5t-40 -97t-97 -39.5t-97 39.5t-40 97z" />
<glyph unicode="&#xd7;" horiz-adv-x="1241" d="M147 168l347 350l-344 346l124 125l344 -346l347 346l125 -125l-347 -346l351 -350l-125 -125l-351 350l-346 -350z" />
<glyph unicode="&#xd8;" horiz-adv-x="1705" d="M66 41l186 170q-156 166 -156 471q0 356 210 548.5t568 192.5q340 0 523 -159l182 166l76 -80l-182 -168q80 -104 109.5 -216t29.5 -259q0 -356 -210 -549t-568 -193q-172 0 -304.5 43t-201.5 119l-185 -168zM403 717q0 -217 52 -324l757 701q-113 215 -338 215 q-471 0 -471 -592zM496 283q133 -203 338 -203q471 0 471 590q0 219 -45 315z" />
<glyph unicode="&#xd9;" horiz-adv-x="1593" d="M53 1319v76q252 -6 320 -6q66 0 317 6v-76l-76 -6q-70 -6 -84 -35t-14 -166v-508q0 -102 4 -161.5t24.5 -127t58.5 -101.5t106.5 -57.5t171.5 -23.5q100 0 170.5 23.5t111.5 60.5t63.5 103.5t29 132t6.5 165.5v494q0 137 -14.5 166t-84.5 35l-76 6v76q233 -6 236 -6 l233 6v-76l-75 -6q-70 -6 -84.5 -35t-14.5 -166v-598q0 -549 -569 -549q-283 0 -434.5 108.5t-151.5 288.5v750q0 137 -14 166t-84 35zM494 1784q0 39 23.5 64.5t64.5 25.5q43 0 70.5 -18.5t64.5 -57.5l264 -303h-115l-268 166q-4 2 -20.5 12t-22.5 14.5t-18.5 13.5 t-17.5 16t-12 17.5t-10 23t-3 26.5z" />
<glyph unicode="&#xda;" horiz-adv-x="1593" d="M53 1319v76q252 -6 320 -6q66 0 317 6v-76l-76 -6q-70 -6 -84 -35t-14 -166v-508q0 -102 4 -161.5t24.5 -127t58.5 -101.5t106.5 -57.5t171.5 -23.5q100 0 170.5 23.5t111.5 60.5t63.5 103.5t29 132t6.5 165.5v494q0 137 -14.5 166t-84.5 35l-76 6v76q233 -6 236 -6 l233 6v-76l-75 -6q-70 -6 -84.5 -35t-14.5 -166v-598q0 -549 -569 -549q-283 0 -434.5 108.5t-151.5 288.5v750q0 137 -14 166t-84 35zM764 1495l264 303q37 39 64.5 57.5t70.5 18.5q41 0 64.5 -25.5t23.5 -64.5q0 -16 -5 -30.5t-9 -24t-20.5 -21.5t-19.5 -15t-25.5 -17.5 t-24.5 -14.5l-268 -166h-115z" />
<glyph unicode="&#xdb;" horiz-adv-x="1593" d="M53 1319v76q252 -6 320 -6q66 0 317 6v-76l-76 -6q-70 -6 -84 -35t-14 -166v-508q0 -102 4 -161.5t24.5 -127t58.5 -101.5t106.5 -57.5t171.5 -23.5q100 0 170.5 23.5t111.5 60.5t63.5 103.5t29 132t6.5 165.5v494q0 137 -14.5 166t-84.5 35l-76 6v76q233 -6 236 -6 l233 6v-76l-75 -6q-70 -6 -84.5 -35t-14.5 -166v-598q0 -549 -569 -549q-283 0 -434.5 108.5t-151.5 288.5v750q0 137 -14 166t-84 35zM477 1495l248 358h190l252 -358h-116l-230 201l-231 -201h-113z" />
<glyph unicode="&#xdc;" horiz-adv-x="1593" d="M53 1319v76q252 -6 320 -6q66 0 317 6v-76l-76 -6q-70 -6 -84 -35t-14 -166v-508q0 -102 4 -161.5t24.5 -127t58.5 -101.5t106.5 -57.5t171.5 -23.5q100 0 170.5 23.5t111.5 60.5t63.5 103.5t29 132t6.5 165.5v494q0 137 -14.5 166t-84.5 35l-76 6v76q233 -6 236 -6 l233 6v-76l-75 -6q-70 -6 -84.5 -35t-14.5 -166v-598q0 -549 -569 -549q-283 0 -434.5 108.5t-151.5 288.5v750q0 137 -14 166t-84 35zM465 1695.5q0 57.5 40 97.5t97 40t97 -40t40 -97.5t-40 -97t-97 -39.5t-97 39.5t-40 97zM905 1695.5q0 57.5 40 97.5t97.5 40t97.5 -40 t40 -97.5t-40 -97t-97.5 -39.5t-97.5 39.5t-40 97z" />
<glyph unicode="&#xdd;" horiz-adv-x="1366" d="M31 1274v76l325 73q76 -43 128.5 -110.5t105.5 -167.5l219 -416l385 660h158v-39l-361 -535q-51 -78 -108 -205v-334q0 -137 14 -165q12 -23 84 -29l76 -6v-82q-252 6 -318 6q-68 0 -319 -6v82l76 6q72 6 84 29q14 29 14 165v285q-43 100 -90 174l-207 334 q-41 63 -107 137q-61 68 -159 68zM715 1495l264 303q37 39 64.5 57.5t70.5 18.5q41 0 64.5 -25.5t23.5 -64.5q0 -16 -5 -30.5t-9 -24t-20.5 -21.5t-19.5 -15t-25.5 -17.5t-24.5 -14.5l-269 -166h-114z" />
<glyph unicode="&#xde;" horiz-adv-x="1251" d="M80 -6v82l76 6q72 6 84 29q14 29 14 165v836q0 137 -14.5 166t-83.5 35l-76 6v76q252 -6 319 -6q66 0 318 6v-76l-76 -6q-70 -6 -84 -35t-14 -154q55 -6 168 -6q80 0 137 -4t123.5 -22.5t107.5 -49t69 -89t28 -138.5q0 -195 -126 -316.5t-286 -121.5q-18 0 -127 14 l-35 72l21 20q41 -14 114 -14q72 0 108 67.5t36 172.5q0 307 -170 307q-131 0 -168 -19v-721q0 -10 -1 -26.5t-1 -22.5q0 -88 16 -116q12 -23 84 -29l96 -6v-82q-313 6 -338 6q-67 0 -319 -6z" />
<glyph unicode="&#xdf;" horiz-adv-x="1251" d="M61 -6v76l80 4q55 2 66 35q8 27 8 96v549h-145v47l141 92v149q0 127 203 287q98 78 171.5 112t178.5 34q135 0 219 -79t84 -214q0 -88 -49 -299l-12 -54l-27 -18q-45 39 -111 39q-41 0 -70.5 -19.5t-29.5 -58.5q0 -18 7 -34.5t13.5 -27t23.5 -23.5t22.5 -17t27.5 -17 l23 -12l162 -94q111 -63 110 -191q0 -82 -22.5 -129t-83.5 -104l-93 -86q-31 -31 -57 -41q-80 -31 -162 -31q-72 0 -147 43v-14q-209 6 -246 6q-51 0 -151.5 -3t-133.5 -3zM465 203q0 -41 2 -62.5t17.5 -42t45.5 -22.5l60 -6l18 159l68 13l8 -111q74 -49 133 -49q55 0 95 35 t40 88q0 12 -3 25.5t-6 23.5t-12 22.5t-15.5 19.5t-20.5 18.5t-20.5 16.5t-24.5 17l-25 17q-6 4 -26.5 16t-26.5 16q-59 37 -91 60.5t-61.5 69.5t-29.5 100q0 88 40 145t126 129q63 53 135 53h12q14 104 15 136q0 104 -61.5 175.5t-166.5 71.5q-72 0 -132 -35.5t-77 -103.5 q-16 -70 -16 -235v-760z" />
<glyph unicode="&#xe0;" d="M82 215q0 154 94 217q88 59 256 94l180 37q0 242 -213 242q-33 0 -70.5 -8.5t-43.5 -20.5l-45 -102l-62 14v141l109 66q115 70 237 70q145 0 241.5 -70t96.5 -217v-12q0 -29 -2 -80t-3 -93t-1 -79q0 -2 6 -254q4 -78 56 -84l61 -6v-76q-14 0 -79.5 3t-100.5 3 q-33 0 -98.5 -3t-88.5 -3l-10 16l10 127l-190 -147q-31 -25 -113 -25q-111 0 -169 68.5t-58 181.5zM209 1366q0 39 23.5 64.5t64.5 25.5q43 0 70.5 -18.5t64.5 -57.5l264 -303h-114l-269 166q-4 2 -20.5 12.5t-22.5 14.5t-18 13t-17.5 16.5t-12.5 17.5t-10 22.5t-3 26.5z M332 266q0 -61 30.5 -92t79.5 -31q43 0 96.5 31t73.5 62v241l-92 -24q-53 -14 -77.5 -23.5t-55.5 -30t-43 -53.5t-12 -80z" />
<glyph unicode="&#xe1;" d="M82 215q0 154 94 217q88 59 256 94l180 37q0 242 -213 242q-33 0 -70.5 -8.5t-43.5 -20.5l-45 -102l-62 14v141l109 66q115 70 237 70q145 0 241.5 -70t96.5 -217v-12q0 -29 -2 -80t-3 -93t-1 -79q0 -2 6 -254q4 -78 56 -84l61 -6v-76q-14 0 -79.5 3t-100.5 3 q-33 0 -98.5 -3t-88.5 -3l-10 16l10 127l-190 -147q-31 -25 -113 -25q-111 0 -169 68.5t-58 181.5zM332 266q0 -61 30.5 -92t79.5 -31q43 0 96.5 31t73.5 62v241l-92 -24q-53 -14 -77.5 -23.5t-55.5 -30t-43 -53.5t-12 -80zM332 1077l264 303q37 39 64.5 57.5t70.5 18.5 q41 0 64.5 -25.5t23.5 -64.5q0 -16 -5 -30.5t-9 -23.5t-20.5 -21.5t-19.5 -15.5t-25.5 -17.5t-24.5 -14.5l-269 -166h-114z" />
<glyph unicode="&#xe2;" d="M82 215q0 154 94 217q88 59 256 94l180 37q0 242 -213 242q-33 0 -70.5 -8.5t-43.5 -20.5l-45 -102l-62 14v141l109 66q115 70 237 70q145 0 241.5 -70t96.5 -217v-12q0 -29 -2 -80t-3 -93t-1 -79q0 -2 6 -254q4 -78 56 -84l61 -6v-76q-14 0 -79.5 3t-100.5 3 q-33 0 -98.5 -3t-88.5 -3l-10 16l10 127l-190 -147q-31 -25 -113 -25q-111 0 -169 68.5t-58 181.5zM168 1077l248 359h190l252 -359h-117l-229 201l-231 -201h-113zM332 266q0 -61 30.5 -92t79.5 -31q43 0 96.5 31t73.5 62v241l-92 -24q-53 -14 -77.5 -23.5t-55.5 -30 t-43 -53.5t-12 -80z" />
<glyph unicode="&#xe3;" d="M82 215q0 154 94 217q88 59 256 94l180 37q0 242 -213 242q-33 0 -70.5 -8.5t-43.5 -20.5l-45 -102l-62 14v141l109 66q115 70 237 70q145 0 241.5 -70t96.5 -217v-12q0 -29 -2 -80t-3 -93t-1 -79q0 -2 6 -254q4 -78 56 -84l61 -6v-76q-14 0 -79.5 3t-100.5 3 q-33 0 -98.5 -3t-88.5 -3l-10 16l10 127l-190 -147q-31 -25 -113 -25q-111 0 -169 68.5t-58 181.5zM139 1163q2 78 64.5 167t177.5 89q57 0 159.5 -49t151.5 -49q31 0 52.5 16.5t28.5 29.5t26 52h88q-61 -258 -248 -258q-59 0 -166 51q-102 49 -156 50q-70 0 -96 -99h-82z M332 266q0 -61 30.5 -92t79.5 -31q43 0 96.5 31t73.5 62v241l-92 -24q-53 -14 -77.5 -23.5t-55.5 -30t-43 -53.5t-12 -80z" />
<glyph unicode="&#xe4;" d="M82 215q0 154 94 217q88 59 256 94l180 37q0 242 -213 242q-33 0 -70.5 -8.5t-43.5 -20.5l-45 -102l-62 14v141l109 66q115 70 237 70q145 0 241.5 -70t96.5 -217v-12q0 -29 -2 -80t-3 -93t-1 -79q0 -2 6 -254q4 -78 56 -84l61 -6v-76q-14 0 -79.5 3t-100.5 3 q-33 0 -98.5 -3t-88.5 -3l-10 16l10 127l-190 -147q-31 -25 -113 -25q-111 0 -169 68.5t-58 181.5zM156 1278q0 57 40 97t97 40t97 -40t40 -97t-40 -97t-97 -40t-97 40t-40 97zM332 266q0 -61 30.5 -92t79.5 -31q43 0 96.5 31t73.5 62v241l-92 -24q-53 -14 -77.5 -23.5 t-55.5 -30t-43 -53.5t-12 -80zM596 1278q0 57 40 97t97.5 40t97 -40t39.5 -97t-39.5 -97t-97 -40t-97.5 40t-40 97z" />
<glyph unicode="&#xe5;" d="M82 215q0 154 94 217q88 59 256 94l180 37q0 242 -213 242q-33 0 -70.5 -8.5t-43.5 -20.5l-45 -102l-62 14v141l109 66q115 70 237 70q145 0 241.5 -70t96.5 -217v-12q0 -29 -2 -80t-3 -93t-1 -79q0 -2 6 -254q4 -78 56 -84l61 -6v-76q-14 0 -79.5 3t-100.5 3 q-33 0 -98.5 -3t-88.5 -3l-10 16l10 127l-190 -147q-31 -25 -113 -25q-111 0 -169 68.5t-58 181.5zM309 1270q0 84 60.5 144.5t144.5 60.5t144.5 -60.5t60.5 -144.5t-60.5 -144.5t-144.5 -60.5t-144.5 60.5t-60.5 144.5zM332 266q0 -61 30.5 -92t79.5 -31q43 0 96.5 31 t73.5 62v241l-92 -24q-53 -14 -77.5 -23.5t-55.5 -30t-43 -53.5t-12 -80zM412 1270q0 -43 29.5 -73t72.5 -30t72.5 30t29.5 73t-29.5 72.5t-72.5 29.5t-72.5 -29.5t-29.5 -72.5z" />
<glyph unicode="&#xe6;" horiz-adv-x="1593" d="M94 213q0 172 107 225q111 55 272 88l180 37q0 117 -53 186.5t-170 69.5q-76 0 -143 -49l-33 -86l-66 8v137l109 66q115 70 238 70q104 0 168.5 -22.5t125.5 -84.5q119 106 293 107q158 0 266.5 -94.5t108.5 -266.5v-106q-147 -41 -323 -41h-269q0 -154 85 -250t241 -96 q100 0 221 71l25 -30l-45 -99q-166 -88 -328 -88q-276 0 -399 195l-234 -168q-35 -27 -121 -27q-113 0 -184.5 69.5t-71.5 178.5zM352 262q0 -119 131 -119q43 0 96.5 31t73.5 62v233l-112 -27q-189 -43 -189 -180zM893 565q18 0 54 -2t64.5 -3t53.5 -1l172 6 q0 285 -168 285q-176 0 -176 -285z" />
<glyph unicode="&#xe7;" horiz-adv-x="909" d="M76 451q0 66 6 106.5t28.5 95t76 104.5t137.5 101l106 64q72 43 203 43q80 0 192 -41l15 -27q-25 -119 -41 -289h-74l-14 123q-4 41 -61.5 64.5t-114.5 23.5q-205 0 -205 -289q0 -178 81 -298.5t251 -120.5q78 0 167 39l19 -21l-43 -94q-100 -57 -227 -68l-50 -112 q53 12 88 12q84 0 123 -43t39 -111q0 -51 -28.5 -87t-74.5 -54t-90 -25.5t-91 -7.5q-86 0 -181 37l33 76q82 -18 135 -19q104 0 105 76q0 72 -86 72q-33 0 -66 -8l-20 16l80 180q-209 12 -313.5 141.5t-104.5 340.5z" />
<glyph unicode="&#xe8;" d="M86 438q0 150 38 251.5t157 170.5l96 58q78 47 168 47q178 0 288.5 -93.5t110.5 -267.5v-106q-147 -41 -323 -41h-269q0 -154 85 -250t241 -96q100 0 221 71l25 -30l-45 -99q-166 -88 -328 -88q-223 0 -344 126t-121 347zM209 1366q0 39 23.5 64.5t64.5 25.5 q43 0 70.5 -18.5t64.5 -57.5l264 -303h-114l-269 166q-4 2 -20.5 12.5t-22.5 14.5t-18 13t-17.5 16.5t-12.5 17.5t-10 22.5t-3 26.5zM340 565q18 0 54 -2t64.5 -3t53.5 -1l172 6q0 285 -168 285q-176 0 -176 -285z" />
<glyph unicode="&#xe9;" d="M86 438q0 150 38 251.5t157 170.5l96 58q78 47 168 47q178 0 288.5 -93.5t110.5 -267.5v-106q-147 -41 -323 -41h-269q0 -154 85 -250t241 -96q100 0 221 71l25 -30l-45 -99q-166 -88 -328 -88q-223 0 -344 126t-121 347zM332 1077l264 303q37 39 64.5 57.5t70.5 18.5 q41 0 64.5 -25.5t23.5 -64.5q0 -16 -5 -30.5t-9 -23.5t-20.5 -21.5t-19.5 -15.5t-25.5 -17.5t-24.5 -14.5l-269 -166h-114zM340 565q18 0 54 -2t64.5 -3t53.5 -1l172 6q0 285 -168 285q-176 0 -176 -285z" />
<glyph unicode="&#xea;" d="M86 438q0 150 38 251.5t157 170.5l96 58q78 47 168 47q178 0 288.5 -93.5t110.5 -267.5v-106q-147 -41 -323 -41h-269q0 -154 85 -250t241 -96q100 0 221 71l25 -30l-45 -99q-166 -88 -328 -88q-223 0 -344 126t-121 347zM193 1118l247 359h191l252 -359h-117l-229 201 l-232 -201h-112zM340 565q18 0 54 -2t64.5 -3t53.5 -1l172 6q0 285 -168 285q-176 0 -176 -285z" />
<glyph unicode="&#xeb;" d="M86 438q0 150 38 251.5t157 170.5l96 58q78 47 168 47q178 0 288.5 -93.5t110.5 -267.5v-106q-147 -41 -323 -41h-269q0 -154 85 -250t241 -96q100 0 221 71l25 -30l-45 -99q-166 -88 -328 -88q-223 0 -344 126t-121 347zM172 1278q0 57 40 97t97.5 40t97 -40t39.5 -97 t-39.5 -97t-97 -40t-97.5 40t-40 97zM340 565q18 0 54 -2t64.5 -3t53.5 -1l172 6q0 285 -168 285q-176 0 -176 -285zM612 1278q0 57 40 97t97.5 40t97.5 -40t40 -97t-40 -97t-97.5 -40t-97.5 40t-40 97z" />
<glyph unicode="&#xec;" horiz-adv-x="681" d="M37 1366q0 39 23.5 64.5t64.5 25.5q43 0 70.5 -18.5t64.5 -57.5l264 -303h-114l-269 166q-4 2 -20.5 12.5t-22.5 14.5t-18 13t-17.5 16.5t-12.5 17.5t-10 22.5t-3 26.5zM70 -6v76l71 4q57 6 66 35q8 27 8 96v448q0 90 -8 116t-45 28l-92 6v74q166 23 231 43l143 45 l21 -13v-747q0 -70 8 -96q8 -29 66 -35l71 -4v-76q-264 6 -276 6z" />
<glyph unicode="&#xed;" horiz-adv-x="681" d="M70 -6v76l71 4q57 6 66 35q8 27 8 96v448q0 90 -8 116t-45 28l-92 6v74q166 23 231 43l143 45l21 -13v-747q0 -70 8 -96q8 -29 66 -35l71 -4v-76q-264 6 -276 6zM160 1077l264 303q37 39 64.5 57.5t70.5 18.5q41 0 64.5 -25.5t23.5 -64.5q0 -16 -5 -30.5t-9 -23.5 t-20.5 -21.5t-19.5 -15.5t-25.5 -17.5t-24.5 -14.5l-269 -166h-114z" />
<glyph unicode="&#xee;" horiz-adv-x="681" d="M-4 1077l248 359h190l252 -359h-117l-229 201l-231 -201h-113zM70 -6v76l71 4q57 6 66 35q8 27 8 96v448q0 90 -8 116t-45 28l-92 6v74q166 23 231 43l143 45l21 -13v-747q0 -70 8 -96q8 -29 66 -35l71 -4v-76q-264 6 -276 6z" />
<glyph unicode="&#xef;" horiz-adv-x="681" d="M-16 1317q0 57 39.5 97t97 40t97.5 -40t40 -97t-40 -97t-97.5 -40t-97 40t-39.5 97zM70 -6v76l71 4q57 6 66 35q8 27 8 96v448q0 90 -8 116t-45 28l-92 6v74q166 23 231 43l143 45l21 -13v-747q0 -70 8 -96q8 -29 66 -35l71 -4v-76q-264 6 -276 6zM424 1317q0 57 40 97 t97 40t97 -40t40 -97t-40 -97t-97 -40t-97 40t-40 97z" />
<glyph unicode="&#xf0;" horiz-adv-x="1138" d="M82 461q0 238 129 371t352 133q57 0 113 -19q-25 102 -125 217l-272 -127l-37 78l247 115q-90 90 -194 139l82 107q182 -88 282 -166l275 127l37 -78l-238 -111q326 -301 326 -694v-18q-4 -254 -138.5 -412t-379.5 -158q-227 0 -343 134.5t-116 361.5zM360 510 q0 -446 224 -447q197 0 196 379q0 59 -2 100.5t-13 109t-32.5 109.5t-64.5 73.5t-105 31.5q-68 0 -111.5 -32.5t-62 -94t-24 -110.5t-5.5 -119z" />
<glyph unicode="&#xf1;" horiz-adv-x="1251" d="M49 -6v76l72 4q57 6 65 35q8 27 9 96v448q0 90 -8.5 116t-45.5 28l-92 6v74q35 0 72 5t60.5 9t69.5 17.5t57 16.5t66.5 21.5t57.5 18.5l12 -13v-153l164 127q51 39 156 39q141 0 221 -82q47 -51 61.5 -120t14.5 -177v-381q0 -70 8 -96q8 -29 66 -35l67 -4v-76 q-18 0 -90 3t-111 3q-18 0 -190 -6v559q0 135 -53 188q-47 47 -154 47q-61 0 -110.5 -46t-49.5 -93v-444q0 -70 9 -96q8 -29 65 -35l72 -4v-76q-264 6 -277 6zM252 1163q2 78 64.5 167t177.5 89q57 0 159.5 -49t151.5 -49q31 0 52.5 16.5t28.5 29.5t25 52h88 q-61 -258 -247 -258q-59 0 -166 51q-102 49 -156 50q-70 0 -96 -99h-82z" />
<glyph unicode="&#xf2;" horiz-adv-x="1138" d="M82 461q0 240 129 372t373 132q233 0 354 -124t121 -356q0 -250 -133 -385t-385 -135q-227 0 -343 134.5t-116 361.5zM266 1366q0 39 23.5 64.5t64.5 25.5q43 0 71 -18.5t64 -57.5l265 -303h-115l-268 166q-4 2 -20.5 12.5t-22.5 14.5t-18.5 13t-17.5 16.5t-12.5 17.5 t-10.5 22.5t-3 26.5zM360 510q0 -446 226 -447q195 0 194 338q0 82 -4 138.5t-22.5 143.5t-66.5 135t-122 48q-55 0 -95 -24.5t-60.5 -58t-31.5 -87t-14.5 -93.5t-3.5 -93z" />
<glyph unicode="&#xf3;" horiz-adv-x="1138" d="M82 461q0 240 129 372t373 132q233 0 354 -124t121 -356q0 -250 -133 -385t-385 -135q-227 0 -343 134.5t-116 361.5zM360 510q0 -446 226 -447q195 0 194 338q0 82 -4 138.5t-22.5 143.5t-66.5 135t-122 48q-55 0 -95 -24.5t-60.5 -58t-31.5 -87t-14.5 -93.5t-3.5 -93z M389 1077l264 303q37 39 64.5 57.5t70.5 18.5q41 0 65 -25.5t24 -64.5q0 -16 -5.5 -30.5t-9.5 -23.5t-20.5 -21.5t-19.5 -15.5t-25.5 -17.5t-24.5 -14.5l-268 -166h-115z" />
<glyph unicode="&#xf4;" horiz-adv-x="1138" d="M82 461q0 240 129 372t373 132q233 0 354 -124t121 -356q0 -250 -133 -385t-385 -135q-227 0 -343 134.5t-116 361.5zM225 1077l248 359h191l251 -359h-116l-230 201l-231 -201h-113zM360 510q0 -446 226 -447q195 0 194 338q0 82 -4 138.5t-22.5 143.5t-66.5 135 t-122 48q-55 0 -95 -24.5t-60.5 -58t-31.5 -87t-14.5 -93.5t-3.5 -93z" />
<glyph unicode="&#xf5;" horiz-adv-x="1138" d="M82 461q0 240 129 372t373 132q233 0 354 -124t121 -356q0 -250 -133 -385t-385 -135q-227 0 -343 134.5t-116 361.5zM197 1163q2 78 64.5 167t176.5 89q57 0 159.5 -49t152.5 -49q31 0 52 16.5t28.5 29.5t25.5 52h88q-61 -258 -248 -258q-59 0 -166 51q-102 49 -155 50 q-70 0 -96 -99h-82zM360 510q0 -446 226 -447q195 0 194 338q0 82 -4 138.5t-22.5 143.5t-66.5 135t-122 48q-55 0 -95 -24.5t-60.5 -58t-31.5 -87t-14.5 -93.5t-3.5 -93z" />
<glyph unicode="&#xf6;" horiz-adv-x="1138" d="M82 461q0 240 129 372t373 132q233 0 354 -124t121 -356q0 -250 -133 -385t-385 -135q-227 0 -343 134.5t-116 361.5zM213 1317q0 57 40 97t97.5 40t97 -40t39.5 -97t-39.5 -97t-97 -40t-97.5 40t-40 97zM360 510q0 -446 226 -447q195 0 194 338q0 82 -4 138.5 t-22.5 143.5t-66.5 135t-122 48q-55 0 -95 -24.5t-60.5 -58t-31.5 -87t-14.5 -93.5t-3.5 -93zM653 1317q0 57 40 97t97.5 40t97.5 -40t40 -97t-40 -97t-97.5 -40t-97.5 40t-40 97z" />
<glyph unicode="&#xf7;" horiz-adv-x="1241" d="M104 434v176h1033v-176h-1033zM483 137.5q0 57.5 40 97t97.5 39.5t97.5 -39.5t40 -97t-40 -97.5t-97.5 -40t-97.5 40t-40 97.5zM483 907.5q0 57.5 40 97t97.5 39.5t97.5 -39.5t40 -97t-40 -97.5t-97.5 -40t-97.5 40t-40 97.5z" />
<glyph unicode="&#xf8;" horiz-adv-x="1138" d="M47 10l129 121q-94 104 -94 330q0 240 129 372t373 132q236 0 346 -117l114 110l50 -45l-123 -114q88 -117 88 -314q0 -250 -133 -385t-385 -135q-188 0 -322 117l-125 -119zM360 510q0 -78 17 -186l377 358q-51 184 -189 184q-55 0 -95 -24.5t-60.5 -58t-31.5 -87 t-14.5 -93.5t-3.5 -93zM389 244q61 -180 197 -181q195 0 194 338q0 139 -14 201z" />
<glyph unicode="&#xf9;" horiz-adv-x="1251" d="M51 803v74q166 23 232 43l143 45l20 -13v-534q0 -61 4.5 -100t19.5 -82t50 -64.5t92 -21.5q106 0 172 104q18 29 19 80v319q0 90 -8.5 116t-44.5 28l-93 6v74q166 23 232 43l143 45l21 -13v-747q0 -70 8 -96q8 -29 65 -35l68 -4v-76q-25 0 -110 3t-117 3q-16 0 -74.5 -2 t-99.5 -4l10 170l-156 -152q-47 -47 -131 -47q-319 0 -319 322v366q0 90 -8.5 116t-45.5 28zM305 1366q0 39 23.5 64.5t64.5 25.5q43 0 71 -18.5t64 -57.5l265 -303h-115l-268 166q-4 2 -20.5 12.5t-23 14.5t-18.5 13t-17 16.5t-12.5 17.5t-10.5 22.5t-3 26.5z" />
<glyph unicode="&#xfa;" horiz-adv-x="1251" d="M51 803v74q166 23 232 43l143 45l20 -13v-534q0 -61 4.5 -100t19.5 -82t50 -64.5t92 -21.5q106 0 172 104q18 29 19 80v319q0 90 -8.5 116t-44.5 28l-93 6v74q166 23 232 43l143 45l21 -13v-747q0 -70 8 -96q8 -29 65 -35l68 -4v-76q-25 0 -110 3t-117 3q-16 0 -74.5 -2 t-99.5 -4l10 170l-156 -152q-47 -47 -131 -47q-319 0 -319 322v366q0 90 -8.5 116t-45.5 28zM469 1077l264 303q37 39 64.5 57.5t70.5 18.5q41 0 64.5 -25.5t23.5 -64.5q0 -16 -5 -30.5t-9 -23.5t-20.5 -21.5t-19.5 -15.5t-25.5 -17.5t-24.5 -14.5l-268 -166h-115z" />
<glyph unicode="&#xfb;" horiz-adv-x="1251" d="M51 803v74q166 23 232 43l143 45l20 -13v-534q0 -61 4.5 -100t19.5 -82t50 -64.5t92 -21.5q106 0 172 104q18 29 19 80v319q0 90 -8.5 116t-44.5 28l-93 6v74q166 23 232 43l143 45l21 -13v-747q0 -70 8 -96q8 -29 65 -35l68 -4v-76q-25 0 -110 3t-117 3q-16 0 -74.5 -2 t-99.5 -4l10 170l-156 -152q-47 -47 -131 -47q-319 0 -319 322v366q0 90 -8.5 116t-45.5 28zM281 1077l247 359h191l252 -359h-117l-229 201l-232 -201h-112z" />
<glyph unicode="&#xfc;" horiz-adv-x="1251" d="M51 803v74q166 23 232 43l143 45l20 -13v-534q0 -61 4.5 -100t19.5 -82t50 -64.5t92 -21.5q106 0 172 104q18 29 19 80v319q0 90 -8.5 116t-44.5 28l-93 6v74q166 23 232 43l143 45l21 -13v-747q0 -70 8 -96q8 -29 65 -35l68 -4v-76q-25 0 -110 3t-117 3q-16 0 -74.5 -2 t-99.5 -4l10 170l-156 -152q-47 -47 -131 -47q-319 0 -319 322v366q0 90 -8.5 116t-45.5 28zM268 1317q0 57 40 97t97.5 40t97.5 -40t40 -97t-40 -97t-97.5 -40t-97.5 40t-40 97zM709 1317q0 57 39.5 97t97 40t97.5 -40t40 -97t-40 -97t-97.5 -40t-97 40t-39.5 97z" />
<glyph unicode="&#xfd;" horiz-adv-x="1138" d="M20 862v78q270 -6 273 -6l270 6v-78l-71 -4q-53 -4 -54 -47q0 -20 35 -109l172 -446l207 516q8 23 8 47q0 35 -55 39l-68 4v78l191 -6l190 6v-78l-53 -10q-47 -10 -84 -96l-408 -949q-23 -49 -32 -69.5t-46.5 -86t-71.5 -99t-91.5 -65.5t-118.5 -32q-74 0 -150 35l37 195 l23 8q63 -76 147 -76q55 0 103.5 54.5t81.5 131.5l47 115l-324 827q-43 111 -86 113zM455 1077l264 303q37 39 64.5 57.5t70.5 18.5q41 0 64.5 -25.5t23.5 -64.5q0 -16 -5 -30.5t-9 -23.5t-20.5 -21.5t-19.5 -15.5t-25.5 -17.5t-24.5 -14.5l-269 -166h-114z" />
<glyph unicode="&#xfe;" horiz-adv-x="1251" d="M35 1313v73q162 18 248 44l147 45l16 -13v-678l125 101q100 80 213 80q162 0 265.5 -108.5t103.5 -272.5q0 -117 -47 -236q-47 -123 -150 -201q-150 -113 -159 -118q-100 -63 -168 -64q-66 0 -183 35v-317q0 -70 9 -97q10 -33 65 -35l92 -4v-75q-25 0 -131 3t-166 3 l-264 -6v75l72 4q57 6 65 35q8 27 9 97v1480q0 90 -8.5 116t-45.5 28zM446 217q74 -113 209 -113q88 0 145.5 60.5t76 135.5t18.5 163q0 135 -63.5 226t-192.5 91q-57 0 -111.5 -27.5t-81.5 -74.5v-461z" />
<glyph unicode="&#xff;" horiz-adv-x="1138" d="M20 862v78q270 -6 273 -6l270 6v-78l-71 -4q-53 -4 -54 -47q0 -20 35 -109l172 -446l207 516q8 23 8 47q0 35 -55 39l-68 4v78l191 -6l190 6v-78l-53 -10q-47 -10 -84 -96l-408 -949q-23 -49 -32 -69.5t-46.5 -86t-71.5 -99t-91.5 -65.5t-118.5 -32q-74 0 -150 35l37 195 l23 8q63 -76 147 -76q55 0 103.5 54.5t81.5 131.5l47 115l-324 827q-43 111 -86 113zM238 1317q0 57 39.5 97t97 40t97.5 -40t40 -97t-40 -97t-97.5 -40t-97 40t-39.5 97zM678 1317q0 57 40 97t97 40t97 -40t40 -97t-40 -97t-97 -40t-97 40t-40 97z" />
<glyph unicode="&#x152;" horiz-adv-x="2048" d="M88 705q0 362 197.5 540t564.5 178q35 0 223 -20q143 -14 162 -14q98 0 448 6q20 0 56.5 1t52.5 1q106 0 190 -8l13 -15l-29 -291h-74l-16 154q-6 39 -236 39q-133 0 -262 -6v-492q47 -4 138 -4h135q61 0 87.5 8.5t28.5 34.5l13 117h82q0 -25 -2 -69t-3.5 -80.5 t-1.5 -69.5l7 -221h-82l-13 102q-8 76 -116 76h-135q-66 0 -138 -6v-547q129 -6 262 -6q74 0 161 11t89 23l47 193h80l-22 -324l-10 -16q-109 -8 -314 -8q-139 0 -190 2q-29 0 -80 2t-93 3t-79 1q-121 0 -203 -12q-150 -23 -203 -23q-350 0 -542.5 195t-192.5 545zM395 729 q0 -121 21.5 -228.5t70 -205.5t140.5 -156.5t217 -58.5q145 0 246 74v1063q-129 92 -250 92q-127 0 -217.5 -44t-138.5 -127t-68.5 -182.5t-20.5 -226.5z" />
<glyph unicode="&#x153;" horiz-adv-x="1705" d="M98 461q0 240 129 372t373 132q221 0 346 -117q150 117 316 117q158 0 266 -94.5t108 -266.5v-106q-147 -41 -323 -41h-269q0 -154 85 -250t241 -96q100 0 221 71l25 -30l-45 -99q-166 -88 -328 -88q-219 0 -325 131q-129 -131 -361 -131q-227 0 -343 134.5t-116 361.5z M377 510q0 -446 225 -447q195 0 195 338q0 82 -4.5 138.5t-22.5 143.5t-66.5 135t-121.5 48q-55 0 -95.5 -24.5t-60.5 -58t-31.5 -87t-14.5 -93.5t-3 -93zM1032 565q18 0 54 -2t65 -3t53 -1l172 6q0 285 -168 285q-176 0 -176 -285z" />
<glyph unicode="&#x178;" horiz-adv-x="1366" d="M31 1274v76l325 73q76 -43 128.5 -110.5t105.5 -167.5l219 -416l385 660h158v-39l-361 -535q-51 -78 -108 -205v-334q0 -137 14 -165q12 -23 84 -29l76 -6v-82q-252 6 -318 6q-68 0 -319 -6v82l76 6q72 6 84 29q14 29 14 165v285q-43 100 -90 174l-207 334 q-41 63 -107 137q-61 68 -159 68zM391 1695.5q0 57.5 40 97.5t97.5 40t97.5 -40t40 -97.5t-40 -97t-97.5 -39.5t-97.5 39.5t-40 97zM831 1695.5q0 57.5 40 97.5t97.5 40t97.5 -40t40 -97.5t-40 -97t-97.5 -39.5t-97.5 39.5t-40 97z" />
<glyph unicode="&#x2c6;" horiz-adv-x="681" d="M-4 1036l248 359h190l252 -359h-117l-229 201l-231 -201h-113z" />
<glyph unicode="&#x2dc;" horiz-adv-x="681" d="M-33 1098q2 78 64.5 167t177.5 89q57 0 159.5 -49.5t151.5 -49.5q31 0 52.5 16.5t28.5 30t26 52.5h88q-61 -258 -248 -258q-59 0 -166 51q-102 49 -156 49q-70 0 -96 -98h-82z" />
<glyph unicode="&#x2000;" horiz-adv-x="946" />
<glyph unicode="&#x2001;" horiz-adv-x="1892" />
<glyph unicode="&#x2002;" horiz-adv-x="946" />
<glyph unicode="&#x2003;" horiz-adv-x="1892" />
<glyph unicode="&#x2004;" horiz-adv-x="630" />
<glyph unicode="&#x2005;" horiz-adv-x="473" />
<glyph unicode="&#x2006;" horiz-adv-x="315" />
<glyph unicode="&#x2007;" horiz-adv-x="315" />
<glyph unicode="&#x2008;" horiz-adv-x="235" />
<glyph unicode="&#x2009;" horiz-adv-x="376" />
<glyph unicode="&#x200a;" horiz-adv-x="104" />
<glyph unicode="&#x2010;" horiz-adv-x="681" d="M33 416q6 23 34.5 101.5t34.5 107.5h529l18 -21q-51 -119 -65 -205h-535z" />
<glyph unicode="&#x2011;" horiz-adv-x="681" d="M33 416q6 23 34.5 101.5t34.5 107.5h529l18 -21q-51 -119 -65 -205h-535z" />
<glyph unicode="&#x2012;" horiz-adv-x="681" d="M33 416q6 23 34.5 101.5t34.5 107.5h529l18 -21q-51 -119 -65 -205h-535z" />
<glyph unicode="&#x2013;" d="M0 426v170h1024v-170h-1024z" />
<glyph unicode="&#x2014;" horiz-adv-x="2048" d="M0 426v170h2048v-170h-2048z" />
<glyph unicode="&#x2018;" horiz-adv-x="569" d="M59 856q96 219 287 512l135 55l29 -32q-117 -256 -152 -494q-152 -16 -270 -68z" />
<glyph unicode="&#x2019;" horiz-adv-x="569" d="M59 862q117 256 152 494q152 16 270 67l29 -26q-96 -219 -287 -512l-135 -56z" />
<glyph unicode="&#x201a;" horiz-adv-x="681" d="M115 -295q117 256 151 494q152 16 271 67l28 -26q-96 -219 -286 -512l-136 -56z" />
<glyph unicode="&#x201c;" d="M70 856q96 219 286 512l136 55l28 -32q-117 -256 -151 -494q-152 -16 -271 -68zM504 856q96 219 287 512l135 55l28 -32q-117 -256 -151 -494q-152 -16 -271 -68z" />
<glyph unicode="&#x201d;" d="M70 862q117 256 151 494q152 16 271 67l28 -26q-96 -219 -287 -512l-135 -56zM504 862q117 256 151 494q152 16 271 67l28 -26q-96 -219 -286 -512l-136 -56z" />
<glyph unicode="&#x201e;" d="M70 -295q117 256 151 494q152 16 271 67l28 -26q-96 -219 -287 -512l-135 -56zM504 -295q117 256 151 494q152 16 271 67l28 -26q-96 -219 -286 -512l-136 -56z" />
<glyph unicode="&#x2022;" horiz-adv-x="1241" d="M268 704.5q0 143.5 103.5 248t249 104.5t249 -104.5t103.5 -248t-103.5 -248t-249 -104.5t-249 104.5t-103.5 248z" />
<glyph unicode="&#x2026;" horiz-adv-x="2048" d="M182 131q0 66 48.5 115t112 49t111.5 -49t48 -115q0 -59 -48 -107.5t-111.5 -48.5t-112 46.5t-48.5 109.5zM864 131q0 66 48.5 115t111.5 49t111.5 -49t48.5 -115q0 -59 -48.5 -107.5t-111.5 -48.5t-111.5 46.5t-48.5 109.5zM1546 131q0 66 48 115t111.5 49t112 -49 t48.5 -115q0 -59 -48.5 -107.5t-112 -48.5t-111.5 46.5t-48 109.5z" />
<glyph unicode="&#x202f;" horiz-adv-x="376" />
<glyph unicode="&#x2039;" horiz-adv-x="796" d="M168 473v51q274 240 405 373l56 -45l-226 -354l226 -367l-56 -41q-262 266 -405 383z" />
<glyph unicode="&#x203a;" horiz-adv-x="796" d="M168 131l225 367l-225 354l55 45q131 -133 406 -373v-51q-143 -117 -406 -383z" />
<glyph unicode="&#x205f;" horiz-adv-x="473" />
<glyph unicode="&#x20ac;" d="M31 465l18 82h88q-4 70 -4 108q0 49 2 74h-104l18 82h94q35 227 154 365q150 176 385 176q180 0 313 -82l13 -21q-12 -45 -43 -278h-76l-12 143q-8 61 -63.5 98t-135.5 37q-125 0 -200 -120.5t-93 -317.5h469l-18 -82h-457v-43q0 -82 8 -139h410l-19 -82h-379 q37 -178 128 -278.5t218 -100.5q61 0 127 25.5t107 68.5l22 -24l-38 -95q-98 -96 -285 -96q-205 0 -345 132t-183 368h-119z" />
<glyph unicode="&#x2122;" horiz-adv-x="2043" d="M78 1180v209h751v-209h-61q-2 82 -34 112.5t-116 30.5h-90v-635q0 -74 123 -74v-53h-403v53q131 0 131 93v616h-90q-84 0 -116 -30.5t-34 -112.5h-61zM926 561v53q45 2 62.5 5.5t28.5 17.5t11 47v610q0 27 -9 36t-46 9h-31v50h270l242 -572l242 572h272v-50h-39 q-41 0 -51 -13t-10 -50v-10v-551q0 -63 15 -80t85 -21v-53h-354v53q70 2 87 17.5t17 81.5v569h-4l-293 -721h-20l-305 721h-4v-602q0 -31 13 -45t29.5 -16.5t59.5 -4.5v-53h-268z" />
<glyph unicode="&#xe000;" horiz-adv-x="965" d="M0 965h965v-965h-965v965z" />
<glyph unicode="&#xfb01;" horiz-adv-x="1251" d="M20 -6v76l84 4q68 4 78 35q8 27 8 96v557l-161 -10v49q92 43 161 92v88q0 123 18.5 170t94.5 111l152 127q66 55 105.5 70.5t86.5 15.5q41 0 84 -13v-198l-33 -15q-78 49 -129 49q-37 0 -62.5 -10t-37.5 -24.5t-19.5 -43t-8.5 -49t-1 -61.5v-221h228q139 0 241 31l148 45 l16 -2v-758q0 -70 8 -96q8 -29 66 -35l72 -4v-76q-264 6 -277 6l-264 -6v76l72 4q57 6 65 35q8 27 8 96v463q0 72 -18.5 102.5t-59.5 30.5h-63l-14 -39h-228v-557q0 -70 9 -96q10 -33 73 -35l72 -4v-76q-33 0 -89 2t-103.5 3t-92.5 1q-51 0 -151.5 -3t-137.5 -3zM813 1290 q0 68 44 112t109.5 44t109.5 -44t44 -112q0 -61 -46 -106t-107.5 -45t-107.5 45t-46 106z" />
<glyph unicode="&#xfb02;" horiz-adv-x="1251" d="M35 -6v76l84 4q68 4 78 35q8 27 8 96v557l-162 -10v49q92 43 162 92v88q0 123 18.5 170t93.5 111l152 127q104 86 180 86q12 0 62 -7v-75q156 23 217 41l125 41l16 -13v-1257q0 -70 8 -96q8 -29 66 -35l71 -4v-76q-264 6 -276 6l-264 -6v76l71 4q57 6 66 35q8 27 8 96 v958q0 90 -8 115t-45 29l-55 6v-68l-31 -8q-16 23 -49 42t-64 19q-66 0 -89 -48t-23 -140v-221q84 0 247 8l9 -16l-23 -119h-233v-557q0 -70 8 -96.5t94 -34.5l51 -4v-76q-33 0 -89 2t-103 3t-92 1q-51 0 -151.5 -3t-137.5 -3z" />
<glyph unicode="&#xfb03;" horiz-adv-x="2275" d="M1663 -6v76l71 4q57 6 66 35q8 27 8 96v448q0 90 -8 116t-45 28l-92 6v74q166 23 231 43l143 45l21 -13v-747q0 -70 8 -96q8 -29 66 -35l71 -4v-76q-264 6 -276 6zM1771 1290q0 68 44 112t109.5 44t109.5 -44t44 -112q0 -61 -46 -106t-107.5 -45t-107.5 45t-46 106z M867 -6v76l84 4q68 4 77 35q8 27 9 96v557l-162 -10v49q92 43 162 92v88q0 123 18 170t94 111l152 127q66 55 105.5 70.5t86.5 15.5q41 0 84 -13v-198l-32 -15q-78 49 -130 49q-37 0 -62.5 -10t-37.5 -24.5t-19 -43t-8.5 -49t-1.5 -61.5v-221q104 0 269 8l8 -16l-23 -119 h-254v-557q0 -70 9 -96q10 -31 94 -35l92 -4v-76q-53 0 -160.5 3t-165.5 3q-51 0 -151 -3t-137 -3zM70 -6v76l84 4q68 4 77 35q8 27 9 96v557l-162 -10v49q92 43 162 92v88q0 123 18 170t94 111l152 127q66 55 105.5 70.5t86.5 15.5q41 0 84 -13v-198l-32 -15 q-78 49 -130 49q-37 0 -62.5 -10t-37.5 -24.5t-19 -43t-8.5 -49t-1.5 -61.5v-221q104 0 269 8l8 -16l-23 -119h-254v-557q0 -70 9 -96q10 -31 94 -35l92 -4v-76q-53 0 -160.5 3t-165.5 3q-51 0 -151 -3t-137 -3z" />
<glyph unicode="&#xfb04;" horiz-adv-x="2275" d="M1642 1313v73q162 18 248 44l147 45l17 -13v-1257q0 -70 8 -96q8 -29 66 -35l71 -4v-76q-264 6 -276 6l-264 -6v76l71 4q57 6 66 35q8 27 8 96v958q0 90 -8 116t-45 28zM867 -6v76l84 4q68 4 77 35q8 27 9 96v557l-162 -10v49q92 43 162 92v88q0 123 18 170t94 111 l152 127q66 55 105.5 70.5t86.5 15.5q41 0 84 -13v-198l-32 -15q-78 49 -130 49q-37 0 -62.5 -10t-37.5 -24.5t-19 -43t-8.5 -49t-1.5 -61.5v-221q104 0 269 8l8 -16l-23 -119h-254v-557q0 -70 9 -96q10 -31 94 -35l92 -4v-76q-53 0 -160.5 3t-165.5 3q-51 0 -151 -3 t-137 -3zM70 -6v76l84 4q68 4 77 35q8 27 9 96v557l-162 -10v49q92 43 162 92v88q0 123 18 170t94 111l152 127q66 55 105.5 70.5t86.5 15.5q41 0 84 -13v-198l-32 -15q-78 49 -130 49q-37 0 -62.5 -10t-37.5 -24.5t-19 -43t-8.5 -49t-1.5 -61.5v-221q104 0 269 8l8 -16 l-23 -119h-254v-557q0 -70 9 -96q10 -31 94 -35l92 -4v-76q-53 0 -160.5 3t-165.5 3q-51 0 -151 -3t-137 -3z" />
</font>
</defs>
</svg>
