<?xml version="1.0" standalone="no"?>
<!DOCTYPE svg PUBLIC "-//W3C//DTD SVG 1.1//EN" "http://www.w3.org/Graphics/SVG/1.1/DTD/svg11.dtd" >
<svg xmlns="http://www.w3.org/2000/svg">
<metadata>
This is a custom SVG webfont generated by Font Squirrel.
Copyright   : Copyright  1990 2002 Adobe Systems Incorporated All Rights Reserved   Copyright 1989 1990 2002 The Monotype Corporation Plc All Rights Reserved
Designer    : Unknown
Foundry URL : httpwwwadobecomtype
</metadata>
<defs>
<font id="RockwellStdItalic" horiz-adv-x="1087" >
<font-face units-per-em="2048" ascent="1391" descent="-657" />
<missing-glyph horiz-adv-x="512" />
<glyph unicode=" "  horiz-adv-x="512" />
<glyph unicode="&#x09;" horiz-adv-x="512" />
<glyph unicode="&#xa0;" horiz-adv-x="512" />
<glyph unicode="!" horiz-adv-x="575" d="M90 0l55 236h242l-55 -236h-242zM250 371l90 587l100 433h193l-92 -400l-191 -620h-100z" />
<glyph unicode="&#x22;" horiz-adv-x="854" d="M303 1151v240h164v-240l-29 -283h-106zM717 1151v240h164v-240l-29 -283h-107z" />
<glyph unicode="#" horiz-adv-x="1368" d="M170 385v135h217l72 357h-289v135h319l82 401h148l-82 -401h397l82 401h148l-82 -401h184v-135h-217l-70 -357h287v-135h-317l-84 -401h-146l82 401h-397l-84 -401h-146l82 401h-186zM532 520h400l72 357h-400z" />
<glyph unicode="$" horiz-adv-x="980" d="M82 412h174q-20 -100 14.5 -168t100.5 -97l114 498q-102 66 -158.5 158t-56.5 192q0 166 106.5 272.5t278.5 112.5l9 35h135l-11 -49q121 -27 195 -133.5t21 -261.5h-160q33 111 2 174t-90 84l-111 -479q260 -158 260 -369q0 -172 -126 -286.5t-310 -110.5l-37 -160h-135 l41 176q-129 33 -209 142.5t-47 269.5zM434 1024q0 -106 96 -188l93 399q-86 -10 -137.5 -67.5t-51.5 -143.5zM502 129q100 10 164.5 77.5t64.5 158.5q0 115 -129 198z" />
<glyph unicode="%" horiz-adv-x="2048" d="M334 0l1427 1391h133l-1427 -1391h-133zM344 956q0 68 19.5 143t60.5 147.5t117.5 119.5t175.5 47q121 0 187.5 -73.5t66.5 -211.5q0 -57 -13.5 -117.5t-42 -121t-70.5 -107.5t-105.5 -75.5t-139.5 -28.5q-123 0 -189.5 72.5t-66.5 205.5zM489 952q0 -74 34 -117.5 t91 -43.5q94 0 152.5 111.5t58.5 252.5q0 66 -33.5 105.5t-91.5 39.5q-96 0 -153.5 -122t-57.5 -226zM1247 250q0 68 19.5 142.5t60.5 147t118 120t175 47.5q121 0 187.5 -74t66.5 -211q0 -57 -13.5 -117.5t-42 -121t-70.5 -107.5t-105.5 -76t-139.5 -29q-123 0 -189.5 73 t-66.5 206zM1393 246q0 -74 33.5 -118t91.5 -44q94 0 152.5 111.5t58.5 253.5q0 66 -34 105.5t-91 39.5q-96 0 -153.5 -122t-57.5 -226z" />
<glyph unicode="&#x26;" horiz-adv-x="1280" d="M63 373q0 326 396 506q-57 131 -58 227q0 131 91.5 219t226.5 88q127 0 207 -69.5t80 -180.5q0 -215 -326 -360l199 -416q115 135 184 332h254l-39 -162h-113q-98 -213 -215 -324l39 -71h199l-37 -162h-272l-56 111q-164 -133 -356 -134q-182 0 -293 109t-111 287z M262 397q0 -109 70.5 -181.5t177.5 -72.5q129 0 246 111l-228 475q-129 -59 -197.5 -145.5t-68.5 -186.5zM580 1102q0 -63 36 -160q213 90 213 217q0 51 -29.5 81t-78.5 30q-63 0 -102 -46t-39 -122z" />
<glyph unicode="'" horiz-adv-x="448" d="M307 1151v240h164v-240l-29 -283h-106z" />
<glyph unicode="(" horiz-adv-x="768" d="M186 319q0 172 43 334t131.5 314.5t245 270.5t365.5 175l-31 -131q-162 -59 -276 -174q-150 -150 -224.5 -404.5t-74.5 -472.5q0 -315 208 -536l-30 -137q-168 109 -262.5 309t-94.5 452z" />
<glyph unicode=")" horiz-adv-x="768" d="M-106 -442l30 131q162 59 277 174q150 150 224.5 404.5t74.5 471.5q0 315 -209 537l31 137q168 -109 262 -309.5t94 -452.5q0 -172 -43 -333.5t-131 -314.5t-244.5 -270.5t-365.5 -174.5z" />
<glyph unicode="*" horiz-adv-x="1067" d="M190 1010l97 176l153 -53q66 -90 183 -136q29 152 -2 246l38 170h183l-39 -170q-90 -109 -121 -246q152 51 244 136l182 53l14 -176l-176 -56q-55 8 -130 2t-120 -18q63 -119 150 -158l67 -141l-172 -107l-69 142q8 57 -5.5 123.5t-35.5 107.5q-96 -102 -142 -231 l-141 -142l-123 107l133 141q96 35 226 158q-104 33 -242 16z" />
<glyph unicode="+" horiz-adv-x="1366" d="M221 590v158h469v469h158v-469h469v-158h-469v-469h-158v469h-469z" />
<glyph unicode="," horiz-adv-x="575" d="M16 -276l21 83q152 27 182 193h-125l56 236h241l-55 -236q-29 -117 -107 -195.5t-213 -80.5z" />
<glyph unicode="-" horiz-adv-x="788" d="M121 418l31 135h577l-31 -135h-577z" />
<glyph unicode="." horiz-adv-x="575" d="M92 0l55 236h242l-55 -236h-242z" />
<glyph unicode="/" horiz-adv-x="897" d="M92 -23l711 1414h166l-711 -1414h-166z" />
<glyph unicode="0" d="M150 408q0 104 22.5 231t71.5 265t118.5 251t175 186.5t228.5 73.5q162 0 252 -117.5t90 -324.5q0 -133 -38 -296t-108.5 -323.5t-193.5 -268.5t-270 -108q-158 0 -253 118t-95 313zM326 381q0 -256 176 -256q86 0 160 74q100 100 186 358t86 467q0 244 -180 244 q-90 0 -156 -66q-96 -96 -184 -356t-88 -465z" />
<glyph unicode="1" d="M231 0l37 162h160l248 1067h-160l37 162h342l-285 -1229h146l-37 -162h-488z" />
<glyph unicode="2" d="M68 0q23 133 81 247.5t130.5 193.5t156.5 148.5t162 127t142.5 115t103.5 127t39 147.5q0 70 -45 116t-115 46q-117 0 -199 -121t-106 -273h-174q45 260 173 400.5t314 140.5q150 0 242 -88t92 -229q0 -106 -43 -196.5t-111.5 -150t-156.5 -126t-171 -125t-163 -147.5 t-127 -191h418l73 317h166l-110 -479h-772z" />
<glyph unicode="3" d="M129 459h174q-23 -154 35.5 -244t181.5 -90q121 0 202 87t81 216q0 117 -84 175.5t-227 45.5l34 152q121 0 204 29.5t120 76.5t51 90t14 90q0 84 -50 132.5t-136 48.5q-184 0 -256 -250h-170q37 184 153.5 290.5t280.5 106.5q160 0 260.5 -91t100.5 -237q0 -139 -81 -236 t-226 -132v-4q201 -78 200 -291q0 -193 -130 -320t-341 -127q-199 0 -313.5 131.5t-77.5 350.5z" />
<glyph unicode="4" d="M94 545l799 858h151l-204 -885h209l-31 -135h-209l-51 -221h127l-37 -162h-436l37 162h126l52 221h-477q-3 84 -56 162zM250 518h407l136 580l-5 4z" />
<glyph unicode="5" d="M145 442h177q-35 -145 18 -231t160 -86q78 0 143.5 47t102 116.5t56 138.5t19.5 120q0 90 -52 145.5t-136 55.5q-115 0 -217 -109q-49 55 -117 90l164 662h682l-82 -353h-166l43 183h-371l-88 -379q94 59 191 59q143 0 235 -104.5t92 -266.5q0 -86 -29.5 -177t-86 -178 t-158.5 -142.5t-229 -55.5q-195 0 -294.5 135t-56.5 330z" />
<glyph unicode="6" d="M201 414q0 68 16 177t59 256.5t108 271.5t174.5 211t244.5 87q164 0 262 -109.5t63 -312.5h-155q29 125 -16.5 199t-145.5 74q-246 0 -362 -480l4 -4q88 86 206 86q143 0 241.5 -103t98.5 -273q0 -233 -128 -375t-316 -142q-164 0 -259 118t-95 319zM379 373 q0 -119 49 -183.5t139 -64.5q125 0 193.5 120t68.5 244q0 102 -58 168t-146 66q-137 0 -230 -164q-16 -86 -16 -186z" />
<glyph unicode="7" d="M193 0l36 162h140q74 262 234.5 548.5t346.5 510.5h-497l-43 -181h-166l82 351h864l-35 -152q-182 -227 -354 -535.5t-238 -541.5h142l-37 -162h-475z" />
<glyph unicode="8" d="M133 330q0 150 82 261t227 163q-121 92 -120 241q0 180 119.5 300t301.5 120q160 0 255.5 -91t95.5 -243q0 -139 -70 -238.5t-195 -137.5q145 -84 146 -271q0 -193 -136.5 -325t-332.5 -132q-168 0 -270.5 97.5t-102.5 255.5zM322 313q0 -84 53 -136t141 -52 q115 0 196 95t81 231q0 90 -56.5 144t-148.5 54q-94 0 -158.5 -61.5t-86 -133t-21.5 -141.5zM492 991q0 -92 47 -143t131 -51q102 0 177 85t75 201q0 84 -51.5 134.5t-133.5 50.5q-115 0 -180 -87.5t-65 -189.5z" />
<glyph unicode="9" d="M143 401h160q-27 -125 17.5 -200.5t142.5 -75.5q121 0 208 115.5t158 363.5l-4 4q-100 -82 -202 -82q-154 0 -251.5 106.5t-97.5 280.5q0 201 125 351.5t318 150.5q164 0 261 -116.5t97 -321.5q0 -43 -10 -121t-32.5 -195.5t-70 -233.5t-109.5 -219.5t-162.5 -167 t-221.5 -63.5q-164 0 -265.5 112.5t-60.5 311.5zM442 911q0 -102 54.5 -169.5t144.5 -67.5q145 0 240 166q20 115 16 210t-51 156.5t-133 61.5q-127 0 -199 -109t-72 -248z" />
<glyph unicode=":" horiz-adv-x="575" d="M92 0l55 236h242l-55 -236h-242zM260 731l55 236h242l-55 -236h-242z" />
<glyph unicode=";" horiz-adv-x="575" d="M16 -276l21 83q152 27 182 193h-125l56 236h241l-55 -236q-29 -117 -107 -195.5t-213 -80.5zM260 731l55 236h242l-55 -236h-242z" />
<glyph unicode="&#x3c;" horiz-adv-x="1366" d="M135 596v143l1096 461v-172l-883 -360l883 -361v-170z" />
<glyph unicode="=" horiz-adv-x="1366" d="M221 354v158h1096v-158h-1096zM221 827v158h1096v-158h-1096z" />
<glyph unicode="&#x3e;" horiz-adv-x="1366" d="M135 137v170l883 361l-883 360v170l1096 -459v-143z" />
<glyph unicode="?" horiz-adv-x="937" d="M168 0l55 236h242l-55 -236h-242zM236 1061q41 174 148.5 264t272.5 90q152 0 240 -87t88 -236q0 -193 -137 -331t-340 -118l-90 -274h-96l84 428q111 -25 186.5 -7.5t123.5 71.5t69.5 111.5t21.5 110.5q0 80 -48 127t-130 47q-178 0 -242 -196h-151z" />
<glyph unicode="@" horiz-adv-x="2068" d="M193 469q0 129 30.5 263t104 273.5t183.5 246t284 175t389 68.5q385 0 619.5 -228.5t234.5 -553.5q0 -270 -181.5 -493.5t-422.5 -223.5q-190 0 -191 166q-141 -164 -305 -164q-156 0 -260.5 128t-104.5 320q0 242 161 439.5t360 197.5q190 0 301 -184l35 156h180 l-174 -805q-8 -35 14.5 -60.5t52.5 -25.5q37 0 98.5 36t128 100.5t113.5 176t47 240.5q0 270 -203.5 449.5t-510.5 179.5q-360 0 -598 -245t-238 -618q0 -354 220 -560t642 -206q485 0 705 301h186q-143 -217 -356 -332.5t-533 -115.5q-252 0 -447.5 68.5t-317.5 191.5 t-184 284.5t-62 354.5zM762 430q0 -121 61.5 -203t153.5 -82q139 0 249.5 156t110.5 348q0 129 -63.5 208t-165.5 79q-84 0 -153.5 -55.5t-109.5 -138.5t-61.5 -164.5t-21.5 -147.5z" />
<glyph unicode="A" horiz-adv-x="1323" d="M-82 0l37 162h129l600 1067h-152l39 162h676l-37 -162h-137l115 -1067h149l-39 -162h-512l37 162h166l-31 325h-487l-172 -325h150l-37 -162h-494zM561 649h383l-49 580h-37z" />
<glyph unicode="B" horiz-adv-x="1153" d="M18 0l39 162h115l246 1067h-127l37 162h399q141 0 227 -21.5t148 -83.5q35 -35 58.5 -96.5t23.5 -122.5q0 -137 -81 -228t-231 -122v-4q98 -39 153.5 -120t55.5 -187q0 -70 -25.5 -137.5t-79.5 -130t-154.5 -100.5t-233.5 -38h-570zM373 162h110h127q129 0 199 75.5 t70 192.5q0 111 -62.5 163t-163.5 52h-170zM520 807h174q160 0 226.5 71.5t66.5 172.5q0 178 -199 178h-170z" />
<glyph unicode="C" horiz-adv-x="1472" d="M162 575q0 154 63.5 303.5t175 268.5t280.5 192.5t366 73.5q135 0 224 -31.5t175 -109.5l29 119h165l-88 -383h-166q-51 236 -356 235q-186 0 -340.5 -103.5t-236.5 -260t-82 -326.5q0 -174 116.5 -290t292.5 -116q260 0 490 267l135 -121q-256 -315 -641 -316 q-150 0 -268.5 50.5t-189 136.5t-107.5 190t-37 221z" />
<glyph unicode="D" horiz-adv-x="1449" d="M18 0l37 162h115l246 1067h-137l36 162h473q172 0 303.5 -48.5t207 -132.5t112.5 -183t37 -214q0 -152 -59.5 -313.5t-167.5 -270.5q-133 -133 -311.5 -181t-444.5 -48h-447zM371 162h147q188 0 307 35.5t203 119.5q94 94 149.5 229.5t55.5 276.5q0 174 -106.5 290 t-335.5 116h-175z" />
<glyph unicode="E" horiz-adv-x="1173" d="M2 0l37 162h127l248 1067h-127l37 162h1001l-96 -418h-166l59 256h-508l-100 -430h436l-37 -162h-436l-110 -475h518l61 266h166l-98 -428h-1012z" />
<glyph unicode="F" horiz-adv-x="1067" d="M-39 0l37 162h127l246 1067h-127l39 162h991l-98 -418h-166l59 256h-498l-98 -426h424l-37 -162h-424l-110 -479h149l-37 -162h-477z" />
<glyph unicode="G" horiz-adv-x="1599" d="M170 573q0 106 35 220t108.5 225.5t178 199t257 141.5t328.5 54q147 0 247.5 -37t182.5 -121l33 136h166l-88 -375h-166q-90 231 -389 231q-285 0 -485.5 -201.5t-200.5 -486.5q0 -190 113.5 -301t310.5 -111q176 0 312 95.5t200 263.5h-293l37 162h518 q-37 -182 -121 -320.5t-193.5 -216.5t-228.5 -116t-244 -38q-272 0 -445 167t-173 429z" />
<glyph unicode="H" horiz-adv-x="1386" d="M6 0l39 162h121l246 1067h-138l37 162h465l-37 -162h-127l-96 -418h582l96 418h-127l37 162h428l-37 -162h-100l-246 -1067h127l-39 -162h-455l39 162h127l111 487h-580l-112 -487h127l-39 -162h-449z" />
<glyph unicode="I" horiz-adv-x="598" d="M18 0l39 162h115l246 1067h-115l37 162h424l-37 -162h-109l-245 -1067h127l-39 -162h-443z" />
<glyph unicode="J" horiz-adv-x="598" d="M-193 -436l43 186q158 0 230 88t119 297l254 1094h-115l37 162h430l-37 -162h-115l-239 -1041q-84 -354 -212.5 -488t-394.5 -136z" />
<glyph unicode="K" horiz-adv-x="1216" d="M4 0l39 162h127l246 1067h-127l37 162h465l-37 -162h-138l-245 -1067h127l-39 -162h-455zM514 725l580 504h-152l39 162h475l-37 -162h-94l-584 -514l338 -553h115l-37 -162h-463l37 162h127z" />
<glyph unicode="L" horiz-adv-x="1003" d="M-10 0l37 162h137l248 1067h-138l37 162h488l-37 -162h-150l-247 -1067h460l97 413h165l-133 -575h-964z" />
<glyph unicode="M" horiz-adv-x="1705" d="M8 0l37 162h121l248 1067h-121l37 162h405l135 -963h4l584 963h424l-37 -162h-127l-248 -1067h138l-37 -162h-430l37 162h127l247 1063l-4 4l-749 -1229h-41l-176 1229h-4l-246 -1067h114l-36 -162h-402z" />
<glyph unicode="N" horiz-adv-x="1429" d="M-6 0l37 162h137l248 1067h-150l37 162h402l358 -1106h4l217 944h-137l37 162h440l-37 -162h-137l-287 -1241h-202l-388 1202h-4l-235 -1028h127l-37 -162h-430z" />
<glyph unicode="O" horiz-adv-x="1599" d="M174 545q0 150 55.5 301t157.5 279t265 208t360 80q270 0 428.5 -152.5t158.5 -412.5q0 -147 -56 -298t-158.5 -280t-267.5 -211t-359 -82q-289 0 -436.5 164t-147.5 404zM385 537q0 -174 106.5 -282t276.5 -108q121 0 226.5 49.5t175 127t120.5 174t75 189.5t24 175 q0 168 -107.5 274.5t-277.5 106.5q-178 0 -325 -111.5t-220.5 -271t-73.5 -323.5z" />
<glyph unicode="P" horiz-adv-x="1110" d="M4 0l37 162h127l248 1067h-129l39 162h456q219 0 327 -115t108 -272q0 -207 -133.5 -340.5t-444.5 -133.5h-184l-86 -368h161l-36 -162h-490zM492 692h196q94 0 162 30t102.5 79t50 100t15.5 107q0 96 -57.5 158.5t-190.5 62.5h-156z" />
<glyph unicode="Q" horiz-adv-x="1599" d="M174 549q0 150 56.5 300t157.5 277t265 207t359 80q270 0 428.5 -152.5t158.5 -410.5q0 -193 -89 -380t-253.5 -321.5t-363.5 -160.5v-2q37 -12 87 -30.5t71.5 -26t68.5 -18.5q40 -10 68 -10q5 0 10 1q31 2 100 2l-122 -166q-24 -4 -49 -4q-55 0 -112 19 q-83 28 -144.5 69t-146.5 75.5t-165 34.5q-102 0 -176 -53l-45 70q55 55 149 76v4q-313 145 -313 520zM385 539q0 -174 106.5 -281.5t276.5 -107.5q123 0 228.5 50t176 129t120.5 175t73 188t23 170q0 168 -107.5 274.5t-277.5 106.5q-139 0 -260 -67.5t-197 -172t-119 -227 t-43 -237.5z" />
<glyph unicode="R" horiz-adv-x="1193" d="M14 0l37 162h115l246 1067h-127l37 162h532q195 0 289 -91.5t94 -240.5q0 -160 -98.5 -264.5t-272.5 -126.5l121 -506h150l-37 -162h-269l-147 657h-203l-114 -495h127l-37 -162h-443zM518 819h230q150 0 218 64.5t68 167.5q0 178 -209 178h-213z" />
<glyph unicode="S" horiz-adv-x="1067" d="M41 0l88 383h166l-29 -125q111 -123 264 -123q109 0 181.5 61.5t72.5 153.5q0 66 -37.5 122t-94 94t-123 86t-123 95.5t-94.5 124t-38 168.5q0 166 115 269.5t299 103.5q178 0 295 -117l23 95h165l-88 -377h-165l24 106q-41 61 -111.5 98t-148.5 37q-100 0 -163.5 -54 t-63.5 -140q0 -74 53 -134.5t129 -108.5t151.5 -101t129 -138t53.5 -196q0 -180 -127 -293t-334 -113q-164 0 -287 97l-16 -74h-166z" />
<glyph unicode="T" horiz-adv-x="1193" d="M160 877l119 514h1130l-119 -514h-166l82 352h-299l-245 -1067h129l-37 -162h-457l37 162h127l246 1067h-299l-82 -352h-166z" />
<glyph unicode="U" horiz-adv-x="1300" d="M201 227q-6 34 -7 75q0 66 17 149l178 778h-127l39 162h455l-39 -162h-127l-189 -823q-10 -45 -10 -83q0 -81 49 -124q72 -63 183 -64q135 0 211.5 76t126.5 289l167 729h-120l39 162h436l-39 -162h-115l-166 -725q-66 -287 -168 -389q-137 -137 -385 -138 q-104 0 -186 25t-144.5 80t-78.5 145z" />
<glyph unicode="V" horiz-adv-x="1386" d="M205 1229l24 162h471l-24 -162h-129l45 -920h4l633 920h-166l24 162h500l-26 -162h-125l-861 -1243h-161l-60 1243h-149z" />
<glyph unicode="W" horiz-adv-x="2027" d="M197 1229l26 162h473l-26 -162h-138l19 -885h4l516 885h-156l33 162h555l-33 -162h-131l17 -885h4l512 885h-133l30 162h429l-33 -162h-101l-716 -1243h-172l-23 1046h-4l-604 -1046h-178l-25 1243h-145z" />
<glyph unicode="X" horiz-adv-x="1300" d="M-31 0l37 162h94l525 555l-185 512h-135l37 162h426l-39 -162h-104l129 -371l356 371h-137l39 162h432l-39 -162h-92l-498 -524l203 -543h115l-37 -162h-437l37 162h138l-148 401l-381 -401h137l-36 -162h-437z" />
<glyph unicode="Y" horiz-adv-x="1173" d="M162 1229l26 162h457l-24 -162h-138l160 -459l426 459h-162l27 162h481l-26 -162h-123l-557 -602l-107 -465h137l-37 -162h-475l37 162h137l107 465l-209 602h-137z" />
<glyph unicode="Z" horiz-adv-x="1153" d="M23 0l36 162l908 1067h-461l-60 -256h-165l96 418h878l-36 -162l-910 -1067h520l66 280h166l-103 -442h-935z" />
<glyph unicode="[" horiz-adv-x="641" d="M-35 -410l424 1801h418l-31 -136h-244l-352 -1529h244l-31 -136h-428z" />
<glyph unicode="\" horiz-adv-x="897" d="M92 1391h166l711 -1414h-166z" />
<glyph unicode="]" horiz-adv-x="641" d="M-98 -410l30 136h248l355 1529h-248l30 136h433l-424 -1801h-424z" />
<glyph unicode="^" horiz-adv-x="874" d="M27 674l432 717h131l426 -717h-176l-316 530l-321 -530h-176z" />
<glyph unicode="_" horiz-adv-x="1024" d="M-12 -154h1048v-102h-1048v102z" />
<glyph unicode="`" horiz-adv-x="681" d="M125 1411h356l164 -285h-139z" />
<glyph unicode="a" d="M100 264q0 145 118 241.5t294 96.5q133 0 270 -72l35 152q5 21 5 39q0 52 -39 84q-52 43 -136 43q-143 0 -237 -135l-152 67q66 100 179.5 157.5t244.5 57.5q164 0 257 -84q64 -57 64 -163q0 -49 -14 -109l-110 -477h125l-37 -162h-293l31 129l-5 4q-53 -66 -139 -107.5 t-168 -41.5q-123 0 -208 80.5t-85 199.5zM283 272q0 -63 46 -102t124 -39q117 0 266 123l33 145q-129 63 -228 64q-104 0 -172.5 -54.5t-68.5 -136.5z" />
<glyph unicode="b" horiz-adv-x="1259" d="M10 0l39 162h113l246 1067h-134l37 162h316l-125 -535l4 -4q145 143 330 143q174 0 281.5 -114.5t107.5 -300.5q0 -254 -155 -425t-384 -171q-209 0 -342 178l-39 -162h-295zM412 399q0 -117 68.5 -187.5t181.5 -70.5q156 0 268 126t112 302q0 121 -67.5 191.5 t-183.5 70.5q-119 0 -209 -73.5t-130 -169t-40 -189.5z" />
<glyph unicode="c" horiz-adv-x="1024" d="M102 373q0 248 162 435t375 187q164 0 268 -110l19 82h159l-67 -289h-160q-14 76 -74 125q-57 45 -143 45q-139 0 -241.5 -134t-102.5 -319q0 -127 65.5 -198.5t178.5 -71.5q80 0 141 39t125 129l133 -96q-170 -225 -426 -226q-180 0 -296 114t-116 288z" />
<glyph unicode="d" horiz-adv-x="1236" d="M111 414q0 233 160.5 407t375.5 174q207 0 340 -174l94 408h-145l37 162h327l-282 -1229h133l-37 -162h-315l26 115l-4 4q-125 -135 -317 -135q-176 0 -284.5 118.5t-108.5 311.5zM297 442q0 -158 72.5 -229.5t183.5 -71.5q145 0 256 133.5t111 309.5q0 115 -70 184.5 t-186 69.5q-109 0 -196 -70t-129 -159t-42 -167z" />
<glyph unicode="e" horiz-adv-x="1130" d="M111 401q0 236 169 415t392 179q225 0 340 -169q79 -117 79 -256q0 -62 -16 -130h-760q-9 -38 -9 -73q0 -82 50 -146q72 -92 193 -92q147 0 248 139l188 -80q-61 -100 -179 -158.5t-255 -58.5q-201 0 -320.5 117.5t-119.5 312.5zM352 575h551q6 25 6 50q0 71 -50 132 q-67 81 -183 81q-106 0 -191.5 -69t-132.5 -194z" />
<glyph unicode="f" horiz-adv-x="575" d="M14 0l39 162h111l147 643h-143l37 162h143l17 69q45 195 124.5 287t204.5 92q96 0 195 -61l-74 -125q-57 39 -104 39q-100 0 -133 -123l-48 -178h125l-37 -162h-124l-148 -643h135l-39 -162h-428z" />
<glyph unicode="g" horiz-adv-x="1236" d="M10 -293l99 135q154 -152 342 -151q156 0 243.5 95t141.5 323l-5 4q-135 -141 -319 -142q-174 0 -284.5 122t-110.5 310q0 229 162.5 404.5t375.5 175.5t340 -178l37 162h316l-37 -162h-135l-181 -776q-35 -150 -94 -250.5t-138 -149.5t-155 -67.5t-170 -18.5 q-278 0 -428 164zM303 414q0 -125 68.5 -202t183.5 -77q170 0 273.5 144.5t103.5 295.5q0 109 -73 179.5t-183 70.5q-152 0 -262.5 -121.5t-110.5 -289.5z" />
<glyph unicode="h" horiz-adv-x="1130" d="M0 0l39 162h121l246 1067h-121l37 162h303l-123 -537q184 129 315 129q119 0 183 -92q41 -59 42 -145q0 -49 -14 -107l-110 -477h143l-39 -162h-326l156 666q5 22 5 41q0 36 -17 64q-27 42 -88 42q-55 0 -116 -27.5t-175 -103.5l-119 -520h141l-39 -162h-444z" />
<glyph unicode="i" horiz-adv-x="575" d="M33 0l37 162h108l150 643h-131l36 162h314l-187 -805h140l-37 -162h-430zM414 1302.5q0 47.5 32.5 80t79.5 32.5t81 -32.5t34 -80t-34 -81t-81 -33.5t-79.5 33.5t-32.5 81z" />
<glyph unicode="j" horiz-adv-x="575" d="M-137 -424l35 150q17 -2 32 -2q82 0 131 46q59 54 93 193l194 842h-129l39 162h311l-211 -912q-27 -117 -41 -170t-44.5 -119.5t-71.5 -107.5q-93 -93 -235 -93q-48 0 -103 11zM426 1302.5q0 47.5 33 80t80 32.5t80.5 -32.5t33.5 -80t-33.5 -81t-80.5 -33.5t-80 33.5 t-33 81z" />
<glyph unicode="k" horiz-adv-x="1067" d="M14 0l37 162h115l248 1067h-135l36 162h318l-203 -875l422 303v4h-150l33 144h482l-33 -144h-99l-452 -329l219 -332h156l-37 -162h-219l-326 494l-78 -332h146l-37 -162h-443z" />
<glyph unicode="l" horiz-adv-x="575" d="M25 0l36 162h113l246 1067h-127l37 162h309l-283 -1229h129l-36 -162h-424z" />
<glyph unicode="m" horiz-adv-x="1728" d="M23 0l36 162h113l150 643h-123l37 162h305l-27 -117q186 133 330 133q76 0 133 -42t82 -118q205 160 356 160q102 0 167 -63.5t65 -163.5q0 -57 -33 -195l-92 -399h141l-37 -162h-323l147 635q9 37 9 67q0 39 -15 65q-27 46 -90 46q-111 0 -297 -133l-119 -518h143 l-37 -162h-325l151 655q6 26 6 49q0 42 -20 68q-31 41 -82 41q-94 0 -301 -133l-119 -518h142l-37 -162h-436z" />
<glyph unicode="n" horiz-adv-x="1130" d="M12 0l37 162h117l149 643h-127l39 162h308l-27 -111q184 127 313 127q121 0 184 -93q42 -62 41 -143q0 -40 -10 -83l-114 -502h141l-37 -162h-324l154 662q6 26 6 47q0 40 -20 65q-31 39 -80 39q-109 0 -293 -127l-121 -524h141l-36 -162h-441z" />
<glyph unicode="o" horiz-adv-x="1153" d="M111 385q0 256 172 433t419 177q193 0 306.5 -112.5t113.5 -302.5q0 -104 -37.5 -214t-99.5 -188q-78 -96 -198.5 -151.5t-251.5 -55.5q-193 0 -308.5 114t-115.5 300zM303 401q0 -119 71.5 -188.5t178.5 -69.5q158 0 267.5 127t109.5 310q0 111 -69.5 177t-184.5 66 q-160 0 -266.5 -134t-106.5 -288z" />
<glyph unicode="p" horiz-adv-x="1236" d="M-113 -434l37 162h119l248 1077h-135l37 162h319l-29 -117l4 -4q145 137 322 137q168 0 278.5 -124t110.5 -312q0 -236 -157.5 -406t-376.5 -170q-215 0 -342 168l-97 -411h148l-37 -162h-449zM387 391q0 -121 67.5 -191.5t180.5 -70.5q164 0 268.5 127t104.5 297 q0 121 -69 193.5t-183 72.5q-113 0 -201 -72.5t-128 -168t-40 -187.5z" />
<glyph unicode="q" horiz-adv-x="1236" d="M104 403q0 229 164 404.5t377 175.5q211 0 344 -178l37 162h307l-39 -162h-125l-247 -1077h125l-37 -162h-432l36 162h125l90 381l-4 4q-135 -141 -323 -142q-174 0 -286 122t-112 310zM297 403q0 -125 68.5 -199.5t181.5 -74.5q145 0 259 133t114 305q0 113 -71 182.5 t-185 69.5q-152 0 -259.5 -122t-107.5 -294z" />
<glyph unicode="r" horiz-adv-x="811" d="M0 0l37 162h127l147 643h-147l39 162h313l-63 -269l4 -4q168 289 426 289h51l-41 -178q-23 2 -45 2q-170 0 -278 -98q-122 -111 -164 -297l-60 -250h160l-37 -162h-469z" />
<glyph unicode="s" horiz-adv-x="874" d="M-2 0l61 270h166q0 -63 58 -102q59 -37 159 -37q82 0 133.5 35t51.5 90q0 53 -49.5 91t-120 64.5t-141 58.5t-120 92.5t-49.5 144.5q0 121 99.5 198.5t253.5 77.5q141 0 245 -84l15 68h166l-62 -269h-166q0 72 -63 107q-53 31 -137 31q-72 0 -120 -30t-48 -89 q0 -43 74.5 -84t180 -89t150.5 -93q72 -72 72 -191q0 -127 -101.5 -201.5t-285.5 -74.5q-174 0 -242 79l-14 -63h-166z" />
<glyph unicode="t" horiz-adv-x="598" d="M166 285l123 520h-111l37 162h111l45 194l221 172l-84 -366h135l-37 -162h-135l-127 -541q-9 -35 -8 -61q0 -61 47 -73q13 -3 28 -3q60 0 144 57l-39 -168q-90 -45 -176 -45q-100 0 -155 80q-33 49 -33 125q0 49 14 109z" />
<glyph unicode="u" horiz-adv-x="1130" d="M166 805l37 162h301l-150 -648q-9 -36 -8 -64q0 -39 16 -64q29 -42 89 -41q111 0 290 141l119 514h-141l37 162h323l-184 -805h121l-39 -162h-303l26 111q-174 -127 -315 -127q-104 0 -179 79q-50 53 -50 141q0 43 12 93l117 508h-119z" />
<glyph unicode="v" horiz-adv-x="980" d="M131 805l19 162h378l-18 -162h-107l33 -578h4l391 578h-129l37 162h389l-36 -162h-86l-557 -821h-166l-50 821h-102z" />
<glyph unicode="w" horiz-adv-x="1515" d="M127 805l27 162h358l-27 -162h-94l19 -569h4l364 569h-116l26 162h422l-27 -162h-110l20 -569h4l365 569h-109l25 162h362l-26 -162h-86l-520 -821h-158l-21 639h-4l-405 -639h-154l-30 821h-109z" />
<glyph unicode="x" horiz-adv-x="1044" d="M-61 0l34 156h88l388 350l-170 305h-101l37 156h360l-32 -144h-94l120 -215l244 215h-127l35 144h405l-36 -156h-80l-375 -326l180 -329h84l-35 -156h-366l32 145h117l-131 234l-262 -234h127l-33 -145h-409z" />
<glyph unicode="y" horiz-adv-x="1044" d="M-100 -434l37 162h186l190 278l-45 799h-100l18 162h381l-20 -162h-111l33 -567h4l391 567h-133l39 162h395l-39 -162h-90l-848 -1239h-288z" />
<glyph unicode="z" horiz-adv-x="854" d="M-27 0l39 164l666 661h-328l-45 -202h-160l78 344h707l-37 -164l-664 -656h359l47 207h153l-81 -354h-734z" />
<glyph unicode="{" horiz-adv-x="681" d="M139 401v156q123 0 166 79t43 224v174q0 172 61.5 264.5t225.5 92.5h84v-148h-31q-109 0 -141.5 -37t-32.5 -159v-138q0 -197 -43 -285.5t-166 -144.5q123 -55 166 -144t43 -286v-139q0 -123 33 -160t141 -37h31v-147h-84q-164 0 -225.5 92t-61.5 264v176q0 145 -43 224 t-166 79z" />
<glyph unicode="|" horiz-adv-x="1079" d="M543 -434v1825h157v-1825h-157z" />
<glyph unicode="}" horiz-adv-x="681" d="M127 -287h31q109 0 141.5 37t32.5 160v137q0 197 43 286t166 144q-123 55 -166 144.5t-43 285.5v140q0 123 -33 159.5t-141 36.5h-31v148h84q164 0 225.5 -92.5t61.5 -264.5v-176q0 -145 43 -224t166 -79v-156q-123 0 -166 -78.5t-43 -224.5v-174q0 -172 -61.5 -264 t-225.5 -92h-84v147z" />
<glyph unicode="~" horiz-adv-x="1193" d="M174 557v205q104 121 277 121q111 0 266 -68q164 -70 221 -70q135 0 262 140v-211q-68 -61 -133.5 -88t-146.5 -27q-98 0 -254 70q-152 68 -232 67q-68 0 -124 -29.5t-136 -109.5z" />
<glyph unicode="&#xa1;" horiz-adv-x="575" d="M18 -424l93 399l190 621h100l-90 -588l-100 -432h-193zM264 731l55 236h242l-55 -236h-242z" />
<glyph unicode="&#xa2;" horiz-adv-x="1024" d="M102 371q0 160 77 312.5t219.5 244.5t308.5 61l149 402h82l-156 -420q74 -31 125 -86l19 82h159l-69 -287h-160q-25 111 -127 154l-258 -703q184 -59 334 162l135 -96q-96 -131 -237.5 -188.5t-286.5 -26.5l-158 -424h-86l168 442q-111 47 -174.5 146.5t-63.5 224.5z M297 395q0 -158 102 -227l254 678q-156 2 -256 -133.5t-100 -317.5z" />
<glyph unicode="&#xa3;" horiz-adv-x="937" d="M63 152q0 82 50.5 136t126.5 54q70 0 151 -51q27 123 12 319h-245l35 150h188q-25 156 -25 223q0 195 109.5 313.5t288.5 118.5q168 0 248.5 -105.5t27.5 -277.5h-180q35 117 2 176.5t-111 59.5q-90 0 -146 -74t-56 -188q0 -29 5 -73t13 -97.5t10 -75.5h275l-35 -150 h-229q8 -205 -82 -389q80 -59 147 -59q55 0 93 39t71 129h123q-47 -180 -123 -266.5t-189 -86.5q-111 0 -206 111q-82 -111 -187 -111q-70 0 -116 49.5t-46 125.5zM152 152q0 -33 20.5 -53.5t50.5 -20.5q59 0 121 84q-61 72 -113 71q-35 0 -57 -23t-22 -58z" />
<glyph unicode="&#xa4;" horiz-adv-x="1366" d="M182 303l131 129q-86 137 -86 270q0 135 86 256l-131 132l107 106l129 -131q121 86 262 86q145 0 266 -86l131 131l105 -106l-129 -132q84 -125 84 -268q0 -141 -84 -258l129 -129l-105 -104l-131 129q-127 -88 -268 -88q-143 0 -260 88l-129 -129zM375 694 q0 -127 90 -217t217 -90t217 90t90 217t-90 218.5t-217 91.5t-217 -91.5t-90 -218.5z" />
<glyph unicode="&#xa5;" horiz-adv-x="1173" d="M51 510l21 117h436l-109 315h-284l20 117h223l-59 170h-137l24 162h455l-23 -162h-135l62 -170h366l158 170h-162l27 162h475l-18 -162h-125l-158 -170h233l-20 -117h-320l-296 -315h573l-21 -117h-573l-82 -348h137l-39 -162h-475l39 162h137l82 348h-432zM584 942 l59 -172l160 172h-219z" />
<glyph unicode="&#xa6;" horiz-adv-x="1079" d="M543 344h157v-778h-157v778zM543 612v779h157v-779h-157z" />
<glyph unicode="&#xa7;" horiz-adv-x="917" d="M10 -121l154 53q0 -109 68.5 -166t177.5 -57q90 0 147 44t57 114q0 63 -56 126.5t-137 119t-162 114t-137 135t-56 160.5q0 199 268 334q-109 98 -109 238q0 141 105.5 231t271.5 90q174 0 283.5 -94t95.5 -250l-152 -51q12 117 -53 182.5t-170 65.5q-94 0 -152.5 -46 t-58.5 -118q0 -53 40 -103.5t100.5 -87t130 -83t130 -90.5t100.5 -110.5t40 -144.5q0 -106 -75 -196t-212 -148q76 -74 106.5 -134t30.5 -134q0 -135 -108.5 -223t-274 -88t-277.5 90t-116 227zM238 551q0 -70 60 -127t255 -197q225 88 225 224q0 59 -52 110t-153.5 114.5 t-140.5 96.5q-90 -33 -142 -91t-52 -130z" />
<glyph unicode="&#xa8;" horiz-adv-x="681" d="M221 1255.5q0 47.5 33 80t80 32.5t79.5 -32.5t32.5 -80t-32.5 -80t-79.5 -32.5t-80 32.5t-33 80zM637 1255.5q0 47.5 34 80t79 32.5t78.5 -32.5t33.5 -80t-33.5 -80t-78.5 -32.5t-79 32.5t-34 80z" />
<glyph unicode="&#xa9;" horiz-adv-x="1515" d="M94 737.5q0 313.5 220.5 533.5t533.5 220t534.5 -220t221.5 -533.5t-221.5 -534.5t-534.5 -221t-533.5 221t-220.5 534.5zM219 737q0 -262 184.5 -446.5t444.5 -184.5q262 0 446.5 184.5t184.5 446.5q0 260 -184.5 444.5t-446.5 184.5t-445.5 -183.5t-183.5 -445.5z M455 733q0 199 107.5 312.5t295.5 113.5q131 0 220 -61.5t122 -173.5l-119 -29q-61 154 -227 154q-121 0 -192.5 -87.5t-71.5 -230.5t67.5 -226t186.5 -83q92 0 158.5 51t89.5 141l122 -36q-31 -127 -128 -201t-236 -74q-180 0 -287.5 116.5t-107.5 313.5z" />
<glyph unicode="&#xaa;" horiz-adv-x="704" d="M193 975q0 88 75.5 145.5t190.5 57.5q90 0 174 -43l20 82q14 53 -16.5 80.5t-91.5 27.5q-88 0 -152 -82l-98 41q43 59 115.5 95t154.5 36q104 0 165 -50t38 -148l-72 -314h84l-20 -90h-201l21 86l-5 4q-37 -43 -92 -69q-57 -27 -104 -27q-78 0 -132 49t-54 119zM311 979 q0 -39 30 -62.5t79 -23.5q80 0 176 76l18 88q-80 39 -145 39q-68 0 -113 -33t-45 -84z" />
<glyph unicode="&#xab;" horiz-adv-x="937" d="M96 518l355 449h198l-375 -482l156 -485h-170zM520 518l354 449h199l-375 -482l156 -485h-170z" />
<glyph unicode="&#xac;" horiz-adv-x="1366" d="M221 836v157h1096v-645h-158v488h-938z" />
<glyph unicode="&#xad;" horiz-adv-x="788" d="M121 418l31 135h577l-31 -135h-577z" />
<glyph unicode="&#xae;" horiz-adv-x="1515" d="M94 737.5q0 313.5 220.5 533.5t533.5 220t534.5 -220t221.5 -533.5t-221.5 -534.5t-534.5 -221t-533.5 221t-220.5 534.5zM219 737q0 -262 184.5 -446.5t444.5 -184.5q262 0 446.5 184.5t184.5 446.5q0 260 -184.5 444.5t-446.5 184.5t-445.5 -183.5t-183.5 -445.5z M518 319v811h348q131 0 205 -61t74 -158q0 -92 -65.5 -156.5t-166.5 -70.5v-4q57 -18 112.5 -90t174.5 -271h-160q-135 236 -168 277q-59 66 -145 68h-78v-345h-131zM649 776h185q84 0 128 33t44 90t-41 89t-111 32h-205v-244z" />
<glyph unicode="&#xaf;" horiz-adv-x="681" d="M199 1176l18 159h664l-19 -159h-663z" />
<glyph unicode="&#xb0;" horiz-adv-x="811" d="M242 1106q0 127 90 217t217 90t217 -90t90 -217t-90 -217t-217 -90t-217 90t-90 217zM352 1106q0 -82 57.5 -139.5t139.5 -57.5t139 57.5t57 139.5t-57 139.5t-139 57.5t-139.5 -57.5t-57.5 -139.5z" />
<glyph unicode="&#xb1;" horiz-adv-x="1366" d="M221 -49v158h1096v-158h-1096zM221 760v158h469v468h158v-468h469v-158h-469v-469h-158v469h-469z" />
<glyph unicode="&#xb2;" horiz-adv-x="661" d="M158 680q18 96 75.5 173t124 124t131 87t107.5 87t43 100q0 33 -23.5 54.5t-58.5 21.5q-57 0 -104 -55t-66 -146h-125q25 137 99.5 213t187.5 76q88 0 143.5 -47t55.5 -121q0 -80 -59.5 -147.5t-132.5 -107.5t-144.5 -98t-89.5 -118h223l37 162h123l-70 -258h-477z" />
<glyph unicode="&#xb3;" horiz-adv-x="661" d="M197 928h127q-18 -76 15.5 -122t99 -46t110.5 42t45 105q0 55 -49 86t-137 19l20 90q231 0 231 141q0 86 -98 86t-141 -129h-123q25 102 95.5 158.5t172.5 56.5q100 0 163 -49t63 -127q0 -70 -47.5 -121t-122.5 -65v-4q47 -10 78.5 -51.5t31.5 -92.5q0 -104 -83 -170.5 t-210 -66.5q-131 0 -199.5 74.5t-41.5 185.5z" />
<glyph unicode="&#xb4;" horiz-adv-x="681" d="M379 1126l164 285h356l-381 -285h-139z" />
<glyph unicode="&#xb5;" horiz-adv-x="1130" d="M-25 -434l297 1401h181l-111 -545q-31 -154 23.5 -224.5t162.5 -70.5q121 0 203 82q76 76 123 311l90 447h178l-200 -967h-162l18 80l-4 4q-131 -109 -262 -109q-137 0 -238 125l-122 -534h-177z" />
<glyph unicode="&#xb6;" horiz-adv-x="1110" d="M82 971q0 178 115.5 299t343.5 121h647v-174h-144v-1651h-172v1651h-215v-1651h-172v995q-186 10 -294.5 121t-108.5 289z" />
<glyph unicode="&#xb7;" horiz-adv-x="598" d="M236 557l55 236h241l-55 -236h-241z" />
<glyph unicode="&#xb8;" horiz-adv-x="681" d="M104 -389l35 90q31 -6 64 -6q55 0 90 23.5t35 62.5q0 63 -84 57l69 170h84l-35 -84q113 -12 113 -137q0 -86 -67.5 -138t-180.5 -52q-62 0 -123 14z" />
<glyph unicode="&#xb9;" horiz-adv-x="661" d="M254 680l22 96h97l143 531h-92l22 96h228l-170 -627h84l-23 -96h-311z" />
<glyph unicode="&#xba;" horiz-adv-x="747" d="M180 1049q0 154 111.5 260t273.5 106q123 0 198 -67.5t75 -180.5q0 -158 -110 -263t-273 -105q-125 0 -200 68.5t-75 181.5zM311 1055q0 -72 41 -112t117 -40q102 0 173 76t71 184q0 66 -45 106t-121 40q-102 0 -169 -71.5t-67 -182.5z" />
<glyph unicode="&#xbb;" horiz-adv-x="937" d="M-37 0l375 481l-156 486h170l164 -518l-354 -449h-199zM387 0l375 481l-156 486h170l164 -518l-354 -449h-199z" />
<glyph unicode="&#xbc;" horiz-adv-x="2048" d="M223 0l1428 1391h133l-1428 -1391h-133zM317 680l23 96h96l144 531h-93l23 96h227l-170 -627h84l-22 -96h-312zM1120 276l477 451h113l-127 -451h127l-20 -81h-127l-23 -99h74l-23 -96h-284l22 96h84l23 99h-281q0 44 -35 81zM1247 276h209l70 256l-4 5z" />
<glyph unicode="&#xbd;" horiz-adv-x="2048" d="M223 0l1428 1391h133l-1428 -1391h-133zM317 680l23 96h96l144 531h-93l23 96h227l-170 -627h84l-22 -96h-312zM1147 0q18 96 75.5 173t124 124t131 87t107.5 87t43 100q0 33 -23.5 54.5t-58.5 21.5q-57 0 -104 -55t-66 -146h-125q25 137 99.5 213t187.5 76 q88 0 143.5 -47t55.5 -121q0 -80 -59.5 -147.5t-132 -107.5t-144.5 -98t-90 -118h223l37 162h123l-70 -258h-477z" />
<glyph unicode="&#xbe;" horiz-adv-x="2048" d="M260 928h127q-18 -76 15.5 -122t99 -46t110.5 42t45 105q0 55 -49 86t-137 19l21 90q231 0 231 141q0 86 -98.5 86t-141.5 -129h-123q25 102 95.5 158.5t173.5 56.5q100 0 162.5 -49t62.5 -127q0 -70 -47 -121t-123 -65v-4q47 -10 79 -51.5t32 -92.5q0 -104 -83 -170.5 t-210 -66.5q-131 0 -200 74.5t-42 185.5zM303 0l1428 1391h133l-1428 -1391h-133zM1200 276l477 451h113l-127 -451h127l-21 -81h-127l-22 -99h74l-23 -96h-285l23 96h84l23 99h-281q0 44 -35 81zM1327 276h209l70 256l-4 5z" />
<glyph unicode="&#xbf;" horiz-adv-x="937" d="M-23 -125q0 193 137.5 331t340.5 118l90 274h96l-84 -428q-111 25 -186.5 7.5t-123.5 -72t-69.5 -111.5t-21.5 -111q0 -80 48 -127t130 -47q178 0 241 197h152q-41 -174 -148.5 -264.5t-273.5 -90.5q-152 0 -240 87t-88 237zM498 731l55 236h242l-56 -236h-241z" />
<glyph unicode="&#xc0;" horiz-adv-x="1323" d="M-82 0l37 162h129l600 1067h-152l39 162h676l-37 -162h-137l115 -1067h149l-39 -162h-512l37 162h166l-31 325h-487l-172 -325h150l-37 -162h-494zM506 1833h356l164 -285h-139zM561 649h383l-49 580h-37z" />
<glyph unicode="&#xc1;" horiz-adv-x="1323" d="M-82 0l37 162h129l600 1067h-152l39 162h676l-37 -162h-137l115 -1067h149l-39 -162h-512l37 162h166l-31 325h-487l-172 -325h150l-37 -162h-494zM561 649h383l-49 580h-37zM760 1548l164 285h356l-381 -285h-139z" />
<glyph unicode="&#xc2;" horiz-adv-x="1323" d="M-82 0l37 162h129l600 1067h-152l39 162h676l-37 -162h-137l115 -1067h149l-39 -162h-512l37 162h166l-31 325h-487l-172 -325h150l-37 -162h-494zM561 649h383l-49 580h-37zM596 1526l246 305h260l98 -305h-137l-123 160l-205 -160h-139z" />
<glyph unicode="&#xc3;" horiz-adv-x="1323" d="M-82 0l37 162h129l600 1067h-152l39 162h676l-37 -162h-137l115 -1067h149l-39 -162h-512l37 162h166l-31 325h-487l-172 -325h150l-37 -162h-494zM561 649h383l-49 580h-37zM604 1548q-4 121 49.5 196t141.5 75q57 0 160.5 -63.5t131.5 -63.5q57 0 64 120h113 q12 -129 -39 -203.5t-135 -74.5q-68 0 -170.5 63.5t-126.5 63.5q-70 0 -74 -113h-115z" />
<glyph unicode="&#xc4;" horiz-adv-x="1323" d="M-82 0l37 162h129l600 1067h-152l39 162h676l-37 -162h-137l115 -1067h149l-39 -162h-512l37 162h166l-31 325h-487l-172 -325h150l-37 -162h-494zM561 649h383l-49 580h-37zM602 1677q0 47 33 80t80 33t79.5 -33t32.5 -80t-32.5 -79.5t-79.5 -32.5t-80 32.5t-33 79.5z M1018 1677q0 47 33.5 80t79 33t79 -33t33.5 -80t-33.5 -79.5t-79 -32.5t-79 32.5t-33.5 79.5z" />
<glyph unicode="&#xc5;" horiz-adv-x="1323" d="M-82 0l37 162h129l600 1067h-152l39 162h676l-37 -162h-137l115 -1067h149l-39 -162h-512l37 162h166l-31 325h-487l-172 -325h150l-37 -162h-494zM561 649h383l-49 580h-37zM713 1677q0 82 58 140.5t142 58.5q82 0 139.5 -57.5t57.5 -141.5t-57.5 -141t-139.5 -57 q-84 0 -142 58t-58 140zM791 1677.5q0 -51.5 34.5 -86.5t86 -35t86 35t34.5 86.5t-34.5 86t-86 34.5t-86 -34.5t-34.5 -86z" />
<glyph unicode="&#xc6;" horiz-adv-x="1984" d="M-41 0l37 162h143l783 1067h-181l37 162h1319l-98 -418h-166l59 256h-503l-101 -434h445l-37 -162h-445l-108 -471h518l61 264h166l-98 -426h-1049l37 162h164l109 471h-355l-346 -471h150l-37 -162h-504zM815 795h272l101 434h-53z" />
<glyph unicode="&#xc7;" horiz-adv-x="1472" d="M162 575q0 154 63.5 303.5t175 268.5t280.5 192.5t366 73.5q135 0 224 -31.5t175 -109.5l29 119h165l-88 -383h-166q-51 236 -356 235q-186 0 -340.5 -103.5t-236.5 -260t-82 -326.5q0 -174 116.5 -290t292.5 -116q260 0 490 267l135 -121q-262 -315 -662 -316l-22 -53 q113 -12 113 -137q0 -86 -68 -138t-180 -52q-61 0 -123 14l35 90q31 -6 63 -6q55 0 90 23.5t35 62.5q0 63 -84 57l60 148q-244 33 -372 199.5t-128 389.5z" />
<glyph unicode="&#xc8;" horiz-adv-x="1173" d="M2 0l37 162h127l248 1067h-127l37 162h1001l-96 -418h-166l59 256h-508l-100 -430h436l-37 -162h-436l-110 -475h518l61 266h166l-98 -428h-1012zM492 1833h356l164 -285h-140z" />
<glyph unicode="&#xc9;" horiz-adv-x="1173" d="M2 0l37 162h127l248 1067h-127l37 162h1001l-96 -418h-166l59 256h-508l-100 -430h436l-37 -162h-436l-110 -475h518l61 266h166l-98 -428h-1012zM745 1548l164 285h357l-381 -285h-140z" />
<glyph unicode="&#xca;" horiz-adv-x="1173" d="M2 0l37 162h127l248 1067h-127l37 162h1001l-96 -418h-166l59 256h-508l-100 -430h436l-37 -162h-436l-110 -475h518l61 266h166l-98 -428h-1012zM582 1526l245 305h260l99 -305h-137l-123 160l-205 -160h-139z" />
<glyph unicode="&#xcb;" horiz-adv-x="1173" d="M2 0l37 162h127l248 1067h-127l37 162h1001l-96 -418h-166l59 256h-508l-100 -430h436l-37 -162h-436l-110 -475h518l61 266h166l-98 -428h-1012zM588 1677q0 47 33.5 80t78.5 33t79 -33t34 -80t-34 -79.5t-79 -32.5t-78.5 32.5t-33.5 79.5zM1004 1677q0 47 32.5 80 t79.5 33t80 -33t33 -80t-33 -79.5t-80 -32.5t-79.5 32.5t-32.5 79.5z" />
<glyph unicode="&#xcc;" horiz-adv-x="598" d="M18 0l39 162h115l246 1067h-115l37 162h424l-37 -162h-109l-245 -1067h127l-39 -162h-443zM205 1833h356l164 -285h-139z" />
<glyph unicode="&#xcd;" horiz-adv-x="598" d="M18 0l39 162h115l246 1067h-115l37 162h424l-37 -162h-109l-245 -1067h127l-39 -162h-443zM459 1548l164 285h356l-381 -285h-139z" />
<glyph unicode="&#xce;" horiz-adv-x="598" d="M18 0l39 162h115l246 1067h-115l37 162h424l-37 -162h-109l-245 -1067h127l-39 -162h-443zM295 1526l246 305h260l98 -305h-137l-123 160l-205 -160h-139z" />
<glyph unicode="&#xcf;" horiz-adv-x="598" d="M18 0l39 162h115l246 1067h-115l37 162h424l-37 -162h-109l-245 -1067h127l-39 -162h-443zM301 1677q0 47 34 80t79 33t78.5 -33t33.5 -80t-33.5 -79.5t-78.5 -32.5t-79 32.5t-34 79.5zM717 1677q0 47 32.5 80t80 33t80 -33t32.5 -80t-32.5 -79.5t-80 -32.5t-80 32.5 t-32.5 79.5z" />
<glyph unicode="&#xd0;" horiz-adv-x="1449" d="M18 0l37 162h115l109 452h-127l34 162h123l107 453h-137l36 162h473q172 0 303.5 -48.5t207 -132.5t112.5 -183t37 -214q0 -152 -59.5 -313.5t-167.5 -270.5q-133 -133 -311.5 -181t-444.5 -48h-447zM371 162h147q188 0 307 35.5t203 119.5q94 94 149.5 229.5t55.5 276.5 q0 174 -106.5 290t-335.5 116h-175l-106 -453h313l-30 -162h-314z" />
<glyph unicode="&#xd1;" horiz-adv-x="1429" d="M-6 0l37 162h137l248 1067h-150l37 162h402l358 -1106h4l217 944h-137l37 162h440l-37 -162h-137l-287 -1241h-202l-388 1202h-4l-235 -1028h127l-37 -162h-430zM719 1548q-4 121 49 196t141 75q57 0 161 -63.5t132 -63.5q57 0 64 120h112q12 -129 -39 -203.5t-135 -74.5 q-68 0 -170 63.5t-127 63.5q-70 0 -73 -113h-115z" />
<glyph unicode="&#xd2;" horiz-adv-x="1599" d="M174 545q0 150 55.5 301t157.5 279t265 208t360 80q270 0 428.5 -152.5t158.5 -412.5q0 -147 -56 -298t-158.5 -280t-267.5 -211t-359 -82q-289 0 -436.5 164t-147.5 404zM385 537q0 -174 106.5 -282t276.5 -108q121 0 226.5 49.5t175 127t120.5 174t75 189.5t24 175 q0 168 -107.5 274.5t-277.5 106.5q-178 0 -325 -111.5t-220.5 -271t-73.5 -323.5zM705 1833h356l164 -285h-140z" />
<glyph unicode="&#xd3;" horiz-adv-x="1599" d="M174 545q0 150 55.5 301t157.5 279t265 208t360 80q270 0 428.5 -152.5t158.5 -412.5q0 -147 -56 -298t-158.5 -280t-267.5 -211t-359 -82q-289 0 -436.5 164t-147.5 404zM385 537q0 -174 106.5 -282t276.5 -108q121 0 226.5 49.5t175 127t120.5 174t75 189.5t24 175 q0 168 -107.5 274.5t-277.5 106.5q-178 0 -325 -111.5t-220.5 -271t-73.5 -323.5zM958 1548l164 285h357l-381 -285h-140z" />
<glyph unicode="&#xd4;" horiz-adv-x="1599" d="M174 545q0 150 55.5 301t157.5 279t265 208t360 80q270 0 428.5 -152.5t158.5 -412.5q0 -147 -56 -298t-158.5 -280t-267.5 -211t-359 -82q-289 0 -436.5 164t-147.5 404zM385 537q0 -174 106.5 -282t276.5 -108q121 0 226.5 49.5t175 127t120.5 174t75 189.5t24 175 q0 168 -107.5 274.5t-277.5 106.5q-178 0 -325 -111.5t-220.5 -271t-73.5 -323.5zM795 1526l245 305h260l99 -305h-137l-123 160l-205 -160h-139z" />
<glyph unicode="&#xd5;" horiz-adv-x="1599" d="M174 545q0 150 55.5 301t157.5 279t265 208t360 80q270 0 428.5 -152.5t158.5 -412.5q0 -147 -56 -298t-158.5 -280t-267.5 -211t-359 -82q-289 0 -436.5 164t-147.5 404zM385 537q0 -174 106.5 -282t276.5 -108q121 0 226.5 49.5t175 127t120.5 174t75 189.5t24 175 q0 168 -107.5 274.5t-277.5 106.5q-178 0 -325 -111.5t-220.5 -271t-73.5 -323.5zM803 1548q-4 121 49 196t141 75q57 0 160.5 -63.5t132.5 -63.5q57 0 64 120h112q12 -129 -39 -203.5t-135 -74.5q-68 0 -170 63.5t-127 63.5q-70 0 -73 -113h-115z" />
<glyph unicode="&#xd6;" horiz-adv-x="1599" d="M174 545q0 150 55.5 301t157.5 279t265 208t360 80q270 0 428.5 -152.5t158.5 -412.5q0 -147 -56 -298t-158.5 -280t-267.5 -211t-359 -82q-289 0 -436.5 164t-147.5 404zM385 537q0 -174 106.5 -282t276.5 -108q121 0 226.5 49.5t175 127t120.5 174t75 189.5t24 175 q0 168 -107.5 274.5t-277.5 106.5q-178 0 -325 -111.5t-220.5 -271t-73.5 -323.5zM801 1677q0 47 33.5 80t78.5 33t79 -33t34 -80t-34 -79.5t-79 -32.5t-78.5 32.5t-33.5 79.5zM1217 1677q0 47 32.5 80t79.5 33t80 -33t33 -80t-33 -79.5t-80 -32.5t-79.5 32.5t-32.5 79.5z " />
<glyph unicode="&#xd7;" horiz-adv-x="1368" d="M264 270l398 398l-398 397l111 111l395 -396l395 396l111 -111l-397 -397l397 -398l-113 -112l-393 395l-393 -395z" />
<glyph unicode="&#xd8;" horiz-adv-x="1599" d="M174 549q0 152 56.5 303.5t160 277t265 204.5t354.5 79q205 0 350 -88l84 92l96 -86l-80 -90q139 -145 139 -393q0 -111 -32.5 -229.5t-102 -233.5t-167 -206t-237.5 -146.5t-302 -55.5q-203 0 -344 86l-84 -90l-97 90l80 89q-139 151 -139 397zM385 541q0 -129 66 -236 l780 875q-96 63 -230 63q-184 0 -329.5 -115.5t-216 -274t-70.5 -312.5zM545 213q90 -66 223 -66q119 0 222.5 47.5t175 124t122.5 171t76 188.5t25 178q0 127 -68 229z" />
<glyph unicode="&#xd9;" horiz-adv-x="1300" d="M200.5 227q-16.5 90 10.5 224l178 778h-127l39 162h455l-39 -162h-127l-189 -823q-33 -143 39 -207t183 -64q135 0 211.5 76t126.5 289l167 729h-120l39 162h436l-39 -162h-115l-166 -725q-66 -287 -168 -389q-137 -137 -385 -138q-104 0 -186 25t-144.5 80t-79 145z M555 1833h356l164 -285h-139z" />
<glyph unicode="&#xda;" horiz-adv-x="1300" d="M200.5 227q-16.5 90 10.5 224l178 778h-127l39 162h455l-39 -162h-127l-189 -823q-33 -143 39 -207t183 -64q135 0 211.5 76t126.5 289l167 729h-120l39 162h436l-39 -162h-115l-166 -725q-66 -287 -168 -389q-137 -137 -385 -138q-104 0 -186 25t-144.5 80t-79 145z M809 1548l164 285h356l-381 -285h-139z" />
<glyph unicode="&#xdb;" horiz-adv-x="1300" d="M200.5 227q-16.5 90 10.5 224l178 778h-127l39 162h455l-39 -162h-127l-189 -823q-33 -143 39 -207t183 -64q135 0 211.5 76t126.5 289l167 729h-120l39 162h436l-39 -162h-115l-166 -725q-66 -287 -168 -389q-137 -137 -385 -138q-104 0 -186 25t-144.5 80t-79 145z M645 1526l246 305h260l98 -305h-137l-123 160l-205 -160h-139z" />
<glyph unicode="&#xdc;" horiz-adv-x="1300" d="M200.5 227q-16.5 90 10.5 224l178 778h-127l39 162h455l-39 -162h-127l-189 -823q-33 -143 39 -207t183 -64q135 0 211.5 76t126.5 289l167 729h-120l39 162h436l-39 -162h-115l-166 -725q-66 -287 -168 -389q-137 -137 -385 -138q-104 0 -186 25t-144.5 80t-79 145z M651 1677q0 47 33 80t80 33t80 -33t33 -80t-33 -79.5t-80 -32.5t-80 32.5t-33 79.5zM1067 1677q0 47 34 80t79 33t78.5 -33t33.5 -80t-33.5 -79.5t-78.5 -32.5t-79 32.5t-34 79.5z" />
<glyph unicode="&#xdd;" horiz-adv-x="1173" d="M162 1229l26 162h457l-24 -162h-138l160 -459l426 459h-162l27 162h481l-26 -162h-123l-557 -602l-107 -465h137l-37 -162h-475l37 162h137l107 465l-209 602h-137zM745 1548l164 285h357l-381 -285h-140z" />
<glyph unicode="&#xde;" horiz-adv-x="1110" d="M4 0l37 162h127l248 1067h-129l39 162h465l-37 -162h-140l-22 -103h129q115 0 202 -33.5t136 -90t72.5 -123t23.5 -140.5q0 -207 -133 -340t-444 -133h-185l-24 -104h161l-36 -162h-490zM430 428h197q94 0 161.5 29.5t102.5 79t50 100.5t15 106q0 96 -57 159t-190 63 h-156z" />
<glyph unicode="&#xdf;" horiz-adv-x="1259" d="M10 0l37 162h119l203 872q86 365 450 365q182 0 295 -91t113 -237q0 -106 -63.5 -189t-176.5 -122q219 -94 219 -330q0 -190 -135 -316t-338 -126q-80 0 -184 32l41 142q59 -16 135 -17q131 0 217 85t86 216q0 106 -74.5 177t-228.5 67l33 139q137 0 211.5 66t74.5 168 q0 90 -64.5 145.5t-170.5 55.5q-207 0 -254 -207l-207 -895h121l-37 -162h-422z" />
<glyph unicode="&#xe0;" d="M100 264q0 145 118 241.5t294 96.5q133 0 270 -72l35 152q18 80 -34 123t-136 43q-143 0 -237 -135l-152 67q66 100 179.5 157.5t244.5 57.5q164 0 257 -84t50 -272l-110 -477h125l-37 -162h-293l31 129l-5 4q-53 -66 -139 -107.5t-168 -41.5q-123 0 -208 80.5t-85 199.5 zM283 272q0 -63 46 -102t124 -39q117 0 266 123l33 145q-129 63 -228 64q-104 0 -172.5 -54.5t-68.5 -136.5zM328 1411h356l164 -285h-139z" />
<glyph unicode="&#xe1;" d="M100 264q0 145 118 241.5t294 96.5q133 0 270 -72l35 152q18 80 -34 123t-136 43q-143 0 -237 -135l-152 67q66 100 179.5 157.5t244.5 57.5q164 0 257 -84t50 -272l-110 -477h125l-37 -162h-293l31 129l-5 4q-53 -66 -139 -107.5t-168 -41.5q-123 0 -208 80.5t-85 199.5 zM283 272q0 -63 46 -102t124 -39q117 0 266 123l33 145q-129 63 -228 64q-104 0 -172.5 -54.5t-68.5 -136.5zM582 1126l163 285h357l-381 -285h-139z" />
<glyph unicode="&#xe2;" d="M100 264q0 145 118 241.5t294 96.5q133 0 270 -72l35 152q18 80 -34 123t-136 43q-143 0 -237 -135l-152 67q66 100 179.5 157.5t244.5 57.5q164 0 257 -84t50 -272l-110 -477h125l-37 -162h-293l31 129l-5 4q-53 -66 -139 -107.5t-168 -41.5q-123 0 -208 80.5t-85 199.5 zM283 272q0 -63 46 -102t124 -39q117 0 266 123l33 145q-129 63 -228 64q-104 0 -172.5 -54.5t-68.5 -136.5zM418 1104l246 305h260l98 -305h-137l-123 160l-205 -160h-139z" />
<glyph unicode="&#xe3;" d="M100 264q0 145 118 241.5t294 96.5q133 0 270 -72l35 152q18 80 -34 123t-136 43q-143 0 -237 -135l-152 67q66 100 179.5 157.5t244.5 57.5q164 0 257 -84t50 -272l-110 -477h125l-37 -162h-293l31 129l-5 4q-53 -66 -139 -107.5t-168 -41.5q-123 0 -208 80.5t-85 199.5 zM283 272q0 -63 46 -102t124 -39q117 0 266 123l33 145q-129 63 -228 64q-104 0 -172.5 -54.5t-68.5 -136.5zM426 1126q-4 121 49 196t141 75q57 0 161 -63.5t132 -63.5q57 0 64 121h112q12 -129 -39 -204t-135 -75q-68 0 -170 63.5t-127 63.5q-70 0 -73 -113h-115z" />
<glyph unicode="&#xe4;" d="M100 264q0 145 118 241.5t294 96.5q133 0 270 -72l35 152q18 80 -34 123t-136 43q-143 0 -237 -135l-152 67q66 100 179.5 157.5t244.5 57.5q164 0 257 -84t50 -272l-110 -477h125l-37 -162h-293l31 129l-5 4q-53 -66 -139 -107.5t-168 -41.5q-123 0 -208 80.5t-85 199.5 zM283 272q0 -63 46 -102t124 -39q117 0 266 123l33 145q-129 63 -228 64q-104 0 -172.5 -54.5t-68.5 -136.5zM424 1255.5q0 47.5 34 80t79 32.5t78.5 -32.5t33.5 -80t-33.5 -80t-78.5 -32.5t-79 32.5t-34 80zM840 1255.5q0 47.5 32.5 80t79.5 32.5t80 -32.5t33 -80t-33 -80 t-80 -32.5t-79.5 32.5t-32.5 80z" />
<glyph unicode="&#xe5;" d="M100 264q0 145 118 241.5t294 96.5q133 0 270 -72l35 152q18 80 -34 123t-136 43q-143 0 -237 -135l-152 67q66 100 179.5 157.5t244.5 57.5q164 0 257 -84t50 -272l-110 -477h125l-37 -162h-293l31 129l-5 4q-53 -66 -139 -107.5t-168 -41.5q-123 0 -208 80.5t-85 199.5 zM283 272q0 -63 46 -102t124 -39q117 0 266 123l33 145q-129 63 -228 64q-104 0 -172.5 -54.5t-68.5 -136.5zM535 1255.5q0 81.5 58 140t142 58.5q82 0 139.5 -57.5t57.5 -141.5t-57.5 -141t-139.5 -57q-84 0 -142 58.5t-58 140zM612 1255.5q0 -51.5 35 -86t86 -34.5 t86 34.5t35 86t-35 86t-86 34.5t-86 -34.5t-35 -86z" />
<glyph unicode="&#xe6;" horiz-adv-x="1771" d="M100 264q0 143 122 241.5t298 98.5q127 0 273 -74l38 162q18 72 -34 114t-140 42q-156 0 -243 -133l-154 65q145 215 434 215q203 0 279 -123q141 123 336 123q211 0 335.5 -146.5t73.5 -406.5h-766q-18 -145 50.5 -229t189.5 -84q156 0 250 139l186 -84 q-145 -213 -432 -213q-279 0 -381 213q-86 -100 -194.5 -156.5t-210.5 -56.5q-131 0 -220.5 84t-89.5 209zM283 260q0 -66 45 -107.5t116 -41.5q119 0 283 133l35 155q-121 70 -230 70q-106 0 -177.5 -59.5t-71.5 -149.5zM993 578h553q18 121 -51.5 193.5t-175.5 72.5 q-111 0 -197 -70.5t-129 -195.5z" />
<glyph unicode="&#xe7;" horiz-adv-x="1024" d="M102 373q0 248 162 435t375 187q164 0 268 -110l19 82h159l-67 -289h-160q-14 76 -74 125q-57 45 -143 45q-139 0 -241.5 -134t-102.5 -319q0 -127 65.5 -198.5t178.5 -71.5q80 0 141 39t125 129l133 -96q-170 -225 -434 -226l-21 -47q113 -12 113 -137q0 -86 -67.5 -138 t-180.5 -52q-61 0 -123 14l35 90q31 -6 64 -6q55 0 90 23.5t35 62.5q0 63 -84 57l57 142q-145 29 -233.5 136t-88.5 257z" />
<glyph unicode="&#xe8;" horiz-adv-x="1130" d="M111 401q0 236 169 415t392 179q225 0 339.5 -169t63.5 -386h-760q-31 -127 41 -219t193 -92q147 0 248 139l188 -80q-61 -100 -179 -158.5t-255 -58.5q-201 0 -320.5 117.5t-119.5 312.5zM350 1411h357l163 -285h-139zM352 575h551q23 100 -43.5 181.5t-183.5 81.5 q-106 0 -191.5 -69t-132.5 -194z" />
<glyph unicode="&#xe9;" horiz-adv-x="1130" d="M111 401q0 236 169 415t392 179q225 0 339.5 -169t63.5 -386h-760q-31 -127 41 -219t193 -92q147 0 248 139l188 -80q-61 -100 -179 -158.5t-255 -58.5q-201 0 -320.5 117.5t-119.5 312.5zM352 575h551q23 100 -43.5 181.5t-183.5 81.5q-106 0 -191.5 -69t-132.5 -194z M604 1126l164 285h356l-381 -285h-139z" />
<glyph unicode="&#xea;" horiz-adv-x="1130" d="M111 401q0 236 169 415t392 179q225 0 339.5 -169t63.5 -386h-760q-31 -127 41 -219t193 -92q147 0 248 139l188 -80q-61 -100 -179 -158.5t-255 -58.5q-201 0 -320.5 117.5t-119.5 312.5zM352 575h551q23 100 -43.5 181.5t-183.5 81.5q-106 0 -191.5 -69t-132.5 -194z M440 1104l246 305h260l98 -305h-137l-123 160l-204 -160h-140z" />
<glyph unicode="&#xeb;" horiz-adv-x="1130" d="M111 401q0 236 169 415t392 179q225 0 339.5 -169t63.5 -386h-760q-31 -127 41 -219t193 -92q147 0 248 139l188 -80q-61 -100 -179 -158.5t-255 -58.5q-201 0 -320.5 117.5t-119.5 312.5zM352 575h551q23 100 -43.5 181.5t-183.5 81.5q-106 0 -191.5 -69t-132.5 -194z M446 1255.5q0 47.5 33 80t80 32.5t80 -32.5t33 -80t-33 -80t-80 -32.5t-80 32.5t-33 80zM862 1255.5q0 47.5 34 80t79 32.5t78.5 -32.5t33.5 -80t-33.5 -80t-78.5 -32.5t-79 32.5t-34 80z" />
<glyph unicode="&#xec;" horiz-adv-x="575" d="M33 0l37 162h108l150 643h-131l36 162h314l-187 -805h140l-37 -162h-430zM72 1411h356l164 -285h-139z" />
<glyph unicode="&#xed;" horiz-adv-x="575" d="M33 0l37 162h108l150 643h-131l36 162h314l-187 -805h140l-37 -162h-430zM326 1126l163 285h357l-381 -285h-139z" />
<glyph unicode="&#xee;" horiz-adv-x="575" d="M33 0l37 162h108l150 643h-131l36 162h314l-187 -805h140l-37 -162h-430zM162 1104l246 305h260l98 -305h-137l-123 160l-205 -160h-139z" />
<glyph unicode="&#xef;" horiz-adv-x="575" d="M33 0l37 162h108l150 643h-131l36 162h314l-187 -805h140l-37 -162h-430zM168 1255.5q0 47.5 32.5 80t80 32.5t80 -32.5t32.5 -80t-32.5 -80t-80 -32.5t-80 32.5t-32.5 80zM584 1255.5q0 47.5 33.5 80t78.5 32.5t79 -32.5t34 -80t-34 -80t-79 -32.5t-78.5 32.5t-33.5 80z " />
<glyph unicode="&#xf0;" horiz-adv-x="1300" d="M182 389q0 252 172 429t408 177q119 0 211 -82l4 5q-33 111 -141 229l-254 -109l-101 76l269 115q-92 78 -158 108l176 76q94 -49 160 -108l254 108l96 -78l-270 -114q190 -223 190 -535q0 -338 -172 -523.5t-426 -185.5q-188 0 -303 113t-115 299zM377 399 q0 -123 62.5 -187.5t178.5 -64.5q121 0 209 72t124 164t36 182q0 121 -67.5 190.5t-184.5 69.5q-152 0 -255 -123t-103 -303z" />
<glyph unicode="&#xf1;" horiz-adv-x="1130" d="M12 0l37 162h117l149 643h-127l39 162h308l-27 -111q184 127 313 127q121 0 183.5 -93t31.5 -226l-114 -502h141l-37 -162h-324l154 662q16 74 -14.5 112.5t-79.5 38.5q-109 0 -293 -127l-121 -524h141l-36 -162h-441zM449 1126q-4 121 49 196t141 75q57 0 160.5 -63.5 t132.5 -63.5q57 0 63 121h113q12 -129 -39 -204t-135 -75q-68 0 -170 63.5t-127 63.5q-70 0 -74 -113h-114z" />
<glyph unicode="&#xf2;" horiz-adv-x="1153" d="M111 385q0 256 172 433t419 177q193 0 306.5 -112.5t113.5 -302.5q0 -104 -37.5 -214t-99.5 -188q-78 -96 -198.5 -151.5t-251.5 -55.5q-193 0 -308.5 114t-115.5 300zM303 401q0 -119 71.5 -188.5t178.5 -69.5q158 0 267.5 127t109.5 310q0 111 -69.5 177t-184.5 66 q-160 0 -266.5 -134t-106.5 -288zM360 1411h357l164 -285h-140z" />
<glyph unicode="&#xf3;" horiz-adv-x="1153" d="M111 385q0 256 172 433t419 177q193 0 306.5 -112.5t113.5 -302.5q0 -104 -37.5 -214t-99.5 -188q-78 -96 -198.5 -151.5t-251.5 -55.5q-193 0 -308.5 114t-115.5 300zM303 401q0 -119 71.5 -188.5t178.5 -69.5q158 0 267.5 127t109.5 310q0 111 -69.5 177t-184.5 66 q-160 0 -266.5 -134t-106.5 -288zM614 1126l164 285h357l-381 -285h-140z" />
<glyph unicode="&#xf4;" horiz-adv-x="1153" d="M111 385q0 256 172 433t419 177q193 0 306.5 -112.5t113.5 -302.5q0 -104 -37.5 -214t-99.5 -188q-78 -96 -198.5 -151.5t-251.5 -55.5q-193 0 -308.5 114t-115.5 300zM303 401q0 -119 71.5 -188.5t178.5 -69.5q158 0 267.5 127t109.5 310q0 111 -69.5 177t-184.5 66 q-160 0 -266.5 -134t-106.5 -288zM451 1104l245 305h260l99 -305h-137l-123 160l-205 -160h-139z" />
<glyph unicode="&#xf5;" horiz-adv-x="1153" d="M111 385q0 256 172 433t419 177q193 0 306.5 -112.5t113.5 -302.5q0 -104 -37.5 -214t-99.5 -188q-78 -96 -198.5 -151.5t-251.5 -55.5q-193 0 -308.5 114t-115.5 300zM303 401q0 -119 71.5 -188.5t178.5 -69.5q158 0 267.5 127t109.5 310q0 111 -69.5 177t-184.5 66 q-160 0 -266.5 -134t-106.5 -288zM459 1126q-4 121 49 196t141 75q57 0 160.5 -63.5t132.5 -63.5q57 0 64 121h112q12 -129 -39 -204t-135 -75q-68 0 -170 63.5t-127 63.5q-70 0 -74 -113h-114z" />
<glyph unicode="&#xf6;" horiz-adv-x="1153" d="M111 385q0 256 172 433t419 177q193 0 306.5 -112.5t113.5 -302.5q0 -104 -37.5 -214t-99.5 -188q-78 -96 -198.5 -151.5t-251.5 -55.5q-193 0 -308.5 114t-115.5 300zM303 401q0 -119 71.5 -188.5t178.5 -69.5q158 0 267.5 127t109.5 310q0 111 -69.5 177t-184.5 66 q-160 0 -266.5 -134t-106.5 -288zM457 1255.5q0 47.5 33.5 80t78.5 32.5t79 -32.5t34 -80t-34 -80t-79 -32.5t-78.5 32.5t-33.5 80zM872 1255.5q0 47.5 33 80t80 32.5t80 -32.5t33 -80t-33 -80t-80 -32.5t-80 32.5t-33 80z" />
<glyph unicode="&#xf7;" horiz-adv-x="1368" d="M135 590v158h1094v-158h-1094zM584 254q0 41 28.5 69.5t69.5 28.5t69.5 -28.5t28.5 -69.5t-28.5 -69.5t-69.5 -28.5t-69.5 28.5t-28.5 69.5zM584 1083q0 41 28.5 70t69.5 29t69.5 -29t28.5 -70t-28.5 -69.5t-69.5 -28.5t-69.5 28.5t-28.5 69.5z" />
<glyph unicode="&#xf8;" horiz-adv-x="1153" d="M111 389q0 252 173 429t416 177q150 0 252 -65l78 90l64 -53l-78 -93q106 -111 106 -296q0 -252 -168 -429.5t-417 -177.5q-145 0 -254 70l-82 -92l-66 51l82 96q-106 109 -106 293zM303 401q0 -82 45 -155l475 538q-61 39 -151 39q-154 0 -261.5 -133t-107.5 -289z M408 184q66 -41 149 -41q174 0 273.5 135.5t99.5 294.5q0 92 -43 154z" />
<glyph unicode="&#xf9;" horiz-adv-x="1130" d="M166 805l37 162h301l-150 -648q-20 -86 8.5 -127.5t88.5 -41.5q111 0 290 141l119 514h-141l37 162h323l-184 -805h121l-39 -162h-303l26 111q-174 -127 -315 -127q-104 0 -179 79.5t-38 233.5l117 508h-119zM350 1411h357l163 -285h-139z" />
<glyph unicode="&#xfa;" horiz-adv-x="1130" d="M166 805l37 162h301l-150 -648q-20 -86 8.5 -127.5t88.5 -41.5q111 0 290 141l119 514h-141l37 162h323l-184 -805h121l-39 -162h-303l26 111q-174 -127 -315 -127q-104 0 -179 79.5t-38 233.5l117 508h-119zM604 1126l164 285h356l-381 -285h-139z" />
<glyph unicode="&#xfb;" horiz-adv-x="1130" d="M166 805l37 162h301l-150 -648q-20 -86 8.5 -127.5t88.5 -41.5q111 0 290 141l119 514h-141l37 162h323l-184 -805h121l-39 -162h-303l26 111q-174 -127 -315 -127q-104 0 -179 79.5t-38 233.5l117 508h-119zM440 1104l246 305h260l98 -305h-137l-123 160l-204 -160h-140 z" />
<glyph unicode="&#xfc;" horiz-adv-x="1130" d="M166 805l37 162h301l-150 -648q-20 -86 8.5 -127.5t88.5 -41.5q111 0 290 141l119 514h-141l37 162h323l-184 -805h121l-39 -162h-303l26 111q-174 -127 -315 -127q-104 0 -179 79.5t-38 233.5l117 508h-119zM446 1255.5q0 47.5 33 80t80 32.5t80 -32.5t33 -80t-33 -80 t-80 -32.5t-80 32.5t-33 80zM862 1255.5q0 47.5 34 80t79 32.5t78.5 -32.5t33.5 -80t-33.5 -80t-78.5 -32.5t-79 32.5t-34 80z" />
<glyph unicode="&#xfd;" horiz-adv-x="1044" d="M-100 -434l37 162h186l190 278l-45 799h-100l18 162h381l-20 -162h-111l33 -567h4l391 567h-133l39 162h395l-39 -162h-90l-848 -1239h-288zM561 1126l164 285h356l-381 -285h-139z" />
<glyph unicode="&#xfe;" horiz-adv-x="1236" d="M-113 -434l37 162h121l346 1501h-137l37 162h319l-125 -541l4 -4q143 137 320 137q168 0 278.5 -124t110.5 -312q0 -236 -157.5 -406t-376.5 -170q-217 0 -342 168l-95 -411h146l-37 -162h-449zM389 389q0 -121 66.5 -190.5t179.5 -69.5q154 0 263.5 124t109.5 298 q0 123 -69 194.5t-185.5 71.5t-203.5 -77.5t-124 -172t-37 -178.5z" />
<glyph unicode="&#xff;" horiz-adv-x="1044" d="M-100 -434l37 162h186l190 278l-45 799h-100l18 162h381l-20 -162h-111l33 -567h4l391 567h-133l39 162h395l-39 -162h-90l-848 -1239h-288zM403 1255.5q0 47.5 34 80t79 32.5t79 -32.5t34 -80t-34 -80t-79 -32.5t-79 32.5t-34 80zM819 1255.5q0 47.5 33 80t80 32.5 t79.5 -32.5t32.5 -80t-32.5 -80t-79.5 -32.5t-80 32.5t-33 80z" />
<glyph unicode="&#x152;" horiz-adv-x="2048" d="M133 567q0 82 22.5 179.5t87 214t163 210t267.5 157t382 63.5h1097l-96 -418h-166l60 256h-514l-101 -432h449l-37 -162h-449l-108 -473h528l62 264h166l-99 -426h-1016q-354 0 -526 157.5t-172 409.5zM348 567q0 -184 118 -294.5t372 -110.5h151l246 1067h-158 q-348 0 -532 -185q-92 -92 -144.5 -220t-52.5 -257z" />
<glyph unicode="&#x153;" horiz-adv-x="1898" d="M102 393q0 244 176.5 423t415.5 179q113 0 213.5 -41t151.5 -129q147 170 385 170q227 0 339.5 -158.5t67.5 -392.5h-764q-23 -147 51 -231t183 -84q137 0 254 141l188 -80q-160 -219 -436 -219q-119 0 -215 47.5t-151 131.5q-182 -178 -422 -179q-195 0 -316 117 t-121 305zM301 383q0 -109 74 -175.5t184 -66.5q172 0 271.5 138.5t99.5 300.5q0 109 -67.5 177t-174.5 68q-123 0 -215 -74.5t-132 -173t-40 -194.5zM1124 580h555q18 121 -52.5 194.5t-178.5 73.5q-215 0 -324 -268z" />
<glyph unicode="&#x178;" horiz-adv-x="1173" d="M162 1229l26 162h457l-24 -162h-138l160 -459l426 459h-162l27 162h481l-26 -162h-123l-557 -602l-107 -465h137l-37 -162h-475l37 162h137l107 465l-209 602h-137zM588 1677q0 47 33.5 80t78.5 33t79 -33t34 -80t-34 -79.5t-79 -32.5t-78.5 32.5t-33.5 79.5zM1004 1677 q0 47 32.5 80t79.5 33t80 -33t33 -80t-33 -79.5t-80 -32.5t-79.5 32.5t-32.5 79.5z" />
<glyph unicode="&#x2c6;" horiz-adv-x="681" d="M215 1104l246 305h260l98 -305h-137l-123 160l-205 -160h-139z" />
<glyph unicode="&#x2dc;" horiz-adv-x="681" d="M223 1126q-4 121 49.5 196t141.5 75q57 0 160.5 -63.5t132.5 -63.5q57 0 63 121h113q12 -129 -39 -204t-135 -75q-68 0 -170.5 63.5t-126.5 63.5q-70 0 -74 -113h-115z" />
<glyph unicode="&#x2000;" horiz-adv-x="937" />
<glyph unicode="&#x2001;" horiz-adv-x="1875" />
<glyph unicode="&#x2002;" horiz-adv-x="937" />
<glyph unicode="&#x2003;" horiz-adv-x="1875" />
<glyph unicode="&#x2004;" horiz-adv-x="624" />
<glyph unicode="&#x2005;" horiz-adv-x="468" />
<glyph unicode="&#x2006;" horiz-adv-x="311" />
<glyph unicode="&#x2007;" horiz-adv-x="311" />
<glyph unicode="&#x2008;" horiz-adv-x="233" />
<glyph unicode="&#x2009;" horiz-adv-x="374" />
<glyph unicode="&#x200a;" horiz-adv-x="102" />
<glyph unicode="&#x2010;" horiz-adv-x="788" d="M121 418l31 135h577l-31 -135h-577z" />
<glyph unicode="&#x2011;" horiz-adv-x="788" d="M121 418l31 135h577l-31 -135h-577z" />
<glyph unicode="&#x2012;" horiz-adv-x="788" d="M121 418l31 135h577l-31 -135h-577z" />
<glyph unicode="&#x2013;" horiz-adv-x="1024" d="M29 426v170h1048v-170h-1048z" />
<glyph unicode="&#x2014;" horiz-adv-x="2048" d="M39 426v170h2072v-170h-2072z" />
<glyph unicode="&#x2018;" horiz-adv-x="575" d="M276 879l56 235q29 117 106.5 196t212.5 81l-20 -84q-152 -27 -182 -193h124l-55 -235h-242z" />
<glyph unicode="&#x2019;" horiz-adv-x="575" d="M264 879l21 84q152 27 182 192h-125l55 236h242l-55 -236q-29 -117 -107 -195.5t-213 -80.5z" />
<glyph unicode="&#x201a;" horiz-adv-x="575" d="M16 -276l21 83q152 27 182 193h-125l56 236h241l-55 -236q-29 -117 -107 -195.5t-213 -80.5z" />
<glyph unicode="&#x201c;" horiz-adv-x="1003" d="M262 879l55 235q29 117 107 196t213 81l-21 -84q-152 -27 -182 -193h125l-55 -235h-242zM709 879l55 235q29 117 106.5 196t212.5 81l-20 -84q-152 -27 -182 -193h125l-56 -235h-241z" />
<glyph unicode="&#x201d;" horiz-adv-x="1003" d="M260 879l21 84q152 27 182 192h-125l55 236h242l-55 -236q-29 -117 -107 -195.5t-213 -80.5zM707 879l20 84q152 27 182 192h-125l56 236h241l-55 -236q-29 -117 -106.5 -195.5t-212.5 -80.5z" />
<glyph unicode="&#x201e;" horiz-adv-x="1003" d="M12 -276l21 83q152 27 182 193h-125l55 236h242l-55 -236q-29 -117 -107 -195.5t-213 -80.5zM459 -276l20 83q152 27 183 193h-125l55 236h242l-56 -236q-29 -117 -106.5 -195.5t-212.5 -80.5z" />
<glyph unicode="&#x2022;" horiz-adv-x="724" d="M199 696.5q0 104.5 72.5 177t177 72.5t178 -72.5t73.5 -177t-73.5 -178.5t-178 -74t-177 74t-72.5 178.5z" />
<glyph unicode="&#x2026;" horiz-adv-x="2048" d="M158 0v246h245v-246h-245zM840 0v246h245v-246h-245zM1522 0v246h245v-246h-245z" />
<glyph unicode="&#x202f;" horiz-adv-x="374" />
<glyph unicode="&#x2039;" horiz-adv-x="532" d="M115 518l354 449h199l-375 -482l156 -485h-170z" />
<glyph unicode="&#x203a;" horiz-adv-x="532" d="M-33 0l375 481l-156 486h170l164 -518l-354 -449h-199z" />
<glyph unicode="&#x205f;" horiz-adv-x="468" />
<glyph unicode="&#x20ac;" d="M61 494l23 141h80q8 82 16 123h-104l22 141h117q74 225 232.5 370.5t367.5 145.5q88 0 164 -31.5t117 -87.5l20 95h137l-59 -363h-131q-8 123 -80 181.5t-180 58.5q-133 0 -238.5 -102.5t-165.5 -266.5h463l-22 -141h-480q-14 -68 -16 -123h479l-22 -141h-459 q12 -160 87 -264.5t189 -104.5q96 0 171 49t159 172l113 -94q-90 -150 -198.5 -212.5t-254.5 -62.5q-199 0 -311.5 147.5t-130.5 369.5h-105z" />
<glyph unicode="&#x2122;" horiz-adv-x="2048" d="M227 1270v121h664v-121h-264v-695h-135v695h-265zM985 575v816h201l203 -652h4l196 652h201v-816h-125v685h-4l-209 -685h-123l-215 685h-4v-685h-125z" />
<glyph unicode="&#xe000;" horiz-adv-x="965" d="M0 965h965v-965h-965v965z" />
<glyph unicode="&#xfb01;" horiz-adv-x="1130" d="M8 0l39 162h111l147 643h-143l37 162h143l16 69q45 195 125 287t205 92q96 0 195 -61l-74 -125q-59 39 -104 39q-100 0 -134 -123l-47 -178h580l-186 -805h139l-37 -162h-430l37 162h108l150 643h-398l-147 -643h135l-39 -162h-428zM971 1302.5q0 47.5 32.5 80t79.5 32.5 t81 -32.5t34 -80t-34 -81t-81 -33.5t-79.5 33.5t-32.5 81z" />
<glyph unicode="&#xfb02;" horiz-adv-x="1130" d="M8 0l39 162h111l147 643h-143l37 162h143l16 69q45 195 125 287t205 92q66 0 119 -24h391l-283 -1229h129l-36 -162h-424l37 162h112l246 1067h-170q-59 39 -104 39q-100 0 -134 -123l-47 -178h125l-37 -162h-125l-147 -643h135l-39 -162h-428z" />
<glyph unicode="&#xfb03;" horiz-adv-x="1726" d="M1184 0l37 162h108l150 643h-131l36 162h314l-187 -805h140l-37 -162h-430zM1565 1302.5q0 47.5 32.5 80t79.5 32.5t81 -32.5t34 -80t-34 -81t-81 -33.5t-79.5 33.5t-32.5 81zM589 0l39 162h111l147 643h-143l37 162h143l17 69q45 195 124.5 287t204.5 92q96 0 195 -61 l-74 -125q-57 39 -104 39q-100 0 -133 -123l-48 -178h125l-37 -162h-124l-148 -643h135l-39 -162h-428zM14 0l39 162h111l147 643h-143l37 162h143l17 69q45 195 124.5 287t204.5 92q96 0 195 -61l-74 -125q-57 39 -104 39q-100 0 -133 -123l-48 -178h125l-37 -162h-124 l-148 -643h135l-39 -162h-428z" />
<glyph unicode="&#xfb04;" horiz-adv-x="1726" d="M1176 0l36 162h113l246 1067h-127l37 162h309l-283 -1229h129l-36 -162h-424zM589 0l39 162h111l147 643h-143l37 162h143l17 69q45 195 124.5 287t204.5 92q96 0 195 -61l-74 -125q-57 39 -104 39q-100 0 -133 -123l-48 -178h125l-37 -162h-124l-148 -643h135l-39 -162 h-428zM14 0l39 162h111l147 643h-143l37 162h143l17 69q45 195 124.5 287t204.5 92q96 0 195 -61l-74 -125q-57 39 -104 39q-100 0 -133 -123l-48 -178h125l-37 -162h-124l-148 -643h135l-39 -162h-428z" />
</font>
</defs>
</svg>
